<mxfile host="Electron" agent="Mozilla/5.0 (X11; Linux x86_64) AppleWebKit/537.36 (KHTML, like Gecko) draw.io/26.2.15 Chrome/134.0.6998.205 Electron/35.2.1 Safari/537.36" version="26.2.15">
  <diagram name="Page-1" id="gUhh6BH6qtZ-bJ-SnkSp">
    <mxGraphModel dx="1345" dy="1865" grid="1" gridSize="10" guides="1" tooltips="1" connect="1" arrows="1" fold="1" page="1" pageScale="1" pageWidth="827" pageHeight="1169" math="0" shadow="0">
      <root>
        <mxCell id="0" />
        <mxCell id="1" parent="0" />
        <mxCell id="RZCP1eC1JpLQxB95aDeo-144" style="edgeStyle=orthogonalEdgeStyle;rounded=0;orthogonalLoop=1;jettySize=auto;html=1;exitX=0.875;exitY=0.5;exitDx=0;exitDy=0;exitPerimeter=0;" parent="1" source="RZCP1eC1JpLQxB95aDeo-5" edge="1">
          <mxGeometry relative="1" as="geometry">
            <mxPoint x="300" y="440" as="targetPoint" />
          </mxGeometry>
        </mxCell>
        <mxCell id="RZCP1eC1JpLQxB95aDeo-5" value="INTERNET" style="ellipse;shape=cloud;whiteSpace=wrap;html=1;" parent="1" vertex="1">
          <mxGeometry x="30" y="355" width="142.5" height="90" as="geometry" />
        </mxCell>
        <mxCell id="RZCP1eC1JpLQxB95aDeo-8" style="edgeStyle=orthogonalEdgeStyle;rounded=0;orthogonalLoop=1;jettySize=auto;html=1;" parent="1" source="RZCP1eC1JpLQxB95aDeo-6" target="RZCP1eC1JpLQxB95aDeo-5" edge="1">
          <mxGeometry relative="1" as="geometry" />
        </mxCell>
        <mxCell id="RZCP1eC1JpLQxB95aDeo-6" value="" style="shape=image;verticalLabelPosition=bottom;labelBackgroundColor=default;verticalAlign=top;aspect=fixed;imageAspect=0;image=data:image/png,iVBORw0KGgoAAAANSUhEUgAAAgAAAAIACAYAAAD0eNT6AAAABHNCSVQICAgIfAhkiAAAAAlwSFlzAAAOxAAADsQBlSsOGwAAABl0RVh0U29mdHdhcmUAd3d3Lmlua3NjYXBlLm9yZ5vuPBoAACAASURBVHic7N13fJ1Xffjxz3OX7h7aew9LluU9E4/YTpzlkJ2QkIRQaFiBAg20JdACBQK0bH6UWVYLpcwCgSyynXiPeMpbnrI8JGvP+/vj2oljy7buc86d+r5fL73iofN9TmTpeb7PGd9jIIRQ4QDygIIz/8098+tcIB8IAX7ACriBjDNtPIAFCJ/56AIGgT6gFxgCOoETQCtwDDgMtAFHz3y0nmkjhBBRMxLdASFSRAioBCYCDWd+XQk0EnmoJ8IQ0ALsOfOxFdhy5td7iSQWQggxKkkAhLhQPjAbmAXMAaYDgYT2KHqngNXASmDVmf+2JbRHQoikIgmAGO8swDRgAZGH/mygLKE9ip09RBKBlcDzwEZklECIcUsSADEe5QCLgKXAjUBhQnuTOG3Ac8DTwB+JrDEQQowTkgCI8cACXAncACwDmpDv/fONAOuBJ4A/EBklkNEBIYQQKWki8C9Ehr7D8hHVRwvwNSKJkxBCCJH0zj70d5D4h2i6fOwFHgPqx/7PIIQQQsSeD3g3sIHEPyzT/WMV8A4iNQ2EEEKIhKgj8mZ6ksQ/GMfbRwfwHSJ1EIQQQoiYcwBvBV4g8Q9B+YgsHnwauA2wXeLfTQghhDAlA/hb4ACJf+jJx+gf+4APAq7R/wmFEEKIsfMSeagcIvEPOPkY28dR4GPIOgEhhBAm+Ig8RE6Q+AeafJj7aCOyIyOIEEIIcRlu4ONEFpkl+gEmH3o+TgB/T+IOTRJCCJHEDOAO3jjFTj7S76MFuB+pwihEUpAfRJEMrgL+jcihPCnHarMRyszC5w/g8frweDx4fX48Hi8erw+X243N7sBms2K12rDbHRiGQYbTCUBfXy+EYWCgn5GRYYYGhxgaGqSnu5vu7i66uzrp6uyk58yvT5/u4NTJE4wMDyf4/9y0V4APA68muiNCjGeSAIhEqgO+CNyU6I6MhdPpIq+gkMzsHLKyc8jKziUzO4dgMIRhscS1LyMjI7SfOsnJ420cbzvGyRNtnDzextEjhxjo749rX0wKA78E/oHI7gEhRJxJAiASwU7kDfBTJOm8sGEYBDOzKCwqobSikuLSCrJzcjGM5P+RaT91ggP793H08EGOHDrIkUMHGE7e0YJeIt8H/wYkbSeFSEfJfzcT6WYu8D0iNfuTSmZ2LoWl5VRW11JdOwFnRlLmJlEbGOjn0IH97NnZzN5dzRxrPZLoLo1mDfAuIuWchRBxIAmAiBcf8FngfUSO5004p8tNYUkZBSXlFJVUkJ2Thc/jwWq1JrprMdV5uoO9u5rZs2sHe3ftpLe3J9FdOmuIyEjAp4mMDAghYkgSABEPNwD/DyhNdEcyMpyUVtVQXl1HXmEJFosFr9eN3+PDYhl/Pw4jIyPs3dXM1s0bad62mf6+vkR3CWAXkaqPzya6I0Kks/F3xxPx5AS+ADxMAr/XrDYbxWWVVNY2UFhahsViBcPA7cwg4PdjS/M3/rEaHhpiz65mtm3ZRPPWzQwMJHQxYRj4BvAIMJDIjgiRriQBELEyEfgFCTwtLisnj9rGyZRXT8Bme+OcGmeGg4Dfj8NuT1TXkt5Afz+bN65j3epXOHY0oWsGVhM5/Gl3IjshRDqSBEDEwv1Ehvw98b6w1WqluLyKCU3TyM0vvODvQgE/rjP778XYHD18kPWrV/LaxrUMDQ4mogudRNaO/DQRFxciXUkCIHTKJLLC/9Z4X9jj9VHfNI2qCRNxZJz3gDcMfB43AZ8vJbbxJaue7m42rF3J6ldeorurMxFd+AnwfiIJgRBCkdwNhS7TgN8S54V+Xn+ASdNmUVnXEJnbP4/D4SAU9OOwyXC/LkODg2xYu4pXX3qO0x3t8b58M3AzsC3eFxYi3UgCIHS4A/gRcTz+1ecPMnHqDKonNI5ahc+wGAT9frwuF8hbf0yMDA+z5bUNvPz8M5w83hbPS3cC9wG/j+dFhUg3cmcUKgwiVdweJU7fSz5/kCmzr6Csqvaiw/kZDgeZoQA2q23Uvxd6jYyMsGXjOp5/5ol4jggMA/8IfCleFxQi3UgCIMzyEJmTjct8vyPDSePUmUxomnbRQj0G4Pd58Xu98tafAEODg6x+9SVWPP9X+vvjVk/gF8A7kMJBQkRN7pLCjGLgd8D0WF/IYrFQNaGRKbOuwOlyXfTz7DYbmaGgbO1LAj093bz83NOsXbmCkZGReFxyHZF1AQficTEh0oUkACJaTcATQH6sL1RcXsmMeYvwBYKX/Dy3201mwC8r/JNM27FWnvrT79i3Z1c8LrcfuIbIIkEhxBjIHVNEYxbwOJAVy4s4XW6mz11AZV3DpT/RMAj6ffg8cS83IKKwbfMmnvjDb+jp6Y71pY4B1wLrY30hIdKBJABirJYQGfb3xvIiZVW1zF6wlIzLFOuxWixkZYbIcDhi2R2hSXdXJ8888Sc2b1gb60t1EZkOeCbWFxIi1UkCIMbiFuDnQMzOx/X6A8xZeDUFxZcvI+DMyCArFMQyyvY/kdx2N2/nz//361jvFugnUj74t7G8iBCpTk5BEZfzHiJ7/GO2uq6moYmrrruZQDB02c/1ut1kZoawyHx/SsrMymbytFl0tJ+i7djRWF3GRmR3ym7gtVhdRIhUJwmAuJQPAN8kRiNFjgwnVy69jolTZ17+bd4wCPi8BAN+GbZKcTabjQkTmwgEQ+zds5OR4eFYXMZKZORqP7AxFhcQItVJAiAu5gHg28To4Z+dV8DSG28j57wDe0ZlGGQGA7LYL83kFRQxYWITB1v2xepsAQNYTmRnwOZYXECIVCYJgBjNW4kM+2v//jAMg6YZc7liybWXXegHkToAOVmZcoJfmnK7PUyeOoPBwQEOHYzJNn4L8BYiOwNki6AQ55AEQJzvJiIL/rTX0bXbHSy45kZqJzaNac++1WIhNztLivukOYvFQmVNHdk5uexu3haL4kFW4HZgDRCXogRCpAJJAMS5lgK/IQar/X3+IEtvup3cgqIxfb7VaiU3Jwu7Ter5jxc5uflU19azu3l7LEoJW4ksDHyJyLoAIcY9WU8lzroCeJIYnOiXX1zKgmtuJCNjbMP4VquV3OxMOcxnnOrqPM2vf/4TDh2IyXO6A1gEbIhFcCFSiSQAAqAcWAnk6g5c09DErPmLx7xn326zkZOdhVX2+I9rw0ND/Pn/fs2m9WtiEf4wMBs4GIvgQqQKSQCEH3gZaNQdeNrcBUycMmPMn2+z28jLypICP0nObrNRU1VOaXERdruNvv5+jra2sa/lIJ1desv9vvLiszz75ONaY56xDlgAxLw+sRDJShKA8c0K/B64QWdQwzCYs3Ap1fWTxt4Ri4XcnGxsFznqVySHgrwc3nbnLQQD/lH/fl/LQV5ds4GtO3YyrGl//5qVL/PUn35POBzWEu8cvwHuAOJyZKEQyUbutuPbN4F7dQa0WKzMv/p6Kmsvc5DPm9pEVvvLgr/k5rDbeejt91z04Q8QDPhprK9lyqQGOk530Xb8hPJ1C4tLCWVmsXP7Vt1JQD2RBa9yboAYlyQBGL/+DviEzoA2u51F172FkvKqMbexGBZyszOxy1a/pNfYUMf0yWObKXI5nUxqqKOitJh9LQfp6+tXunZufgF5BUU0b9use5vglcARIOanFAmRbCQBGJ+uBn5CpEiKFnZHBlffdDt5hcVjbmMYkC0n+qWM2dOmUFyYH1WbUDDAtKZGTp7q4JjiaEBWdg5FpWVs27JJdxKwDPgrEJNKREIkK0kAxp884Akii/+0sNlsLL7+FnLHUtb3LMMgKxiUCn8pZFJDHQV50W8UsdlsTGqow5nhYNeefUp9CIayKCwuYdvmTYT1JQFWIknAT4EeXUGFSHaSAIwvFiJHpDZpC2ixsujat4zpGN9z+X0+qe2fYqory6MeAThXaXEhWZkhtu/cozSXH8rMIjcvn+1bXtO5JsBPZCfMz3UFFCLZSQIwvvwz8A5dwSwWCwuX3URRWUVU7dwuJyG/PzIHIFJGIOBjQs3Y13eMJj83h8KCPDZv3aH08M7KySU7N4/tWzeDviSgBjgNvKIroBDJTBKA8WMh8AM0zfsbhsGVS6+ntLImqnZ2u52czMwxnQUgksvA4BBzZkxVjpOdGSIrM8TWHTvV4uTmEQiGaN6+VblP51hMZFeArAcQaU8SgPEhD3gKjfP+cxYupapuYlRtzh7uI4V+UlNPTy+T6mvxeNSrReflZuNwqK8JyCsoxGazsW+3WjJxDiuRMzF+DGg/kECIZCIJQPozgF8DU3QFbJg8ncZps6PuRHaWbPdLdYZhUFddqSVWaXEhx0+cpLXtuFKckrIKTne003rksJZ+AUGgFvgfXQGFSEaSAKS/h4H36wpWVFrBvMXLoh7CD/h8eNwuXd0QCdJ2/CQzpzZpS+SqKkrZtGU7ff1qdQKqaydwsGUf7adOaukXkSJB+4CNugIKkWwkAUhvVcD/Alo22gczs1hyw61Yo6zYl+FwkBkMyKK/NDA8PMzAwCB1NXpGAew2G/m5Oax/bYtSHMNioXpCA83bttDbo20n31XAfxM5QVCItCMJQPqyEKnzX60jmMvt4Zq33InTFd38r9VqJScrU+b908iRo600TKjBq2kbZ2YowNHWNtpOqL292+12qusmsGXjegYHB3V0zQlMJlIfQIi0IwlA+voH4EEdgSwWK0tvvJVgZlbUbbMzQzhk3j+thIEDB48wbUqjtsSuuDCfVWs3KO/rd7rc5BUWsWXjOi39AiqA48AqXQGFSBaSAKSnycB/oenfd/rcBZRV1Ubdzu/14tWwYlwkn67ubvr7B6itjq4GxMW4XE6OHjuuXC4YIoWCwiMjtOzbo6FnACwCfgWod06IJCIJQPrJAB4HoqjLe3FFZZXMmr846nYOu52sUFDm/dPYocNHyM7KJC83W0s8r8fNuk1qawHOKq2o4uB+bYsC7cBM4EdEBkCESAuSAKSfzwK36Qjk9vpYeuNt2KJc9GcxLGRnZWG1yrx/utvevIviwgKyMoPKsYLBACvXbtAyf28YBpU1tWzeuI7BgQHleEAxkboAL+kIJkQykAQgvcwFvo+Gan+GxcLi628hEAxF3TYzFMCZISf8jQfhcJhtzbuoqijF7/MpxTKAA4eO0KZhGgDA4cggv7CIzZvW6yoXvIDI6NoRHcGESDRJANKHh8gpf1rGY6fNvpKKmglRt3O7XAQUHwQitQwPD/Palh0UF+aTGVIbCTh+8hR79rVo6hkEQ5kMDw9xYP9eHeGswBzgh8CwjoBCJJIkAOnjS8D1OgLlFRYzZ+HVURf7sVmtZGeFpM7/ODQ8PMymrTvIygwprQk4crSVnbv36esYUFpexd7dO+k8rWU7fx4wAjynI5gQiSQJQHqYBXwHDUP/jgwnS5ffhiMjI7qGhkF2Zgh7lOsFRPoIh8Ns3d5Md28vVeWlprYI7t7XonUEACLrAcorq9i0bg3Dw0M6Qs4Dfgcc0xFMiESRBCD1OYA/AeYPaj/H/KtvIDsv+lB+rxePW7b8CTh4+Cg7du6mpLgInze6YkEvrFjFiZOntPfJ6XLj8wdo3rZZRzgrMAP4T2RXgEhhkgCkvkeBO3UEqmucTMPk6VG3s9ttZIVCsuNPvK6ru4c16zfR2dVNSVHBmIpBnTjZzp+ffk65GNDF5OUXcvLEcdpaj+oIVwScBFbqCCZEIkgCkNrqgJ8ByuPugVAWC5Ytj37Y1jDIyczEZpVvJfFmYeDQkVZWrd1Ix+lOgkH/RQtDnWrv4Ge//B2dXd0x7VNFVQ3bNm+kr69XR7gFwC8A/UMWQsSBvLOlLgvwIpH5SCVWq5XrbruHUFZO1G0DPq/y9i8xfmRnZVJRWkx+Xg5Wq5WhoSH2HzjE9ubdDA5pmZ+/rIMt+/jpD75NeGRER7gngWU6AgkRb5IApK6Hga/rCDRt7gImTpkRdTu73U5+dpZU+xMp59mnHueVF57VFe4B4Ce6ggkRL1KqLTWVEqn4pywnr8DUvD+GIaV+RcpasHgZufkFusJ9hcj2QCFSiiQAqembgPK4u81m44ol15ratx/wemXLn0hZVquVm267G6uetSuZwNd0BBIinuT1LfXcQ+SkP2Wz5i+mrnFK1O0cNju5Odny8i/iLi83m5lTm6gqLyUYDADQ3t7Brr0trFm/ida241HFe/m5p3n+mSd0dW858EddwYSINbmFpxY/sA0NJ/3lF5dy9fLbTbXNy87C4ZBa/yJ+bFYr119zFbOmTb7oiNVIOMyqtRt4/KnnGB4eW6XekZERfvK9b3H4oJbiQy1AAxDbrQxCaCJ7t1LLF4CrVYPYHQ6W3ngbDkeU1f4An9cjBX9EXNmsVh54621Maqi75HSVYRgUFxZQVlLEpi3bx1RPwDAMissq2Lh2FSPquwICRM4I0La6UIhYkgQgdUwCfoCGdRszr7yKgqLSqNtZrVayMoNS61/E1fJrl9LYUDfmzw8FA7icTpp3j+0AILfHg8ViZd+enWa7eK65wP8Ceo40FCKGZBFgajCILPxTXnWXV1hMbUOTqbaZwQAWQ75lRPzk5WYzc1r036+zZkwhN2fshxLNvnIh+YXFUV9nFA40bc8VItbkbp4aHiRSdUyJ1Wpl9oKlptq6XS6c0R4QJISimVObTI04WQyDGVMmjf3zLRZuvOUOLHp2BVwD3KojkBCxJAlA8gsBj+kINHnmPAKhzKjbWQwLwYBfRxeEiEpVRZnpttWV0bXNzS9k1rz5pq93nq8CXl3BhIgFSQCS3+eB6Gv0nieUlUO9mYI/gN/vxWriaFchVAX95hNPM0nrwsXLyMrJNX3Nc5QAH9cRSIhYkbt6cpsJvEs1iGGxMG/xMlPnszvsdnyy6l8kSFjltF0TTa02G9cuv1VXhcsPA/U6AgkRC5IAJC8L8P/Q8G9UP2kqmdnm3mqCAb+U+xUJ03G603Tb9tOnTbUrq6iiaYq50bLzOIBv6AgkRCxIApC8HgSiP6HnPC63h6YZc0y19bo9ZEjBH5FAu/bsV2i7z3TbJdcux+32mG5/bihkQaBIUpIAJCcv8BkdgWZeeRV2EwV/LBYLAb+sYRKJtWb9JkbGUNDnfCPhMGvWv2b6ui63m4VLrzXd/jxfAmQLjUg6kgAkp48BykeVFRSXUVZVa6ptwO81tWZACJ1a246zau2GqNutXLOeY8fVavFMmTGbohLzuxDOUQm8X0cgIXSSO3zyKSayeEiJ1Wpl1vzFptrabTY8eoY/hVD2+FPPsXvv2Gv17967nz8/9ZzydQ3D4LqbbtOVCD8KjL0ykRBxIKWAk8//A5RXIE2aPoeyqhpTbbNCIew2+dYQySEcDrNp63ZcTieFhfmXPAzo1TXr+dXv/8ywel1/ADxeH729PToOC3ICHuBx9V4JoYcs704uM4GVKP67eP0Bbrr7AazW6CsHu11OskIhlcsLETO5OdnMmDKJ6soyQoHIccCnOjrYtWcfa9a/pjzsP5r+vj7+46tfoLu7SzXUENBE5ERPIRJOEoDk8iJwpWqQhcuWU1oZ/du/YUB+bi42PeVQhUgbG9au5PHf/UpHqMeBG3QEEkKVrAFIHnei4eGfX1Ri6uEPkaN+5eEvxIUmT5tFQZGWw4KuB5bpCCSEKkkAkoMD+KxqEMMwmHHFIlNtLRYLPq9s+xNiNIZhcPX1b9FVFOsraDjZUwhVkgAkh4eBatUgNQ1NhLLMHRvg93nlqF8hLqG4tJz6ieaO0j5PPZFCX0IklNzxE88HfFQ1iCPDyZRZ80y1tVlteGXbnxCXtfS65djtdh2h/gVw6QgkhFmSACTe3wPKx49NnjGHDKe5+0nA75Ny/0KMgc8fYPYVC3WEKgTeoyOQEGZJApBY2cDfqQbx+gPUNk421dbhsON2SpVSIcZqzvxFeLw+HaH+ETB/3rEQiiQBSKyPo+EGMG3OfCwWc6v3g3457U+IaDgcGVx51VIdobKBD+kIJIQZkgAkThHwkGqQrNx80/X+nRkZctqfECZMnTGH7BzlmTvQNAUohBmSACTOp9CwCGjaHJOlAwyDgE/LMKYQ447FYmHBEi2nBXqBR3QEEiJakgAkRi3wgGqQ4rJK8otKTbV1ZWTgcGhZzSzEuDRh4iSKS8t1hHo/kUPAhIgrSQAS4zMoFgIxDIOpZt/+gYBPiv4Ioeqqa67XEcZJ5LRAIeJKEoD4mwrcoRqkoqaeYKa500XdLpeuvcxCjGslZRVU19XrCPUOoEpHICHGShKA+PsEiocwWSwWmmbOMdfYMAhIyV8htFmweJmOnTR2ItsChYgbSQDiqwF4i2qQqgmN+PxBU209Lhc2u5QhF0KX/MIi6uobdYS6HyjXEUiIsZAEIL4eRfFrbrFYaZw2y1xjw8DvlZK/Qui2YMkyDD2jALIjQMSNJADxU4WGuf/aiU14feZqB3lcTmw2efsXQrec3DwaJk3REepviNQIESLmJAGIn0dRXPlvtdqYOHWm6fZy3K8QsTN/8TVYLMq31Azgwxq6I8RlSQIQH+XAvapB6hon4/aYe4i7nE7s8vYvRMxkZmUzcfI0HaEeAsyd6y1EFCQBiI+PEZnfM81qtdIwebrp9n55+xci5q5ctARDfRTAg5wRIOJAEoDYKwDerhqkun4SLpNv/06nVP0TIh5CmdnUT2zSEep9QEhHICEuRhKA2PsokUpfplksFhqmzDDdXt7+hYifKxct1bEjwA98QEN3hLgoSQBiKxN4l2qQitp60yv/HQ67nPgnRBxl5+ZRM2GijlAPA24dgYQYjSQAsfVuIvN5phmGQeNUk/v+Ab/JaQMhhHnzr1qqozpgFhoODRPiYiQBiB078B7VIGVVtfiD5qYCbVYbLmeGaheEEFHKKyiisqpWR6gPIfdpESPyjRU7d6PhiM+JCm//Pp9bx1uIEMKEeQsX6whTA9ygI5AQ55MEIHaUt/EUFJeRmW1uO7DFYsHjkulDIRKltLySwuJSHaFkS6CICUkAYmMxkWN/lais/Pd6PDpWIgshFMyat0BHmKsA8yVAhbgISQBiQzljD2ZlU1hSZq6xYeD1yNu/EIlWP3ESwVCWjlAP6wgixLkkAdCvFrheNchEhbd/t8uFVb0amRBCkWGxMGPOFTpCaVlTJMS55Cmhn/KqXbfHS3l1nen2Pnn7FyJpTJ0xG5db+WfSDrxXQ3eEeJ0kAHqFgPtVg0xomobFYjXVNsPhwGGXsr9CJAu7w8GUGbN1hHoIcOkIJARIAqDb/ShW7rLZbFTXN5puL3P/QiSfmXOuxGI1l9SfIxO4Q0N3hAAkAdBNQ9nfBjIyzB0dYLVacTnlBUGIZOP1+amd0KAj1EM6gggBkgDotABQLgBe1zjZdFuv2yV1f4RIUtNna1kMOA+YoiOQEJIA6KOcmecVFhPKMlf4xwA86guNhBAxUlZRRW5+gY5Q79QRRAhJAPTIAm5VDVLXaD6xdzqdWNXnGIUQMTR99jwdYe4HfDoCifFNEgA9HgTMTdyf4fJ4KamoNt3eK2//QiS9xsnTcamX6PYBd2nojhjnJAFQZ6Bh8V/dxMlYTBbvsVosODMcql0QQsSY3W5n0lTzRb7OIYsBhTJJANQtJlL9zzTDYqFqgvn1gx6PR079EyJFTJ05R8fP6wxguobuiHHMlugOpIG/VQ1QVFqB2+M13d7rlq1/sTDQ3093dyc93d309fYyMDBAX18PA/0DDA4OMDDQT39vHwMD/QwMDDA40E9fXx8Qpq+375xIYfr6et8Uu6/3zb93ut78b+h0uogMLp39eydg4HS6sDscOBwOHI4MMlxOHI4MHA4HdocDp9ONw+HA6XLh9njweH04HBl6vzBCSVZ2DiWl5RzYv1c11ENouP+I8UsSADVB4CbVIDUNk0y3dTkzZPFfFIaGhjjdfoqOjnY6T3fQ09VFd3cn3d3d9HZ3R37d1UVvTzdDQ0Nx69f5CcH5v+eU+dg2mw23x4vH68Xt8eJ2e8783ofH48EXCBIIBvEHQvK9FCdTZ8zWkQDcCXwQ6L3cJwoxGkkA1NyJ4uI/t9dHUWmF6fay9e/N+vv6aD91go72djraT3G64xQd7e2v/7e7qzPRXYy7oaEhTne0c7qj/dKfaBh4vT4CwRCBYAh/MEggEHr998FQJnaHrDXRYcLEJp58/PcXJnrRCRB5AfkfPb0S440kAGruUw1QPaERw+R8oMViwZUxPod3uzpP03aslfZTJzh+rJXjx1o5dfIk7e0nIRxOdPdSUzhMV+dpujpPc+jA/lE/xelykZ2TR05uPsHMzMiv8/IIBjNlHUoUbHY7jU3TWLPyZdVQb0MSAGGSJADmVQJKpb0Mw6BaYfGf2+VM+5tu5+kOjh4+xNEjhzh+rJUTx9s4efxYXIfnxRv6ens52LKPgy373vTnGRlOMrOzycrOJScvn/yCIvIKinB7PInpaAqYMmO2jgRgGZALHFPvkRhvJAEw722cu0rLhILiMjw+v+n2aTX8Hw5z8uQJWo8cev2B33rkED3d3YnumRiD/v4+jhw6yJFDB9/05/5AkLyCIvILCskvjCQF/kAwQb1MLrn5BRQWl3D44AGVMHbgbuDrenolxhNJAMwxiCQASirr6k23tdlsKX3sb3d3F4da9nFg/z4OH2zh2NEj9Pf3Xb6hSCln1x7s3L7l9T9zezzkFRRRVFxKcVk5RSVlpg/ASnWTpsxQTQAgMhUpCYCImiQA5swBalQC2Ox2SsrNV/7zuFJr61/7qRMc2L+Pg/v3caBlL8fbjslc/TjV093N3l3N7N3VDETqYES2xlVQXFZOSVk5wVBWgnsZHw1NU3j6L39gWG1KawaRg8i2XO4ThTiXJADmKC/+K6uqxabwBu9J5r3/4TCtRw+zd/dODuzfy8GWffT29CS6VyJJhUdGXl/IuX7Nq0Bk6qCkrIKSsgoqqmsIZWYnuJex4XK5qaqZQPO2zaqhHzfxJgAAIABJREFU7gE+rqFLYhxJ7xVkseEADhM5AMi0q2+6g/yiElNtnRkOcrKS6w2pq/M0e3c1s2dXM/t276S7uyvRXRJpJBjKorK6lorqWsorq8lwps+UwY6tm/n1z3+sGqYFqABG1HskxgsZAYje1Sg+/D0+P3mFxabbu1yJv/kNDQ5yoGUf+3bvZO/unRw9ckiG9EXMtJ86wbrVr7Bu9SsYFgt5+YVUVNVQXlVDWXkllhQuYFRdV4/b7aGnR2nBaykwG3hFT6/EeCAJQPRuUQ1QWVtveu+/AbiciRn+7+3pYeeOrezYupm9u5sZGhxMSD/E+BYeGeHo4YMcPXyQV158FpfbTXVdA3X1jVRWq02tJYLVaqW+cTJrV61QDXUbkgCIKMgUQHRswBFAaULyprsfIGBykVNGRga5WZkql4/K6Y52dmzdTPO2zbTs30t4REYYRfKyOxxU1UygrqGR6tr6lJkqOHRgPz/+7jdVw+wlUp9EiDGREYDoLEDx4R/Myjb98If4rP4/0XaM7Vtfo3nbZo4clqF9kToGBwbYvmUT27dswmq1UlZZzYSGSdTWNyZ1UaKi4lICwRAd7QqHPkTWAEwF1uvplUh3qTtxlhh/D8xUCVDfNJXcAnPz/4YBmcGA6emDS+nr7eW1jWt56k+/59mn/sz+Pbvo6jyt/TpCxEs4HObUyRPs3LGVlSte4OCZw3cyM7OT79Ajw6Cr8/QFFRZNaAOeVe+QGA9kCmDsLMABoFAlyM33PIgvEDLV1unMICdT3/D/8NAQe3Y1s3njWnZs28LI8LC22EIkqwynk5oJE5k0ZToVldVJU077yKGD/Od/fE01zA5ggobuiHFApgDGbg6KD/+snDzTD38At47h/3CYAy37eG39WrZt2Uh/n1Tfu5QMXwinP5MMX4gMX5CMM792+kNYHU7sLg92l/e8X2dgd3mx2BzYnBeWa7a7PFiso//oDfZ0MnLeOovhgT6GB/oY7OlkeHCAwd4uhvp7GR4cYKCrneHBQQa6TtF3+hT9ne30d51ioLOd/s52+k6fpL+rXaZxztHf18fmDWvZvGEtwVAWk6ZMo3HKtITXGigoKiaUmcWpkydUwtQB9cA2Pb0S6UwSgLG7VTVAWXWd6bYG4FQ4+a+/v4/NG9axdtUKjh9rNR0nHRiGBVcoB3d2Ae5QHt7cIlyZ+Xiy8vFkF+LKzIs89P0hDMMS177Z3b5R/jSgHLev4wS97W10tx2m52QrPScO03Oile4TR+g5cZSek630nhp/58m0nzrBi88+xYvPPU1FZQ3TZ8+jpq4ewxLff/ez6hsns+KFv6qGuRX4rIbuiDSXHGNfqWEPkUU2pt36tneaPvzH6cggJzv64f+21qOsXbWCzRvXMdDfb+raqcju9uEvKMdXUIY/vxxfQfmZ35fjzsq/6Bv4eDY80E9nawudR/Zx+sg+Oo/uf/3XXa0tDA8OJLaDcRIIhpg2cy6Tp8+K+8LBY0cP8/1vfUU1zHpgmobuiDQnCcDYTAI2qQTIys3n+tvuMd0+GPDjG+PNaGR4mB3bNrN25Qpa9u0xfc1U4MkpJFhSR2Z5PcGyOgLF1fgLynEGkqtSYqoLh0foOX6UjkO7OLVvO+0Hml//70B3ei4Wtdls1DdOZvrsKygsNle104z/+OoXOHniuGqYUiJrloS4KEkAxuYR4IsqAabOvoLGabPNNTYMCnNzLrtyeWCgn3WrXmXVihfSbgW/wxMgu6aJYGkdobI6QmUTCJbW4fCYP05Z6NHVdoj2lh2c2r+d9v07OLH7NdpbmhkZVjrgJqkUFpcwd/5V1NY3xmQXzrn++sSfePWl51TDvAv4vnpvRDqTBGBsngEWqwS46e63EwiZW8HvcNjJy774AqX+/j7WrXqFV198jt7e1D90x+ry4Cutw1cxEX/FRHJrp1Be0xT3+Xhh3sjQIB2H9nBi10aO79rEiV2baGtez8hQalePDGVmMWf+IiZPm4UlRusEDrbs4yff+5ZqmF8Bd2jojkhjkgBcnhc4QeQQIFP8wRBveeuDpjsQ8Pvwe70X/HlX52lWvvwC61e/ysBAas7vG1YrvvIGgrXT8Fc34a+YiDu/7E1bs+xWKwWe0RbHiVQy1N/LyT2baWveQOvWlbRuWZWyCw+DocxIIjB1Jlab3vUk4XCYr3/xM3R3daqE6SBStCx9hmGEdpIAXN5NwO9VAkycOpNpc+abbp+fk4Pd/sZNpqP9FCte+Cub1q9RPUc87qxON4GaKQTrphGsm06gejLWUbbKnctiGBT71FfCi+Rz+vAeWreupnXLq7RuXUXHwd2J7lJUvD4/s69YwLSZc7E7TL8jXODx3/+KDWtWqoZZALyooTsiTUkCcHnfAt6rEuDaW+4mJ99cCQGr1UphXi4QOYzn5eefYe2qFSn34K+45T3kzFiCr6wew0QVtmJfAMsY5l5P7dvGjif+iyMbX6Sz9QBDfZeeErE53fjySiicsoDaZfcSKkvvGirJ/vXpaz9Oy8oneOnrH4npdXTz+vzMX3y1tqmB3c3b+Z+f/kA1zGeBR5U7I9KWJACXtxuFAzacLje3P/CQ6YVDXrcbr8fNmldf4pUXnqWvr9dsVxJq+id+Qqhhlun2BR4f9kskDsODA6z83ifZ8fhPCIfNHVhkWKxMuP5+Zr/r01hsqXWi3OWk0tfn2LbV/PHvl8csfixlZeewYMm11E+cpFRhcHhoiK8+9in6+5UKda1BsXS5SG9JVhA76dQCn1QJUF5TR0lFtam24ZERDuxp5ne//Bk7tm5mKMXe+s8VapiFr7zedHunzX7RBGB4cIAnP/lW9r30B0Ch4l04zPHmDbRuW03VwlswLOnx45FqX5+jW1ayf8WfYhI71np7eti+ZRN7d+8kOzcPfyBoKo7FYuHo4YMcb1NaI5EP/AfQrRJEpK/0uMPFzr3AdSoBJk2fber0v0Mte3nuL//H1k3r06KAj6+sXmkEIMNqI+Mii61e/Y9/OvNw06OrtYWB7g6KZyzRFjORUu3rc2DlkxzZ+FJMYsfL6Y52Nq5bzbGjRygoKsbluvQ6l9EM9Pezc/tWlW4YROqXKNUwEelL9lVd2tUqjS0WCwXFpVG16e3u4oUn/8hf//RbOk6dVLl8UultO6jUfugiw9an9m1jx59/qhR7NNv+9GNO7d+hPW68peLXp+tYmtSvCYfZsfU1vvfNf+fl555mOMrDtipr6nQcVKR0DxPpTRKAi7MAV6gEyMkvxO4YW/3+cDjM9tfW8/tf/Ij9u5tVLqtVMDOLqbOvZNJ0k0WMzug7flip/fBFEoAdT/yX6TntSwmPDNP85H9rjxtvqfj16WpVSwAap82mYfJ0XO74lvG9mKHBQZ5/5gl+8K0vR1WZ0+cPkJtXoHr5BaoBRPqSgugX1wiYP7oPKCod29EBJ48fY+XzT3P82FGVy2nj9ngprayhrKqW3IIiIDIloaKv7ZBS+8GR0R9ihze8oBT3Ug6vfz5mseMlFb8+na0tSu0LS8rIKyxm2twFtB09zJ7mbezduY2hwcQWITredoyf/eDb1Dc2sezGW8d0zkBVTR3Hjiolz+VACVIWWIxCEoCLM79x/4zC0vJL/v3Q0BDrX32RHZs3EE7wca1Wq43Syhqq6xvJKyy+YNeC16+2D7/v5FHCw8OmtgACDF8kAehWTCwupeuY2rRFMki1r084PKIc13vmwC3DMMgtKCK3oIjp8xbQsnsnO7duoq31iI6umrZt8yb279nN4mtvpGnqjEt+blXtBF558VnVS84HUn84S2gnCcDFKSUAbo+XUFbORf/+ZNsxXnr6cTraEzvPH8zMpqa+kYq6BjIynBf9PK9XreZ+eHiYvpNHceUUmWo/Eg4zEg6PUgsghjtZY1Dz/cTu19jx559yZNPLdLUdBIwz++znU3fd/THYZ59aX5+eE61K5YItFgtu74VVI+12B1UTJlI1YSKnTrTRvGUTe5u3MZigEw57err542/+h53bt3D9W+7A5R59kWBxSRkZTif9fUrbAdMpAagmUpdlAW9sz94LvAB8G0ie+dMUIAnAxSklAAUlZaP+eTgcZuuGNWxYtYKRkegWBelitVopq66jduJkcsY4x2i12XC5PfT2mN9R1Nd2yHQCAJFRAMt5IwienELaW2LzM+9V6Ov5+rs6WPW9T7LzmV/CeaM97Qd20n5gJ9v+9GPqrruPmQ8+it11YelnM1Ll63NWl+Lwv9vru2zNjVBWDrMXLGHa3Pns3bmd5s0bOXWiTem6Zu3YuplDB1pYftvdVFTVXPD3FquV8spqdmzdrHIZ5dHMJGADHgM+xIVr10JEjj/+IPA14KNAah86ESeSAIyuCjBXuu+M/KILjw/t7urk5Wf+QuvhxEzHOV1uaidOpnZik6kFUh6fXykB6G07pLSoYnBk5IJaAEVTF8bsAVc0bZGWOAdWPcXL33iEnpOXXuMRHhlm+59+xMHVT3PFB/6doqkLla+dCl+fc6nuADg7/D8WdruD2oYmahuaOHqwha0b1yqvdTGjq/M0P//x95g9bwGLll57wdkC5ZU1qglAA5FzAZTPGE4QG/A4l9/RYAB/BzQB1yJJwGXJLoDRKWfM+UVv3v63f3czf/zlTxLy8M/MzmHe4mu59b53MXnmXNOro6O5uY5GdSHgaOsAapfdG5OCNIbFSu019yjFGOju4MUvf4CnPnXfZR/+5+o6dpAnPnE3L3/jEQZ7u5T6kMxfn9F0Ku4A8Jj8Hs0vLmXxDbew/K4HqJow8bJHb2sXDrPy5ef50Xe/wfFjrW/6q7JKc4XEzmEAV6oGSaB/JbrtjIuBz8eoL2lFCgGN7mFgqtnGgWAmjdMiRW/C4TDrXn2RNS8/F/U+YFW5+YXMXriU6fMWkpmdo1yj/ERbK20KK5JduUXkzFhqur3dasV1XglaVzCbvo7jHG/eYDruaBqW/w3VS8yfpnpg9dM8+cl7ad1i/kCXE7s2see53xAsq8NfUG4qRrJ+fS5m1zP/y4ndr5luX1pRQ15hsen2TpebkopqqusnYRgGp060MXKRBaix0N3VyaYNa8jKziE7Nw8At8fD+jUrVU/8PAw8qaOPcTYT+E+iX8wyl8j/b+qv5I0hSQBG9wUiQ2amlFfXUlRWyUB/P88/8X/s2aFUzStq+cWlzLvqGibPugJ/QGkn45t0dnRwaP/Y9zGfz+bxU7jwFvPtLRbc9gtPXCuaupBj29fQeVRt/viswikLWPDhr5t6cx7o7mDFtz7G6h9+RvntPRLvNLuf/TU9J1opaJqHdZT//8tJpq/P5Wz9w/eV+lk9YSKh7Isvvh0ru91BQUkZNfWTAOKaCIwMD7Nty2uEw2HKyivBMGg9cphjarsXLMD3NXUxnn5BZCtjtAxgIvBDrb1JM5IAXMgPfAmF5dONU2dhGBae+sP/crw1fnv784tLmb/0eiZNm403Bsfn9vf1snfnNtPtDaD0ugfMd8Aw8I1SWMmwWKlceAsD3R0c37XpgkV2Yw5vsdKw/G9Y8OGvmzrs5uDqZ3jik/fQuuVVU9e/FJXRgGT5+ozF+v/+dwa6Oky3r2+apjxVdS6b3U7h2UQgHI5rItCybw/HWo9SXTeBwcFBdm7fohIui8iLTfyGM9TdCjyi0L4Y2A4oLaBIZ3Ia4IUWAs+ZbWwYBlcsuZZVL/41bjX8g5nZNM2YQ1lVbUyv09F+kv/7+Y9MtzesVhb/eJPpWgAWw6D4MonNqf07aH7yvzm8/nm6jh1gsPfSixbtLg/e3BKKpi2i9pp7CJZG/zUc6D7N6h9+hh1P/Mz0wzUaFVcuZ97D/0aGN/okLxFfn7EKjwzz41vKlbYB3nrfu/CMsg1Ql97uLjaueZVd216LW+2O3LwCrrnxZn72g2+rhppM6pwL4CDy4L5wa0R0DgJ1wKXPvR6nJAG40IeAL5ttbFgsEA7H5ebgC4SYOvuKmD/4zxoeGuK/v/d1pRhXfP0Zpa2Axb7AKLUAEufg2r/y8tc/Qvfx+BaX8eYWa9spkCy62g7xy7dPN93eYrFwz99+0PTR29E4daKNda+8wOED+2N+LYisA+jv72dY7UTQdxCZT08Ffwd8RVOsfySyhVCcR3YBXMj8HYjIEb6xfvjbHQ6mz1vITXc/ELeHP7xRC0BFLHYCJMJA92le+tqHePKT98T94Q96dwokC9UzAMZSA0CXUFYOS268jSU33EowM/rTPqPV092t+vCHyF75VJAJfEJjvH8E8jTGSxuSAFzo0rU5E6y4rJLldz1Aw+Tpyqv6zTC7zeqs3hidCRBPh9Y9x2/ft4jmJ3+e2I6Ew+z4y0/59d9eyYFVTyW2LxqongEQi3Uvl1NYWs6Nd9zHzCsWYbPHZl2ERqmSAHyCSBKgix/4lMZ4aUMSgDfzoj7nFBOhrByW3XwXV11/c0znOC8nGWsBxMtgTycvff0jPPHJt9Ldpna6oU49J4/y1KfvT/nRgG7FIkAeX2J+LgyLhQlN01h+1wMUl1devkHiTCH5F36fLfWr2zuJHPAmziEJwJtNJcm+JhaLhckz53L97fe+fjJfIqm+ZfUdV0sAhmJwtO1YHFr3HL9570Kan/ivuCz0i9qZ0YDfvncRh1L0FEPVIkCJGAF48/X9XHXdzSy69qakOYr4PG5A92ETun2ByAJA3azAv8UgbkqTUsBvllTD/6GsHOZdtYzMnNxEd+V1iZ4CGI5zAjDY08mqH3w6biv8VXUdO8gTj96ltFMgUboU6xTo3P6noqSimrzCEla/9Cx7muNbA2QMpgNK+wljaC5gvlDI5S0DrgP+HMNrpJSkettNApMT3QGIDClOnjWPG26/N6ke/gBef2KnAOK5BuDQ+uf57XsXseMvP02Jh/+59r70B37/8JKUGg3oVJ4CSI4EAMCRkcEVS65l/tU3XPKUzQSYkugOXIRB5CCfWK/i/BLy4vs6SQDerD7RHfB4fVzzljtpmj4nsqUwyajeZPtOHiWsUBI5HmsABns6efkbj/DEJ+6mSzFhSaRU2ikwMjxEj+JuimQZAThXeXUdy++6n/zi0st/cnwk6xTAPUTK/sbaRCLrAQRSB+B8p4Bgoi5eXF7JvKuuJcOZVG8Mb6KjFoAQusWzBoBZW9avZv3Kl+JWQOgi9hA57TSZOIlU7Bv9DHX92ogs9jZfcjJNJN8rZuIUkKCHv2EYTJ+7gKuuuzmpH/6gpxaAiCjN9lKa7U10N9JCPGsAmDVx6kyuuj7hP+PlgCuRHRjFh4jfwx8gh0htgHFPEoA31CXionZHBlddfzMNU5Jq/eElJdNcayoyDHjn0no2fPlONnz5Tt61tIEkf3YlvWQc/h9NUWkFN9z+NjKzE7a2x0JybXXOA/4hAdf9IOYOGUorkgC8Ie7z/15/gGtvuZui0op4X1pJqtxsk1FByM1vP3od//HQQvwuB36Xg28/tIA/P3qjjAYoSPQWwGh4fH6W3XxXImsGJORl5yI+TaRQT7w5kfLAkgCcI64/FDn5hVx/2z1xKSOqWyrdbJPF2bf+LV+7mxtnXDjaubSpWEYDFKTaqJTNbmfRtW+hrjEhi/KTZSHgRCLnEyTKnUS2Ho5bkgC8IW4JQH5xKUtvvI0MZ7JNxY2NR3Er4HhTmu3l8Y/f8Ppb/8XIaIB5qTgqZRgGs+YvZvq8uB/olCwjAInekmcQOfht3KbckgC8IS5ZcVFpBYuvuzkV6oZflNebejfbRLl9bhVr/+0Orp5cMuY2MhoQvVQbAThXw+TpzFl4dTwXMSZDArCYSFGeRJsD3J3oTiSKJAARGUDMN+qWVtaw6Lq3YLWldh0Kr1+mAC6nJCvy1v+LD19NyJMRdXsZDYhOKo4AnKumYVI8k4BEJwBW9B31q8PniawJGHckAYgoJsZfi4LiUuZffX1CTvDTLVGHrqQCw4B3LJ7Ahi/fyTVTxv7WfzEyGnB5FosFdwIPyNKlur6RuVcti0cS4COB9U6AB4Em1SAlOU5KcrQ8t8uAv9MRKNWk/tNID/U79SWEsnJYuGw5FkuyH8Q1Nlar1AIYzdkV/t99zyICbn3nmchowKWlQg2Asaqqa2DmlYvjcamY3vMuwUtk5b+yz76tin99m7adFP8E5OsKliokAYgojlVgXyDI0uW3YXdEPwyczFJ9yFWns2/9m786+gp/XWQ0YHTp9r1Y1ziZ+snTY32ZRCUAHyVSdE3JjGo/d83P4+75+cyq1fLv7wP+RUegVCIJQERMfhgiW31uwulyxyJ8QnlkHQAAxVke/vhPN2h/678YGQ24UCovALyY6XMXUF4d06n6mL30XOaaH9ER6IsPVmMYkeT7iw/W6EqI3wk0aomUIiQBiIjJAsBZ85cQzMyOReiEk50AkRX+6/7tTpZpmOuPlowGvCEd61IYhsG8xcvIzM6J1SUSMQLwOUD5bejmOTlc2fDGEoZ5EwLcNk9LZUUrkRMJxw1JACK0Z8O1E5uoqmvQHTZppONb11gVhNz89mPX8osPX02mN3FTOzIaEJFuUwBnWa02FlxzI3ZHTEaW4p0ATAHuVQ3isFn43P0XnmX0ufuqcNq1PM6SZXtiXEgCEKE1AfAHQ8y4YpHOkEnHOw6LAVkMg3curWfzV+9m+YzyRHfndWdHAx66pgGrZfwNB6RzMuoLhJiz8OpYhI53AvAVNDxv3n1dEdUFFw4ilOe5eN8N2m7jiS5QFDfpsSxd3WfRMDR11sJly/EFQrrCJaVwOMyOzRsS3Y2Yc2fYqCkIcNcV1Xzn3Yt4x5J6nPbk+7HJsFu5YXoZt82pxGa10NU3RHf/IIPDI4nuWsxNnjkXR0Z6LbI9VzAzm67T7Zw6cVxn2EHgmzoDXsJb0HDgT8hr438+NgmXY/Sfv5m1fn709GF6+pW/53OBI8Aa1UDJblxkOZfhBLQV5K+ubySvMFELbONHRy2AtY8uoiTTfDnkUFEJRhrUVdCpoSSTrzx4RaK7MWb72jqpfu9/mW6fLjUALmf6vEUcatlHf1+vrpBFugJdhh34go5A/3RHBZnei1dQDbhtfOLuSj7w3R06Lvcp4L+B0zqCJSu5e4K2V/UMp5PpcxfoCpfUdNQCaDmpdjMbGR5Sai8Sb/+xTqX26VQD4FKcLhcz9J4Z4CE+1e/ejYbKg1UFLt5z/eVzlndeU0h9iZYaJblEagOkNUkAIFNXoIbJ03FkjJ+KkqqLrw6cUksAhockAUh1+9rUEoB0XQA4msq6BnLzC3WGjPU8ZRD4Zx2BPndfNQ7b5R9XNqvBYw9U67gkwAeBcl3BkpEkAJoSgAynk7pJU3WEShmqtQAOqI4ASAKQ8lRHANJxC+ClTJ45T2c4bS8/F/EoGqZX59QFuHnO2LdDXjc9i2umavlfcwKP6QiUrCQB0JQFN0yejt0e+0IwyUR5BOBkj1L7keFhpfYi8fYrjgCk8w6A0eQXl+pcYxTLBKASeL9qEMOAf/+b6Av9PPZAta4dMXcCc3UESkaSAGhIACwWKzUNymdbpJxETwHICEDqkymA6DXNmK0rVCynAB4jcsqqkrvm5zGzJvp/48YyLw9eq6UstwF8+cx/044kABqGqIrLKshwml/NnqpU375UpwBkDUDqU50CGG8jAAD5RaX4AloO89O2++k8c4DbVYM47Rb+9W0XFv0ZE4uVf37PbPyei+8aiMIc4G4dgZKNJAAajsWsTOOKf5eiOv96uL2PweGw6fayCyC1DQyNcPBkt1KM8TgCAFA9YaKOMLEYATCIFP1RfmP+wPISSk0e9xv2BMkJufj7t01S7cZZnyc+uybiShIAxR8Cu8NBUVmFrr6kFNVaAEMjYfa0mX8AhEdGCI+kf6GbdLXzcDtDCoWKxksNgNFU1k3Usf0xFmsA7iLyxqwkN+Dgo7ddOIS/eX8XH/5+M1M+uJLQW58n9NbnmfLBlXzkBzvZ0nLmXmJzEM6IbAV8+M6JlOZrKZNdBvydjkDJRBIAxQQgJ68QiyX5KsPFg9Vqw+VR++HadlRtCHh4cFCpvUiczQdOKrUfLzUARuP2eAllKR80pnsEwEnkTVnZJ+6uwO9+o05d/+AID39nBzM+tJpv/ukgW1u66e4bprtvmK0t3XzjjweY8aFVfPC7zfQ7/a+PP7gyrHzm3dN0dAngH4E8XcGSgSQAilMAeYXxKqiVnPyKc5E7jnYptZcEIHVtblFLAALBWO9iS275RcqHmOreQ6ll3/yEYg9/c/Ub9Q76B0dY/pmNfOcvhxgJX3zKcHgkzLf/fJDl//AiA4NvjCzduaSSuZO0nBboJ1IhMG1IAhD5RzUtJ3+cJwCKN+GtRxRHAIYkAUhVqgmAP5je521cTl6R8nZALSsJz8gh8oas7LG3V2OzvjGy85Ef7OS5106Nuf1za4/wsW+ufv33hgGff+8MXcdmvxNo1BIpCUgCoDgMNt5vQqr//+ojAANK7UXibFGcAlBNPlOdhhEQnQnAp9AwonDVpBDXT39jc8Lm/V18/8nDUcf57m+3s3Vv++u/nzMpl9sXa1mrZQW+piNQMpAEQHEEIJ1PIRuLQEjtJrT/RA9d/eZX88sUQGrq6Blgn+IWwEBofCffDqfyonRdUwD1wLtUg1gtBl96R82b/uyHTx2+5LD/xQyPhPnRH3e+6c8+8+7pOC9ykmCUFgPX6QiUaJIAKGbBh1v2aepGasrMVptbGx4Js2K3+TfBkeFhRmQnQMp5bvOl53PHIpSlZV43ZR1u2asaQtcIwJfQcLLs/YsLaCp/86LiZzaNfej/fM+sfvPIQXmBl/ffoW3L9r+TBqfpjvcEwAIoLWNf+8oLjIyM35K0LrdHeSvWczvUzjkf6utTai/i7+lNB5Xa+4OhcT36NjQ0xPpXX1INo2MEYAlwg2oQj9PKv7z1wiH6A23mf7ZbRplefOS+SWQHtWznryeyHiCljfcEYARELxxBAAAgAElEQVRQqkTS2dHOtk3rNXUnNWXlqO2MeaH5hFL7oX5JAFKNagKQlZOvqSepacv61XR3qU2hoHjvI/L8+KJqJwA+ckspBZkXJnRdfeZfrjp7LpweDHgdfPJvppiOeZ5Po38nRVyN9wQA4IBqgNfWrqSvV+1gm1SWnauWADS3dnG43fxDfLC/X+n6Ir72t3Wy80iHUowsxe+5VNbT1cnWjWt0hNqv2P4BQHmTfWFWBh+6SXlL45i946ZaGiq0zH5o2/mQKJIAwDOqAQYH+tmwaoWOvqSkXA2nk72w0/wowPDggKwDSCGqb/8A+epb4FLWuldfYkjP4te/KrR1oWlP/GfurcTjjF8xNZvVwuffN1NXuA8BJg8sSDxJAOA7OoLs2vYap0606QiVcrJz85WPQv7L5lal9rIOIHX8cY3ai2eG00UwU7kKXko63nqEvTu36Qg1AnxPof1HAeUsbHKFl3sXxX86Z9mcIq6eraWGiwP4rI5AiSAJAGwBfqUaJBwOs+bl59R7k4IsFgu5BWo/TE9vbeNkt/k9/YN9aicLivhoO93LX9a3KMXILyoZtyWA1654XleonwFmtxEUAo/o6MRjD1RjSdC/5ZcenoXNquUReBdwpY5A8SYJQMTHAOVXyKOHDnBg7y4N3Uk9+cVqc3gDwyP8bv0R8+17eggrbisTsffzl3YxqHAAEKh/r6WqvTu3cexo9EVxRtEN/JNC+38FPKqduGFmNksmJ66Y04TyAG+/sebynzg2X0LDCYjxJglAxB7gqzoCrVnxPMPD429bYEmF+jTYL9ccMt02HB5hSEYBkt6Pn92hHKO4dPydvjmsZ9vfWV8AzP6wTSay+E+JzWrw2bclfur8n985lYBXbfryjDnA3ToCxZMkAG/4HGD+FfSMrtMdbH9t/G0L9PmDyvOy61o62K5wNkB/z/jdiZEKtrScZOM+tZoP2bn54/II4M16tv0BHCRSxMasL6HhufG3y4poKFUeRFCWE3LykXu1lfb/IuDWFSweJAF4QyfwCR2BXlv76rjcFqhlFGCt+SHOwV6ZBkhm//nsduUYxeWJf2uMt56uTrZuWH35TxybjwJmb043AlerdiDgtvHxu5JnFOcDd02kNF/tWPMzioEP6AgUL5IAvNl/Asqv74MDA2xY9bKG7qSW0kr1+bSfvXKAzj5zZwOEw2EGx2HilQrau/v54TPqCYCO77FUs+7VlxgaMn9exjlWAL8w2daGpqI/H7u9jBy/XUcoLZwOK//67um6wv0jkDJFKiQBeLMR4GFA+TVy17bNnGhT29qWajKzcwlmqU0DtPcO8qMV5leJ93WpnS4oYuNbf9nM6V61kxuzcvOVD59KNRq3/YWJ7Fk3e297iEj5WyVluU7ef2Py1XC4Y0kFcydpOVvCj6b6CPEgCcCFXgZ+rRokHA6zdsULGrqTWiprlO8RfPu5vfQNmltIOdTfJ0cEJ5me/iG++fhm5ThVddoOckkZGrf9/QRYZbKtD03To5+7rwqnPfkeO4YBX3x4Jpp2JL4TmKQlUowl379EcvgoGrYFth4+QMs42xZYWVuvvEf7eNcA/7XSfLW4vk4ti6WEJt99aittp9V2aFgsVsqr6zT1KDXsad6qa9tfD2oP8EfRMKw9q9bP7Vck7+j4zIYc7liiZW2CFU27ymJNEoDR7UXTP+C6FS+Mq22BLo+XIg3btL717F4GTO4XH+jpHtcnNCaTgaERvvrHjcpxSiqqyHC6NPQoNQwNDbF+pbZ1RI9h/syTcjQsbDMM+NKDNbresGPmMw9Nx+nQUpZ4MXCdjkCxJAnAxWnZFth5up3tm9Zp6E7qqJs0VTnGwVO9/OAlcyVjw+Ew/Xq2TAlFX398EwdPqB46BxM0fE+lki3rV9GTHNv+HgOUz8+9bV4ucyck/8F5ZQVeHr5T21TTvxNZPJm0JAG4OI3bAlfS26N+E0wVhSVlWhZrfekvuzh62txJf/2dnYTDckBQIh1t7+Fzv1JPfjOzc5RLTaeSyGl/a3WF+3vMb/ubDdyp2gGHzcJn7k2d7Zsfvb+JvEwto031wLt0BIoVSQAuTc+2wMEBNq4eX6cF1jWqn7nd1T/Ep/9gbuvYyMgIfadPK/dBmPfIj19RXvkPekaUUsm6V1/UddrfCuCXJtsawJfRUN72fTcUU1WQOtM3PredR9+hfv8641+I7AxISpIAXJpsCzSpakIjTpd6UaxfrzvMit0nTbXt6+yUY4IT5OXtR/nFyzuV47jcHipqJmjoUWqIbPtTr5eA+ra/O4B5qp0IeW187PYyc42tiasV8I6bammsCukIlYvauQsxJQnA5b0M/EY1yHjbFmiz2WiYrF5cIxyGj/92K0Mj0d/HwuER+jralfsgojM0PML7vvcCOooyNk6bhdWa1NOoWq3Wd6LoTzG/7S8D+LyOTnzi7koyveYe5GGvlgewKVaLwefeO0NXuA8SWUyZdCQBGJtH0LUtcI/6W1GqqGucomXl9pbDnXzlqd2m2vZ1dTGsp4qaGKPP/O9aNreYG7U5l9Plpro+JbZTa7Fnx1aOtyqvOwboIlKRzqyHgUrVTtQWuXnoWnNrN8IOF2GH8tpDJdfMLuKa2VrWnjiJLKZMOpIAjI2+bYGvvDhutgXa7Hbqm6ZpifXlp3axcu8pEy3D9LarP4zE2Ly49QiP/VbPrpeJU2dis42Pt/+hwUHWr9R62p/ZAgJZwMd1dOJz91Vht5pbQhD2JMeOgcfePxObVctj8k5gro5AOkkCMHayLdCEhsnT8Wg4vW14JMxDP93AqZ7oF0cN9PYyICcFxlx7dz9v/+ZfGTYxXXM+r8+vZSFpqtiyfjU93VrKWB8gsnjPrH8BgqqdWDAxyE2zc0y1Dbu8YNNyRK+yhoogDy7Xcv6EAXwFDYsqdZIEYOxkW6AJVpuNphl6Et/D7X185JfmSsr2tJ8kLAsCY+q9332B/W166i9MmX0lVquWgixJL7Ltb42ucI9gfttfHZGa/0oshsEX3m7yoWlYwJ0cb/9n/fM7pxLwaklIZgN36wikiyQA0dG2LXDDqvGzLbBqwkTlQ4LO+uOmo/z4leiLmo0MD9PTYWYKQYzFt5/Ywi9XmFuncb7MnNxxVfZ37asv6jrt72XMb/uDyNSB8tL7ty7MY3q1uVG/sNtH2JJciV920Mkj92lbi/J5NBRW0kUSgOho2xa4e/v42RZoGAazrlysLd4//WYLzzcfj7pdf1cX/7+9+46TqjwXOP6bur2wLG1ZYFmWlaUjHekoVuzdm9hTNIkxxpp4ExNbNEWT6I1Room9xIIYKxZAVAQRBFTaLh0W2GX77rRz/xhWF7L1vO+ZOTPzfD+f+7mfKOc5r7PsnOe85XkCTcp7OcUR3l+7k+se09f+evzU2cr9JGLFvr27KdNz7C+E2rG/mcBpqoNI8Tr5zYUm9w+63Bgp9jwy/5Nzh1HYV30pExhA+OdkC5IAdJ22boErlr6nYTixoVdePoXFekps+oMGlz22ivW7uj7dXHvggNQG0Gj99grO/v1b+AJ6PtPBQ0fQs3eellixQON3wL+AT01e6wR+r2MQPzu9P/16mHvBDaVlYddmAV6Pk9u+p2dDM+ETGr11BVMhCYA5WroFlu/ZlVDHAscdM0NbQ5eaxgAXPLyCXQe79mMIBQPUHTigZQyJbldlHSff8R8O1pkr13ykpOQUxkycqiVWLNj89Xr2l+/REaoWtZ373wGUi3b0zPJy7Wn9zV3s9oA3TXUIljpnzkCmjNTSzTCD8GbLqJMEwBxtxwJXfpQ43QKTklM4etI0bfF2VzXy3X+spK6pa5+fv7GehuoqbeNIRNUNPk658z9sP6Bl5zoA46fOSpiOfwG/n8/1Hfu7G/PH/lKB23UM4raLCslMNXds00jPsdn++NbdffU4XZMUVwDDtURSIAmAeVqOBdZWVyXUscCikuHkD1CuMfKNNTuqOe/vn1LT2LVNVA3VVbIfwKSqeh8n3f4aa8r0zaT0G1iUUCV/165arvPY358Urr8OyFcdREm/NC6e3cfcxUmpGJ4k1SFExIRhPTh3jpbvLxdwv45AKiQBME+OBZo0edbxWvoENFteWsmZDy6nsq4LNQIMI7wfIEFmX3SprGvihN8u5OMN+jawJqekMmnGsdri2V19bQ1f2qPbX69D1yu799LBuM0U/XFAKE257EBE3XnVWFKTtRSomg2cqCOQWZIAqNF4LFDfLmq7S05JYeL0OVpjrt5RxVl/W86B2s53nwsFA9TsK5f6AJ1UXtXA7F8t4NNN5VrjTpk1V2tCaHcrP1qs69jfUuB5hetvR0Onurljcpg7xlz7byM5E2Ks10PfnmlcfXaJrnD3AlH7ACQBUNN89EbZ5q/WUbFf7xernfUvHKy90tvandWc/sAn7K3u/Ka0oN9HzYF9GDo618SxXZV1zPnVAr7YqncD5dDR4+ircUnI7sr37KJs09c6Qqke+xsBXKo6CJdTteiPPY/9deT674ykZ46W/SrDCO8HiApJANR9gKZjgZ8ueVfDcGLHuGNm0kPzka+v99Yy90/L+Gxr57sABhobqavoel2BRPF56X6m/eJlvtypt5BSj159EmrXv2EYrNTX7e+fgEr5wN8TXodWctlxeQzrb273vpGWheFs/xGUkWq+LlFmmnXthDPTPPzv5dpeYH4DRKX8oSQAesixQBOcTifTjj2JpGS9hbF2VzVy2gOf8NyKnZ2+xldfT700Dfov/3z/a6b+4iVtJX6bJaekMuP4eTg7eADEk9INX+o89vdLhetPBOaqDiIjxcWt5w80d7HLHa7534H8nuaPBvbr1XF8FZfOK2ZYoZaWxT1Q695oWuL89llrC1qPBSZO+9q0jExmHH+q9rrvTYEQP3pqDT9/fi3+YOdmSRtraqg/KOWCAQLBELc8+QmXP/AejX69GyWdThfT555CSpq1X9B2EvD7+Uzfsb+7MH/szwXco2MQ1585gN7Z5mrkhzf+dbxpcM548zOEx06wtqCUy+ngD9dM0BXuWmCQrmCdZa+iy7FtOeE1NaVvNV9TE26Ph559tPShjgnpGZmkpKWzo0xPLfmWVu+oZnlpJdMGdyejEzt3A74mQsEQ3pTEOI/emu0Hajnrnjd5aok1s1HHzDmB/IKIf9dF1ZqVH7Nza6mOUGWEC/eYfUv4HnCZ6iDyc5P518+GmWr3a3i8kN65N+e+PVOZ/8oGurpFx+V08OCNU+iRbW3Z/YK8DD5dv4/NO5RnyFyET2W8oD6qrt1U6OEDDgKnqgY6sHcPg4YMw+OxR0vMSMjJ7UkwGGDfHrMvNm3bVtHAk5/soFuql5H5WR0W8gj6fQQDgXASYNPSpFZ54aPNnHrn63y9q/N7KLpi5LhJDBmhraRqTKirreHDd/6jqwT194DVJq/NILxfSXnq5c/fK+boQSYb/mT2gE7O+PXslsK+ykZWfNm1PTpXnV3CRScUmRlel40pzuWRVzYQUt9IPBxYBGxTH1XnSAKg12rgZEBp7ikUCuLzNdEvwd6S+uQPoL6uxpLTEL5AiLfWl/PZtiqmDMrpcDYg6PcTDPjxpKQmRGOaPQfr+c79i7jz359pn/JvNuiooYyfOsuS2Hb28ftvU3lgn45Qy1A7t/9rNJw7H12YwX1XFpv6vTCSUyGla4nD7HF5fLy2nLLdnSucNHtcHvN/OQ2XMzK/t7nZyeypaGDlV1o2Eg8D5usI1BmSAOhlABuAS1QDVR7YR37BIFJS7V0fW7f8/gM5WLGfKos25JXur+eZ5TvJzfAyLC+j3S+xoN9PoLERT0oKjjjdrBYyDB5972vO+N0brNF8xK+lAYOKOWbOiQmRTLVUvmcXK5d9oCNUCDgT82v//YEn0NDu94nrhlPQ08QSmcMRfvvv4u+Sy+Xg3GMLOVjrY9XXB9pcDnA5HVx1dgnzfzkNjzuyv6/jh+Yyf8EGmnzKyXM+8BWwVn1UHZMEQL+thM/YKre+O1ixn6KSqJeLjiiHw0H/wiIq9pVTU2XNNHRjIMQba8t5dc0e+nVLZVCPtpOsUDCIr74eT1IyTs0bFaNt0ZodnPfHt3n47fWWvfVDeGZneoLt+Ifwsb/Fby2kQU/J30eBvylc/yCgvPZy2qQeXH/GAFPXGqmZkGSu4JPL5eCEyfmcMbOAJK+L2oYADY1BvB4Xg/tnceHxg3jwxilcdEJRxN78W0pNduNwwLsrlKvDA0wCHgK6UNrUnMRKxyNnILAeUN6BMn3uKQwYVKw+ohgTCAT44I0F7NpeZvm9phd359fzhjC8b9tFSRwOB6ndckiKg53r63dU8pvnVvDCR/o3XR6pb/+BzDh+Hi53bFV702HzV+tY9t6bOkLVAsWY7z0yhnDNAKUMzONy8PmfJzI4r+sPccPpxMjpG9d7anz+EGO+8zKbd1TrCHcL4dMeloqvVxr7OEh4o41ylZMD+/ZSPGxkwr09OZ1OBgwqpvLAPqotPpq39UADj3+8g7ID9RR0T6VHRuuNSfwNDRiGgTspOSansteUHeCGxz/mRw8vYd1262se9C8czIzjT8EVY6VedQj4/bz/5gIC/s6Xpm7HbcDrCtc/BxSoDuKqk/K5cIbJNvbp3SBGGv6Y5XI56JWTwovvlekIN57wrI+lTWIkAbCOHAtU1JwEVB+soKrSuvVpCG/eWLerhseWbePjLZVkp3oo7PHfGwADvib8DQ14vEkxsSQQMgwWrtzK1Q8v4eYnP+aLrQdM147tioGDS5h27Ik4nfb/jKyg+djf/2D+2N+ZwPWqg+iW7ubZG0eQmmTi5+l2Y2TkkAgTziUF2SxasYsd5crP7STCpzYWqo+qbYn52xkZcixQg/CegMH4/X7279WyvtahbRUNvLRqNy+uCt9vYG4aKd5vf1WMUBBffR04HHiS7PlWc6CmkfmLvuSSv7zL/725jrJyvZX82jNs9Dgmzjg2JmdJdKitqWbpO69jGNqO/a0xea0XeAkw16mnhdsuLGT2SJMNfzJywWVdWV47cThgWGE2jy3UUkNjDPAiYFmTmMT8DY0cJ/AJME41UNGQ4UyepVy9M6ZtXP8FnyxZFPHufS6ng7EDsjl1VG/OGNPnsCUCd1IyaTk5uNzR/4KrqG3itZVbeeGjzbz1+Xb8wch+Tg6Hg/FTZ2lv8hRrFr+1kK2bN+gItYzwMqLZSZtrgT+qDmJgrxTW/GUiSZ6uL0Ma3mSMrJ6qQ4g5l9y2mGfe3qIj1LuA3tapLUgCYL0ZwPuqQRwOByeddRE5PRLvl6mlHVu3sPSd1/H7Ot/xTye308HUwd05aUQvJhfmUNwrHYcTUtKzSM7MwhHBHcghw+DL7ZUs/nI3rywv5f11uwhE+KHfzJuUxNRjT6Jvf5O14eNE+e6dvPnyszpChYAJwEqT1+cAG9Hw9v/09cM5a4qJ7x0HhLL7gA2S40jbtqeWURe9REOTltM1J6G2B6RNkgBExgvAWapBeuXlM/e0czUMJ7ZVH6zkgzdf5aANOvh1S/UwYWA3JhXmMHFQdyYM7Ud2t2xL7tXgC/B56X6WfrWHD7/azbKv9lBRG51EqKXs7rnMPH4eGVlaGqPELMMweP3fT3Fg314d4R5FrWTvn4Cfqg5iypAs3rtzrKnN+0Zy+qG1/8T0vw99xj2Pm129Ocw6YDTm94G0SRKAyCgk/EOUY4GaBPx+Pnr/LV291bVxOKBPVgpFfbIo6pNNYe8sinpn0jMrhfRkD5mpXlKT3KR63WSnhZcSDtY1Ue8LUN8UoLreR22jn/KqBjbtqWbLnqrw/99bxc6Kui7XRLdaQdFRTJ45F7cn8d7yjqTx2F8NcBTmj/0VEf6+Udo05HDAkrvHMaG47eOxbV/sxMjpg5Ggm0ABaur9DDv/RcorGnSE+yFqdSBaFU8JQA4wE5gMlBDurNSD8C58e+7UEkIImzp3ai+euG6YqWuNtCyM1Ki0uLeV+Qs2cPU9y3SEKgcGA1qKDDSL9QQgAziHcOndY5D2xkIIoSzZ4+SLv05iQE8Tk5ZOF6HuecT+40VdMGQw8dIFrN2spZbJ74CbdARqFqsPzEzgRsJdk+YD04jd/xYhhLCVH8/rZ+7hDxjp2cjDP8zldPD7n0zQFe5awjPb2sTaAo0T+D7h4ginoGFNXQghxLd6ZHp46vrhJJs49ofbi5GWI8//FgryMljx5X42qZcIdgG9CG8q1yKW3pr7AR8A/wdYs81aCCES3K3nF5KVaq58s5GeLQ//Vtx19TjcLi2P23MJ73PTIlZmAOYAbxHe3CeEEMICQ/LTeOjqITjN1LPwpsjGvzb0yE5mb0UDK79SPrrsAIYB/1AfVWzMAJxNuAhCj2gPRAgh4tndlxThdpl5hXcQSpeJ2fbcevlostK1lHOfBJyvI5DdE4BzgacBOWQshBAWmjWiGyeN7W7qWiMlPWHq/ZuVm53Mjd8dqSvcXWjYA2fn1ZpjgEXIGX4hhLCU0+Fg2b3jOHpQRtcvdjgxuvfBcFi/orx2cyWPLtzAeyt2s3V3LQAD+qQze1wel84bzLBCe1ej9PlDjPnOy2xW3xAIcAvhRMA0uyYA/QjXwJZpfyGEsNjFc/rw8I/MbbEy0rMxUkxUC+yCJn+Q6//8KY+88jWhUOvlMF1OB1eefhT3/HgCXjMnGCLk3++VcdGt7+sIVQ0UA6ZrT9txE6ADeAYYFe2BCCFEvEvxOnnuxhFkmtn573RhZOZi5btkkz/Iqde9zYvvlbVbCtswYMWX+/lobTnnHluIy9ReBusNHZjNeyt3s31vnWqoJMLF8BaaDWDHNOkK4IRoD0IIIRLBz88YQH6uueXkUHo3rJ5I/vn9y/ngsz2d/vPvr9zNjX/91MIRqbv76vGmGiy14gpguNmL7ZYApAO/ifYghBAiEfTJSeJnp/c3da3hSYKkVM0jOtzazZXMX7Chy9f9/aWvWF960IIR6TF+aC7nHVeoI5QLuN/sxXZLAK4Fekd7EEIIkQhuu7CQtGSTK8Fp1h/7e3ThhjbX/NsTDBk8tnCjBSPS57ffH0tKkpZV+NnAiWYutFMC4AWujvYghBAiEYwsSOc7s0y+byWlhmcALPbup2Y7IsOiT3dpHIl+/Xqlcc355rottuIPQJc3cdgpATiLcJ1jIYQQFvvdJUW4zFT8c0AoAm//gNJGuW17ajWOxBrXXTSCXjkpOkKVEN4P0CXmCj5b4wJdgdL6DiJv1tl0HzmVlNw8XClpHV7TJz0Tj9NO+ZAQQhxu6f3XsuGtp5XjnDS2O3NG5Zi61kjJBFdkHh0qG+U0bbKzVEaqh19dMYar7lmmI9xtwFOEjwd2il2eeCmE6/0rcbhcFH/nJib9bgEDTr6U9H6DO/XwBwiFQqq3F0IIy1SUrmPjO88px3G7HNx1cZG5i51Oy8/8t5Tfs3Pf363p1ytd40isc/EpgxkxSEsBo56EiwN1ml0SgKmA0nZSh8vFqOseoP9Jl+BwdX1jRai9A6ZCCBFlyx+5DSMUVI5z+XF5lPQz92A1UrMhgjOlc8bnmb722Anmr40kl9PB3T8aryvcNUBBZ/+wXRKAo1UDFJ13LbljZpq+PoQkAEIIe9r+6Tvs+nyxcpzMVDe3nj/Q3MUuD0ay+TdyMy6dN9jUPgWX08Elpwy2YETWmDM+jxOn5OsIlQzc3dk/bJcEYLTKxSk98+l/0qVKA5AZACGEHYWCAT79h57yKDecNYCeWeY60oXSsyO+sD6ssBtXnn5Ul6/7wVlDKCmIre6Ed101HrdLyyP5XGByZ/6gXRIApdQn/9jzTU37tyQJgBDCjja88QQHt3W9GM6R+vdI5ifz+pm61vAkgVfLbvUuu+fHE5g1tk+n//zscXncfbW2KfWIGVKQxRWnFesI5QD+SCdKNNolAeipcnG3YZOUByAJgBDCbvz1NXz21O+1xLr9fwaRbKZJjgOM9Oh12fN6nLzy++P44Vkl7S4HuJwOrj6nhFd+fywet10ebV1z6+WjyU43N0NzhEnAeR39Ibs0A7qZcFMDUwadew2uZLWSlB6ni1SP9LMWQtjHqid/z87P3leOM35wJn+8vNjUDL6RnAYppr+etXC5HJwwOZ8zZhaQ5HVR2xCgoTGI1+NicP8sLjx+EA/eOIWLTjBZ28AmUpPduFwOXUWMxgN/AwJt/QG7fFJbAXMFqYEZjyzHk6Z2NCXF7aFHamQ3uAghRFtqy3fw7+8fQ9DXpBzrvTuP5pgSE2viDgehnDxw2uVdMf41+YOMvuhlSnfV6Ah3M+1sCrTLPIlf5eJgg3rFJzkFIISwk5X/vFPLw/+MyT3MPfwBIzVDHv4RluRxcccPx+oKdzPtVNi1SwJQpXKxv67ThY/aJIWAhBB2sW/DKjZ/8JJyHK/byR3fGWTqWsPpimjRH/GtM2cVcMwoLZXxMwlXCGyVXRKASpWLAzoSAOUIQgihx/JHfg0aNiZfdVI+RX1M7o9KywaHXR4RiecP10zEqWc/wxXAiNb+hV1+ukoJgL9WaQIBgJAhKYAQIvrKli5k77pPlON0S3dz49kDzF0chaI/4nCji3M477hCHaFcwH2t/Yu4SAACdeoJgGFoSbiFEMK0UMDPin/eqSXWrecX0j3D3MmmaB77E9+64wdjSU3W0nhpNnDikf8wLhIAHXsAQGYBhBDRtf7V+VTv2qIcp7B3Ct873lwtfMObguFNVh6DUJfXI5VrzhumK9wfOKIDcFwkADpmAED2AQghoqeptorVz96vJdY9lxThNVkMx0jL0jIGocd1/zOc3t21VGEsAa5s+Q8i09S5YzaaAbBLTiSESCSfP/V7mmqUvgq/cfbdX2iJI+LObcBTHDp5Z5ennU0SANkEIISIvJrdZXz52mPRHoaIfz0I1wYA4iQBCGg4BQCSAAghomP5/NsIBZTqoQnRWdcCgyBOEgCZARBCxH3Wge4AACAASURBVKryLz9l68dvRHsYInF4gTsgThIAbZsAJQEQQkTYZ0/cI2eQRaSdCxTHRQIgMwBCiFhUs7uMXauXRnsYIvE4gCvskgBUoXAKL1BfrSWDlgRACBFJOz97X97+RbQca5cEIAiYfo03gkECjXXKg5COgEKISKrdtzPaQxCJa4BdEgCwQ0MgycSFEBFkSPVRET3OuEkA/Fr6AUgCIISInIzeJpv1CKFuU9wkAIFa9RmAYEgSACFE5PQZcQw4tLR8FaKrPoibBEDHSQBpBiSEiKSs/EH0HTMj2sMQiccAHoqbBEBLS2BkQ64QIrLGX/a/uJO0NHsRorP+AGyMmwRAWy0A6QkohIignIFDmXrNH3G67NKbTcS5NznUDyBuEgB91QC1hBFCiE4rnHEGJ9zxPKk5vaM9FBG/QsC9wClAAMAV1eEcbhjhgZmSnj+Y3KNnKg8izePBbavDEUKIRJDeqx8lp1xCZp8Cgk0NGKEg/oY6WZcUKiqB9YRbAF8CPEuLont2mnOyxxKA/K4JIaLE5U1m8HHnM/i486M9lDa9fsvZ7FYrX3wy8B9NwxEK7PSqa5MlANkDIIQQbfGpt19X+q4X+sRNAiANgYQQwnpNtQdVQygHEHrETQIgLYGFEMJ6MgMQP+ImAfBrqAQIkgAIIURbjFAQf32tahiZAbAJOyUAii2Ba6QlsBBCWMhXV6PawKgBaNQ0HKHITglAEKgxe7ERkpbAQghhpaYa5dl7mf63ETslAKC8DKC+D0BmAIQQonWy/h9f4ioB0NIPQBIAIYRolYYTAJIA2IjdEoAKlYt1HAWUlsBCCNE6DTMAsgHQRuyWACjOAEhLYCGEsIrMAMSXuEoA/NISWAghLNMkewDiSlwlAAFdtQCkJbAQQvwXn8wAxJW4SgB0zACANAQSQojWyAxAfImrBEDHHgCQfQBCCNEa2QQYX+IqAZCWwEIIYR3ZBBhf4ioB0NUQSLHUpRBCxCUpBBRf4ioB0FEJECAoxwCEEOK/yAxAfImvBEDTEoAh/QCEEOK/yAxAfImrBEDXEoBUAxRCiMNpagUsCYCN2C0BUGwJXKtl/V76AQghxOF8ddWq368+oF7TcIQGdksAlFsCBxvUWwLLHgAhhDhcU43y+r8cAbQZuyUAYIN9AFIHQAghDifr//En7hIAHfsAZAuAEEIcTk4AxJ+4SwD0zABIBiCEEC3JDED8sVsCkAQcpRIgoKEWgCQAQghxuCb12dUSwK1hKEITuyUA3wH6qgTQ0xJYKgEIIURLGjYBFgDnq49E6GKnBMAJXK8aRBoCCSGEfhpaAQPcgr2eOwnNTj+Is4Bi1SDaqgHKFIAQQnxDQytgCC8DnKwjkFBnpwTgRh1B9PUDkBkAIYRopmETYLNf6Aok1NglAZgLjNURSN8SgJYwQggRFzQcA2w2EZiuK5gwzy4JwM26AunYBAjSElgIIVrSOAMAcJPOYMIcOxzJmADM1BVM1wyAlAMWKnx11VTv3ELVzk0c3L6J6p2bqdu/C39jPYHGeny1B/E3hsuie5JT8aZn405OxZOcSlpuHpl9B5Hdr4isvkVk9i3Em5YZ5f8ikeg0zgAAnAgcDXymM6joGjskALfoDCYtgUU0+Bvq2Pf1SnatWsyuzxdzYPPaTs8iNdVWHbHBauV//ZmM3gPIGz2dvDHTyRs9naT0LE0jF6JzNBwDPNL1wAW6g4rOc0T5/kOAdWhcivCkZzHj4U+U42R4k+iWnKJhRCJe+eqqKF2ygE3vvkD5lyswQsGI3NfhdNFr6HgGzTqbgdPm4U2TZEBYywgFefTUfN3Ho4KETwVs1BlUdF60E4B/At/VGdDhcDL7ybU4HGo5RbrHS05KqqZRiXhhGCF2rHiXTYueY9snbxL0NUV1PC5vEv0nHs/gOefRd9ws5b/3QrSmqaaSJ88vsSL0Q8APrAgsOhbNBKAfsAnw6g48c/5y3Klqa6Ypbg89UtM0jUjEOsMIsX35O6x68l4ObP4i2sNpVbcBRzHirKspnHkmTpcdVvdEvKjeVcoLV062InQTUAjssiK4aF80Xxeux4KHP4C/VloCCz1CwQAb3nySF66cwju/+a5tH/4AlVu/ZvEff8KLP5jGhreeIhQMRHtIIk5oPgHQUhJwjVXBRfuilQB0By6zKriOkwBSB0Ds37iahdedzNI/X0fN7rJoD6fTqneVsvT+n7HgmuPZu355tIcj4oDmEwBH+iGQbeUNROuilQD8FLBsfl1HLQDpCJi4mmoO8vFDv+TVa09k/8bV0R6OaRWl63jthtNY/Icf03hwf7SHI2KYhTMAABnAVVbeQLQuGglAGuGMzzJ6ZgAkAUhEWz96nReunMT6BY/ERzEow2DTu8/z7x9MY9vHb0R7NCJGWTwDAOFlADl2FWHRSAB+SHgJwDLSElh0VSgYYMWjt7PojsusOO8cdU01lbxz+6V8/NAvCQX80R6OiDGaGgG1pycWLguL1kU6AUgCrrX6JtISWHRFzd5tLPz5Kax54a/x3QbSMFi/4BFeu/5Uavduj/ZoRAzR1Aq4IzcCnkjcSIRFOgH4LpBn9U2kJbDorP0bV4fX+jd8Hu2hRMy+Dat45ZrjKP9qRbSHImJEBGYAIHw0/LxI3EiERTIBcBE++mc5v6ZsVVoCx7fdq5fy+s1n0Vh1INpDibimmoO88Ytz2bHy3WgPRcQAizcBtnQL9mlSF/ci+UGfBQyOxI10LQHI8z9+lS17jbd+dSH+htpoDyVqAo31vPObi9nywUvRHoqwuaaaykjdqgQ4OVI3S3SRTABuiNSNdC0BBJEMIB5t+eAl3rvzSoJ+X7SHEnWhgJ8P7r2aLYtfjvZQhI1FaAmg2S8iebNEFqkE4ARgbITuRUDTX1Y5Chh/dn2+hCV/uiY+jvhpYhghFv/hx+z87L1oD0XYVIQ2ATabCEyP5A0TVaQKht8UofsA+mYAJAGIL/s2rGLR7ZdE9M2/T24q40tyGVuSS1G/TAbmZdCrWzJZGV7SU8IbnhuaglRUNbK3spGyXTV8tbWKNRsr+OiLcvZWNERknKGAn3fvvJIT7/o3uYNHReSeInZEeAYAws+MxZG+aaKJRDOgCYB6f94u8KRlMuMR9RKo0hI4ftTs3carPz2BxuoKy+81fmgPzpw1gBMm51NSoFbhdMO2KhYu3c6CJdv4ZG255SdTkrO6c+qf3iC9Vz9rbyRihkWtgDtjLPBZpG+aSCKRALwCnBqB+3xDV0vgNI+X7tISOOaFAn4WXj/P0qN+GakeLp1XzGXzihlSkGXJPTZur+bRVzfwjwUbOFhr3SxGj6OO5uR7XsHpliPZwtJWwB15BrggGjdOFC6L45cA9xHxtsMGA066GKcnSSmK2+kkzWNJw0IRQcsf+TVbl/3HkthZ6V5uuWQU//r1DOZN609udrIl9wHonpXEnPF5fO+MIaSleFi98QCNvqD2+9Qf2E2gqYG+R8/UHlvEnvoDe1j/6vxo3LoEeBqwftouQVm9CfDmCNyjVX4Na1ZSCTD2bf3oddYteER7XKfTwffPGML6Z8/kxu+OJCs9coliZpqHmy4eydpnzuTK04/C5dSfX699+SG2ffKm9rgi9kSwBsCRXMB10bp5IrDy4dwPON/C+O3SsRFQHv+xrbHqAEvvv1b72uVRA7JY9MCJ3H/dJLpnWffG35HuWcn85eeTeeeBExmUn6k3uGGw5E8/jcieCWFvEWgE1J5LiED12ERlZQJwA1Gs66zjKKAcFYttnz76W+2NfS44fhDL5s9j8oieWuOqmDyiJ8sfO5Xz5xZqjdtUU8mKR2/XGlPEnijOAEC4f8w10RxAPLMqAegOXGpR7E7RMQMQlFOAMWvv+uVsfOdZbfFcTgd/uGYij946jbTkSJ2e7by0ZDeP/e907vnxeK1LAhvffkZ6BiS4KM8AQLiDrNpxGtEqqxKAa4E0i2J3io5ywIYhLYFjUSgY4KMHb9I29Z/sdfHkb2dy9TlR2QndJT85bxj/um0GXo+eX23DCLHsgZswQvo3G4rYEIUaAEfKAK6K9iDikRUJgC1+WP46XdUAZRkg1mx8+xkqStdriZXkcfHcXbM5fcYALfEi4axZBTx/1xxtSUDFlrVsfOc5LbFE7PFp+i5VdA0gZ7I1syIB+AHQTTVIcckwpeu1NQSSKYCYEgoGWPPCX7XEcjkdPP6bGcyd2FdLvEg6flJfHv3f6dqWA9Y8/xeZBUhQTdVqjYCKS4brGEZPorysHI90JwBJwE9Vg/TtN4DBQ9QSAF0zANISOLaULn6Fmt1lWmLddfU4Tp3WX0usaDhrVgF3XjVOS6zqXVsoXbJASywRW1Q3ARYWFVNQWKRjKDcSxY3l8Uh3AnAxGo5sHDNjDsmKJXilJXDiMYwQa57/s5ZYF50wiJ+cp5aE2sE15w/j/OP0nA5Y/ez9MiWWgFQ3ASanpDB52iwdQ+kHnKcjkAjTmQC4gJ+rBsnt0ZNBxUNISVVb7pGWwIlnx4p3qdz6tXKcQfmZ3H/dJA0jsoe/3jCZwr4ZynEqt37FjpXSMTDRqG4CTElJZWBRMb3z8nUM5xaiVFwuHun8IM8GBqsGmTJjDg6HQ3kGwK/p6Ip0BIwdmzQc+3M6Hfzjl9O+6dQXD9JTPDx8y1ScGvYDbFyk72iliA2qrYCTU8Lf5ZOnzdQwGkqAk3UEEnoTgBtUA2R3y2HoiNHAt39pzNK1BCAJQGzw1VWzbfnbynEuP7WYicN7aBiRvRwzqheXnKKcn7Pt4zfssitcRIjqDEDzd/mQoSPI6Z6rY0i/0BFE6EsATgSOVg0yceoMnM7wkFQTAH+tJACJpHTJKwR9jUoxstO93PY95b/GtvWb7x1NtmLPgqCvibIPX9M0ImF3RiiIv6FWKUZycng51+F0MnHqDB3DmghM1xEo0elKAG5SDZCWls6oMeO/+d9ebxJOl/lmhcGGWi3HliQBiA2b3n1BOcZPLxhOTqZaB0k7y81O5ifnq29s3KzhsxaxwVdXrbbx0+EgKfnbfhkjR48jPUNL3wrlZ47QkwBoycbGT56K23P4umtysvlGK4YRItBQpzosSQBigK+umvIv1crVZqd7Y6LSn6ofnlVCZpra/oa965fjr6/RNCJhZ6q9NJK8Sd/M6gK43G4mTJ6mOizQNOuc6HQkAMrrMUlJyRw9ccp//fPkFLWTAAENa5VSCdD+9qz9SHm25+JTBpORGj8b/9rSLcPLxSer7QUIBQPsWfeJphEJO1OtAdDaUu7REyYrb/I+5HodQRKZagKgZUdmW38hlE8CSEvghLB79YdK1zsc8P0zhmgajf1ddmqxcozdq5dqGImwOx01AI7kTUri6ImTleIecg4aTp4lMtUEQPlMpsvtZvzkqa3+O+WTANISOCHsXqP2MBpX0kPLOflYUVKQzfihaicddkkCkBCUZwDaeIkbP3nafy35muACrlMNkshUHt5aqjKNGjO+zU0hKYpLADrKAUtLYHvz1VVTUfalUoyzZxfoGUwMOW2GWonjytL1yrvDhf011aj1AWhrGffITd8KLkFD9dlEpZIAKNdldjidTDim7f2DdigHbMgmQFur2rlZuTzt3Emx1+xH1SnHqCUAhhGiasdmTaMRdqWrBkBrWh77VpBEuFOgMMHsp98TuEz15iXDRrZbGEK9FoCmlsAhSQLsqmrHJqXr83qkUlKQrWk0seOoAVn06Gb+lA2of/bC/qzYBNgsu1sOJcNHKcU/5Ido6ECbiMwmANcAyts4J02d2e6/V04AtPUDkATArqp3blG6foLiWniscjjgmJG9lGJUKX72wv5UNwGmdDCLO3narPBfRjUZwFWqQRKRmQRAy4c9aPAQeue1P/WqfgxQVzVA2QhoVwd3bFS6flRxjqaRxJ7hg9Remqp2ygxAvFOfAWj/O7xn7z4MGnyU0j0OuRZI0xEokZhJAH4IKM+ZTp7ecXtI9WOAmpYAZALAtur371G6fsiAxJv+b3bUgCyl6+v379Y0EmFXVhwDPJKmVsHdgUt1BEokXU0AtGy4yMvvT/+CjnuUq7YElhmA+Ke6E71fr8R9aSjoo3b00SfVAOOejlbAHelfUEh+/wKl+xxyA4ob0xNNVxOAS9Bw5OKYGXM69efsMgMgBwHsSzUB6NtDLcmMZT0VNwHKMcD4p6sVcEc0tQruB5yvI1Ci6EoCoKXoQm6PnhQd1bma63ZpCRyUGQDb8iv2e0hLSdwXhpwstcZH/npJAOKdlccAWxp81FB69OqtdK9DbkZvm/u41pUP6lw0lF2cMn02jk7u+rRLS2CpBWBfqm+hqcnmO07GOo9b7Xsy0KjebEvYl85WwB1yODo8FdZJJcApOgIlgq58A/xc9WaZWdkMHTG6039etSVwoKFGS0vgoCQAcSuUwJM7Lqfy8SsRx3S3Au7IsBGjycrWcpz/Fh1BEkFnE4CT0NB6cdK0mV1+oKu0BMYwCGiYpjSkDoBteVLUNvHVNvg1jST21DcGlK73pKRrGomwI92tgDvidLmYMEW5szyEW9TP0BEo3nX2p3OT6o1SUlNN1X62Q0tgmQGwL9WHUG194iYANYr/7ZIAxDcrqwC2ZfS4iaSmaTmZo/zMSgSdSQAmAtNUbzRhynQ8Xm+Xr7NDS2DZA2Bfqg+h/VVNmkYSe/YcaFC63q04+yLsralWtRFQ17+7PR4P4yYeo3TfQ05Aw6x1vOtMAvBL1Zt4k5IYO2GKqWvtcBJATgHYl2oCsHG7nqOisah0l9o5fm9q4rRQTkTKJwBMvryNnXQM3iS1EyqH3KAjSDzrKAEoIbz+r+To8ZNNP8jt0BJYJgDsKy23j9L1G7fpOSkSizZuV/tvT1X87IW9+RT3AJhdvk1JSWXMuIlK9z7kbDScXItnHSUAv+jEn2mXy+1mwhTzKwh2aAkckgzAtrLyi5SuX7dFbZozln321X6l67P6qn32wt4iVQOgNROmTMelcALsEBcaTq/Fs/Ye7gOB81RvMHL0ONIzMk1fLy2BRXuy8gcpXb909d6EneH5dL1iAqD42Qt78ynOnqq8vGVkZjF8lJYl/IvRUL02XrWXAFwDuFWCO5xOJk5VO40hLYFFezL7qj2E9lU2sr408WYB1m6uZG+F2iZA1dkXYW+qxwBTFL+7J02b1emice1IAq5WDRKv2koAMgjX/VdSMmwEOd1zlWIoHwPUNQMgGwFtKTu/SLmf+KJPd2kaTex48+OdStc7HE6y+nbc0EvELqtbAXeke24PikuGK8U45AdA4jb9aEdbCcDlgFqvUNBS2tEuDYFkBcCePKkZ5BR0rrdEW559u1TTaGLHi++VKV2fUzhM6gDEuUi0Au7IlE60je+EHOAiHYHiTWsJgAMNUyaFRUfROy9fNYwtjgGCzADYWZ+RU5WuX/nV/oTaDPhVWRUrFTcA5o1SLg0ibM6n+N2p+vIG0KdvPwoKtSw1/VhHkHjTWgIwFVD+xKfMmK0aAtBxDFBXQyAtYYQF+oxSSwAAnnh9s4aRxIZ/vLpBOUbvkebqeojY0VSjlhSnpOqZdZ88TcsswAhgrI5A8aS1BOBi1aB5+f3oX6BnfVB9BkDPEoAUA7Kv3sMn4XCqHRl65JWvqazxaRqRfVXW+HhUMQFwutz0HqblnLawsWgeA2xpYFGxltlkNDzb4s2RCUAKcI5q0CnT56iG+IYdSgGDlAO2M29aJr2Gdr3PREs19X4eeH69phHZ14MvfKncA6DXsIl4pApgXNPRCjgpSU8CADB52kwdYS4Eul6PPo4dmQCcDJg/tA/kdM9l8JChKiEO4/V6FVsC10pL4AQwaNbZyjEeeH49+w82ahiNPZVXNHDf02uV4+j4rIW96WgFrGsGAOCooSN0tAruDszVMJy4cWQCcLpqwHGTp+o4u/kth0NaAosODZw2D5dXrX54ZY2PW/5vpaYR2c+vH1ml/Pbv8iYzcOopmkYk7Ep1/b+rrYA74nQ6GTtRy76T03QEiRctf0IeFOv+JyUlM3LMOLURtUL1PKmOaoAyA2Bv3rQs+k88XjnO4//ZyEdflGsYkb0sXrVHee0fYMCkE2T6PwH4atWWTpNUXtraMHrsRNwej2qYeSiWt48nLT+IaYDSHMuQYSPwKr6FtUa9H4COhkCSANjd4DnKlasxDLj89iVU1cbPhsCaej8/uPtDLSdZiuacqx5E2J56DQD9dXeSU1I4Sr0wUC9gkobhxIWWCcBxqsFGWPD2D/YoByynAOwvf9xsug0Yohxny84afvi7ZRpGZA8//v1HbNmp1voXILt/MX3HzlQfkLA91QRAtQxwW0aM0XKST/YBHNIyAZipEigzK5v+AwaqjaYNqrUA9MwAKIcQVnM4GHnuT7SEevG9Mu5/Zp2WWNF03zPreOatLVpijb7gZzgcMnuaCNTLAFuTAAwsHExauvISlJbCAvGg+bc5HcUiCUcNHa5ck70tdjgKGDIMWQaIAYXTTyMzT08Nipse+JTH/7NJS6xoeH5RKbc8uEJLrMy8gQycOk9LLGF/qo2ArFgCgHCDueIhw1TDTEJ6AwDfJgDHEN4EaNpg9R9Km+xSDlge//bncLoYec6PtMQyDLjqnmW88dEOLfEiaeHS7Vx++xJtbaxHnfdT5WJLInZEsxVwR4pLlJ81XmQfAPBtAqC0eO9NSrJs+h907AGQaoCJpGjOueQM1JOQ+gMhzrn5XZ7WNI0eCS+8W8YFv3wPn1/P39fug0ZQNFvO/icSu1QBbM2AwiLcbqVO9aD4zIsXzQnA0SpB+vUfqFSspyPqLYGlH0AicbrcTLn6bm1LUv5AiMt+u5g/aSiiY7V7n/iC7/76A/wBPQ9/h8PJ5Kvulrf/BONTXAJQ3bfVHrfbTd9+A1TDjNExllinJQHoP9DavuB2aQksMwCxo2fJeIqPO19bPMOAmx9YwQW/fM+WRwSr6/x899cfcOvfVmqb9gcoPv5Ceg6RHiqJxg6tgNszYOAg1RBKz7x44QSyAKV0Kr9/gZbBtMU2ewBkCiCmjLv0VpIylMuHHual97cy6bJX+XD1Xq1xVSxbs5eJly7guXdKtcZNzsxh3CW/0BpTxAY7tAJuT/6AAtUQRchGQJyEPwjTc6UOh4NevfP0jagVyi2BNVQCBAjK8z+mJGfmMO3a+7SfTindVcOxP3qdK+5Yyr7K6PUO2H+wkR/c/SFzrn6d0l3q5/wP43Aw9af3aU+gRGywSyvgtvTuk6/6e+0ElKcRYp3yh9A9twfeJP3V/1qyyyZAA1kCiDX9Jx7PsNO+pz2uYcATr29ixAUv8tv5q6iobtJ+j7ZU1fr47fxVlJz7bx5buNGSvSnDz/gB/SdKvZREZedNgM3xs9WbA0kCgOKHkNuzl6ahtM0uSwAyAxCbxl/6S3oUW7Pn52CtjzseXU3xWS9w418/ZX2p2tppe77eWsW1f/qEojOf545HVys39mlLzyFjGXfxLZbEFvYXCgaUWwEnJ1s/u67h2VOkYxyxzA30VwmQndNd01Da5vWEWwKHguba+gYa6zBCQeWdzIZsAoxJTreHWTf9nQXXnkBj1QFL7lHb4Of+Z9Zx/zPrGF2cw3nHFTJnfB7DC7vhdJqbqjQMWLelkreX7+T5d0r57Gtrxt5ScnYuM2/6O063ctMVEaP89TXKrYCtaAZ0pJzuuaohCjQMI6a5CTdHMK1bBBKA5pbA9XV15q43DAL1NXjSs5WGEdS4u1pEVnqvfsy97Slev/ks5bebjny+oYLPN1QA0D0rmWmje1FSkM1RBVkM7pdJTmYSWele0lM8uF0Oqur8NDYF2L63ju3ldXxZepDVGyv4ZN0+yisaLB1rS56UdObe9hTpPfpG7J7CfuzWCrgtGl4+e+gYRyxzo/ghZGaqPVQ7Kzkl1XwCAPhrq5UTADkFENtyB4/i2Fsf461fXUjQH5mjfAeqGnn5g628/MHWiNzPLKfbw+xbHiG3aGS0hyKizO7r/800PHt66hhHLHOimACkpqVrGkr77NASOCTFgGNen1FTmfazP0tTmxYcDiczrvsrfY+eGe2hCBvw2bwGQLO0dOVnT8LPADTXATAtNS1N01Dap3wSQMNRQCkEFB8Kp5/OrFsexuW19vRKLHC6Pcy44UEGTj8t2kMRNuFTrJxqdQ2AZhpePiMzfW1jTkBpt0ZSkvWbPUBaAgu9CqaczNxfP4knVbm1aMzypKRx3K/+ReH006M9FGEjqnsArOoEeCQNGw0T/g3ASbgzkmku9aYMnWKXlsAifvQZNZUT7/o3ydnKu4ljTkp2D068+yX6Hi2t0cXhYmUPgNul/OyJzNurjTlRzILcFjYBakm9GJCeWgABOQkQV3KLRnLafW/Rs2R8tIcSMbnFoznlj6/Jhj/RKl+sJADqL5+SAKBQBhgitzNevRiQnmqAIdkHEHfSeuRx0u9eYsyFP4/vzYEOB0NPvYJT7n2VjF5K5T9EHFNtBJQSoT0AGp48emuExyA34EdhFsDn80Uk41NdV9I1AxDeCCitUeON0+VmzEU/p3vRCJb86afK66B2k5yZw9Sf3iflfUWH1GcAIrMHwOdTLr8dufrdNuUElA5E+yN0ntoOxwABAiGZAYhn/Scez9mPfMzQU6+Ij9kAh4Oi2edw5t+WyMNfdIrdWwE38/uUnz326+sdYU4UsyBfU2SSKPvsAZAEIN4lpWcx6fu3M+++N8gtHh3t4ZiWUzicU+5dwPTr/kJyVgQqdoq4YPdWwM00PHsSfgbADVQCprdB+9SzsE5RPgaoeLa1mV8SgISRWzSSeX94jY3vPMea5/9C9a4t0R5Sp2T1HcTIc39C0eyzlftfiMTTVF2hdL3VrYCbaXj2qP2HxgE3ih9CY2NkapXbpSWwLxjQEkfEBofTRfHcCxh83HlsX/4Oq568lwObv4j2sFrVbcAQRpx1FYUzz8SpqElVXgAADvNJREFUfkRKJChffY3S9ZGqDdOk/uyRBABQajF2sOIADBqsaThts0tL4JBhEAgFccubVUJxOJz0nziX/hOOY8fK99i46Fm2ffwmQV9jVMfl8iYzYNIJFM05l/yxs8CR8BubhYJQMKCcAKSkRqY6bEXFftUQ1rfXtDk3sEclQMUB5R9Cp3i9SeotgYNBHBrqFviCkgAkLIeD/HGzyR83G19dNWUfLmTzuy+wd/1yQhGaHXK63PQaOoFBs8+h4JiT8aZlRuS+Iv756qpjohUwQKX6s2e3jnHEMjeg1KYsUgkAoKElcDWejG7K42gKBkmVdukJz5uWSfHcCymeeyGBxnrKv1rBrlWL2fX5Yg5sXouhsWZERu8B5I2eTt6Y6fQdMx1vmlILDyFapdoIKFKtgEHLs8feLTojQEMCsE/TUDqm3BK4TlcCIPsAxOHcyanhB/To6QD4G2qp2rGZqp2bqdqxiaodm6jbv5tAYx3+hjp8dVX4G8J/lz0paXjTsvCkpOFOTiOtRx5ZfQeRlV8U/r++hXhSItN1UyS2WCkDDFCxX/nZU6ZhGDHNDZSqBDhYcYBQMIgzAiWB7VILwBcMYhgGDllvFW3wpKSTO3gUuYNHRXsoQnSaahGgpAgdAQwFgxw8qFysS+nZFw+cwHqVAMFgkD27d2oaTvvUWwLr2QgI0BDwa4slhBB2oFwGOEIzALt2bje9H+wQA/hS03BilhPYj+JGwK2lm/WMpgN2aAncrCEgywBCiPjiq1GtAhiZGgDb1J852wB9D4QY1bxbQ+lgc6QSADu0BG4mMwBCiHjTpFwFMDInALaWKRflWqdjHLGuOQFYoRJkx9Yy1emYTrFLOWAI1wNolCRACBFHlGcAIlAFMBQKsXO78gb+T3WMJdY1JwAfqQTx+Zoisg/ALi2Bm8kygBAinjQpfkdGog/A7p3bdfQBUHrmxYuWCYBSe+UNX1o/o6LcElhxh+uR6vw+HT2phRDCFlRnAFT3aXXG11+uVQ0RAj7WMJSY15wA7Ae+Vgm0bs0qtQpSnaB+DFDfEgCElwHqI9QOWQghrKY6A2B1FUDDMFi/5nPVMGuQDYDAtwkAwFsqgaoOVrJ9W5naaDpgl4ZALdVEqB2yEEJYrala7Wy91Z0At28tpbpKbZYCeFPHWOJBywRA+UNZu/oz1RDtUj8GqHcGAMAXCuKLwAZIIYSwmmopYKuXADQ9YyQBOKRlAvA+oNRf8au1awha+DC04wwAQI1PZgGEELHPzq2Ag4EAX61boxqmBlimYThxoWUCUA+8oRKsoaGe9WtWqY2oHXY6BthSnd9HUGPjFyGEiDS7twJet2YVjQ1K76gACwF5YzvkyLZN/1YNuGzJexgWbQZsbglsVrChDsOiRj7VshdACBHD7NwK2DAMPv7wAx2hntcRJF4cmQC8CjSqBDywr9zSI4GqlaasmgWo9fsIhGQvgBAiNqk2AvJ6vZa1Av56/Vr2l+9VDVOL4ix3vDnyp1UNLFANumzxu6oh2qRaC8CKjYAQzlCrGpVyJyGEiBr1RkDWbQD8aImWZ8oLKO5zizetpWvzVYPu3rmd0s0bVcO0Sr0fgHXHP+sCfposWmIQQggr2bUVcOmmDezeuUNHqH/oCBJPWksA3gGUCy0vev1VQiH9G+PUywFbMwPQ7GCTzAIIIWKPHVsBG6EQi958TUeojcBSHYHiSWsJQAh4SDVw+d7dfPap/nLLqtNMVu0BaNYUCFDvlyZBQojYojoDoPpy1poVnyyjfM8uHaH+hmK5+3jU1o6NvwF1qsE/ePsNamv0PnDVywFbXwGyorFejgUKIWJKk2onQM17AOpqa1jyrlKB2mY1aFjajkdtJQCVwOOqwZuaGnn/Hb2bLpVrAdRaOwMA4R4BFernVYUQImLsNgPw7puv0dio5Xv070jt/1a1d2bjj4DyubY1q1awtXSzaphv2K0lcFsaAn5ZChBCxAzVPQA6WwGXbdnEF3rK/vqAP+sIFI/aSwA2Ak8q38EwePm5J6mrVasw1Uy5JbDFewBaqpSlACFEjFBdAtB1DLC+ro4FLzytq7vsfGCbjkDxqKOqDb8FlM+11dXW8OqLz2qpEGi3lsDtCRoG+xvqI3Y/IYQwS7URkJYlAMNg4UvP6to75gN+pyNQvOooAdgEPKbjRls2fs0nS9VLOdq1IVBbmgIBKvWsYwkhhGWaFF+OdCwBfLTkfTZ9/aVynEP+Dw1H2uNZZ+o23kp4F6Wy9xe9wY5tZUoxVM+aRnIGoFmNr4k6ny/i9xVCiM6K9gzA9q2lfLBI26bxCuA3uoLFq84kAHuAu3XcLBQM8vyTj7J/X7npGMp7ABR3uppV0dQgVQKFELalvAcg1fx3c8WB/bz49L90Fo+7jXASINrR2c4NfwK0bOVvqK/nmX8+TE21uQexcing+sjPAEC4V8D+hnoCFlRHFEIIFaFgAH+jWumXpCRz38011VU89ehD1NXVKt2/hXWEp/9FBzqbADQAV6CpklJ11UGe/ufDNJjYIOdNsm9L4A7vHQpRXlcrSYAQwlZ0tAI2swTQ1NjIs4/Pp7pKbfahhRDwfUDOYHdCV3o3vo+G4kDN9pfv5fknHsVvYm1cvSVw9GpCBIwQ5fV1cjxQCGEbquv/ZloB+/1+nn18PuV7divd+wgPAR/qDBjPutq8+WeAtp/Wjm1lPPfEP7qcBCi3BI5ANcB27x8KUl5XR1BmAoQQNtCkWgWwi0uzfr+f5x6fr7wp/AhbgZt1Box3XU0ADgAXo7GpwtbSzTzzr0fw+Zo6fU2s7gM4bAyhIOUNdYRC0p9CCBFdqjMAXdkA6Pf7ef6Jf2itEEt46v8SpORvl3Q1AQB4G/irzkFs31rKs/+a3+kkwO4tgTvLHwyyp64Gv8wECCGiKFIzAM0P/7Itm5Tu14q7CC9Tiy4wkwAA3ABoKdTcbPvWUp57vHPLAcotgaN0FLA1ASPE3toaGv1yRFAIER0+5U6AHScAzdP+Fjz8lxA+9ie6yGwC0AicAezXOBa2lW0JLwc0tT8ToLwEEMVNgK0JYbCvoY4aKRYkhIgC5UZAHbyUWTTtD+E6Necju/5NMZsAQLjBwv+goWNgS9u3lna4MTBelgBaMjCobKznYGODlp4JQgjRWT7FjdHtvZRZ+ObvB84BdukOnChUEgCAN4GrdQykpW1lW3j6nw+3OROg3g/AfglAs2pfE3vra2VfgBAiYppqK5Wub6tEu4Vv/gA/BpZaEThRqCYAED53qb3f8o5tZW0uBygfA7TZEsCRfMEge2qrqenCyQghhDCrqUZxE2Ar38kWbviDcKfah6wInEh0JAAQrg/woqZY32iuE3Dk6QDlPQBRrgPQGQZQ2djAPjkqKISwmE/xpSjpiOJsFk77A/wL+JUVgRONrgQgCFwAvKYp3je2lW3hmX8ePhOgvgfA3jMALTX4/eyqq6ZaZgOEEBbR2QjI4mn/l4HL0ViLJpHpSgAAfIQ3ZLyvMSbw38sByscAbbwHoDUhw+BgYwO7a2toCMhxQSGEXsqFgA59J1s87f824R3/8iWoic4EAMJNg07B4iQgHk8BdIY/FGRffS376utkk6AQQhvlQkApKYce/o9a9fB/CzgNkKlQjXQnAAB1WJwEdLXpxJHsVgegqxoCfnbXVrOvvo6mKHU2FELEBx2tgF0u96GH/0ZNozrM28DphF8whUZWJAAQTgJOxYIjGju2lfHSs0/gcDhMxwg21hMKxH7diIaAn711teytq6XBH/v/PUKIyFNuBQy88vxTVj78T0Me/pawKgEAqAFOwIKZgO1bS5WL5QRs0BBIl6ZggH0Ndeyuq6HG1ySthoUQnaa6/g/h72QLyMPfYlYmAGDhcoCqaLcEtoI/GKSysYGdNdXsras9lAzIZlkhRNtUTwBYRB7+EWB1AgA2TQJi7SRAVzUFA1Q2NrCrpop99XXU+JrwBbVWbRZCxAHVPgAWkId/hLgjdJ/mJGAhMDNC92xXLNUCUGEQ3ivQcGjPg9PhIMnlJtntxuty43E5cWJ+P4UQIrb5bNQdFVhMuNGcPPwjIFIJANgsCYj3GYC2hAzjsIQAwOVw4nY68DhduF0u3A4HLqcTBw5cDgcOhwOHAxySKAgRd1SPAGq0GDiJ8LNCREAkEwCwURIQ60cBdQoaIYJBaAoGpammEAmmfP+eaA8B5OEfFZHYA3AkW+wJiNViQEIIoZMNlkPl4R8l0UgAwAZJQKIuAQghREtR/i6Uh38URSsBgG+TgA+icfOA/Xa+CiFExEVxNnQxcDLy8I+aaCYAEP7Bn0wUkgCZARBCiKjth1pC+Lu/Nho3F2HRTgAgSkmA7AEQQoiofBcuITztLw//KLNDAgBRSAL89jn6IoQQURPhGQB5+NuIXRIAiHASIEsAQggR0e9CefjbjJ0SAIhgEmCDoy9CCBFVRjBIsLE+EreSh78N2S0BgAglAcGmBkJ+n5W3EEIIW/PXVSm3Au4EefjblB0TAIhQEhBoqLEyvBBC2FoENgDKw9/G7JoAQASSANkIKIRIZBZvAFyKPPxtzc4JAHybBCy2IrgcBRRCJDILvwOXAiciD39bs3sCAOEk4CQsSAKkIZAQIpFZdAJAHv4xIhYSALAoCQjUygyAECJxWXAaSh7+MSRWEgCwIAmQWgBCiETm1/sSJA//GOOI9gBMSAP+A0yP9kCEEEIA3274k6NVMSQWEwCQJEAIIeziQ8Jv/vLwjzGxmgAAZAJvApOiPRAhhEhQcs4/hsXSHoAjVQP3RXsQQgiRwP6CPPxjViwnAACV0R6AEEIkMPkOjmGSAAghhDCrItoDEOZJAiCEEMIs+Q6OYZIACCGEMEu+g2NYLJ8CAHADjYAr2gMRQogE4weSgVC0ByLMifUZgACwJdqDEEKIBLQRefjHtFhPAADei/YAhBAiAcl3b4yLhwTgYcCI9iCEECKBhAh/94oYFg8JwApgfrQHIYQQCeQhYHW0ByHUxPomwGYphMsCT4v2QIQQIs69D5wANEV5HEJRPMwAADQAcwlnpbIpRQgh9AsBDyIP/7gRLzMALY0ArgRmAwWEOwcKIYToujqgDFhEeM1/bVRHI7T6f7Qzl7lvtnqNAAAAAElFTkSuQmCC;" parent="1" vertex="1">
          <mxGeometry x="10" y="30" width="112" height="112" as="geometry" />
        </mxCell>
        <mxCell id="RZCP1eC1JpLQxB95aDeo-9" value="" style="shape=image;verticalLabelPosition=bottom;labelBackgroundColor=default;verticalAlign=top;aspect=fixed;imageAspect=0;image=data:image/png,iVBORw0KGgoAAAANSUhEUgAAAOEAAADhCAMAAAAJbSJIAAAAflBMVEX///8AAAA3Nzc+Pj4wMDD7+/uMjIzn5+c6Ojr4+PhERETq6uru7u65ubnS0tKEhIRnZ2dKSkqpqanW1taenp5aWlopKSng4OCurq6/v79PT08cHByVlZXHx8dZWVliYmIVFRV+fn5wcHCioqIODg53d3e1tbUjIyOZmZkrKytEbu85AAAWDElEQVR4nN1d54KqOhC2oaIoiK4o9rLF93/BKzCTRiYkYLtn/pyzqCRfMj2TpNV6NvnBdBIvwigdLjfXa7vdvl43t2EahX/xZBr43tM78EQaz+Mw6rXN1DuE8Xz87q66kzeNo24FNpG6UTz9H83m9G/kAI7TbDF9d9ctKIijWuiQolXwbggmShZpI3gFpZfk3UD0FFwqeXN0zP85Vn5xFvvvhlOi9d7U4+tsu84mZpj/Nbz/L1lvZ1fTTw67d0MSadzfGPra7TM12ckfdOAvb9o36dvl36eI5PRsmr3+XPiqjDCjuXFwvudqY2+gnUmoOhPZyJUR3mlicgrSdxuQtbF3JVHSIrxzgUkFd98pkDtFjNKTAHik6RmBUOaEW6iwRXmkXkTTmdyRMEmG/K+V7ickwlZrxX86TJJv+dX7d8jj4Evqw/DnPhH8z0hvzwwIW77gDO1a3krm//Or9arfl9vPxjhmf27WxM9MCO9CzdVqfP9zepDa+HupZ77+ldkze7blPEWOtxlhK+B8sc3+Tk5iM73XiWMgDW6/wBPywaZ/WYGw1frjw5b/PQ7Fps4v8uVWYqMhNMpH2zTSlQgFWS4gtgJJ6UweBcJAY1HDnDE4Z0P9OzD9uBpha8AEIMQnos8UPV3j/AitpUyHM4AjMx9ZIGwFzBr28dFUMJBXSos9iESW4U1d8NG+Qt/ZIGx5LEy5sGcTod1TEwAVlAgqNOSP2bxGVS+wQthqMcv4wx75wth2jJLQhES3Q3AydtYAbRFyiILamnZ4809SOILi7guPx/jwq/oVtghbzB4JeUaP6MCjyOde6FL0Ej3k3NTiJdYIWxhtLEXJnnKnZ/9w05jwl39LHyBD9WycKnuEHrqlEut73HCYzZI7CU71j/TBAp4ereyUPcJWcIQ3L6THXBdcHxobc2WtDN0cn9uFNw4IqVcLzPRAy8jsnaouPUyXWSo3F4RsWK8K/3OvOLZ7UTXxqEF1qlEIbVWbE8IWRmiqFaL7U5N4KKiyBY7yyPZVbghbqL5VDuFC8xCrcWKvU5PtAfKotTfsiDBAPlUbYDIqulZ1iQHslBb5UCDsI1NHhEyFH9QPBr2HQWQsOiyZ2LV7G64ImR9VUps+S3o1ZFQu1MfSTMEHvw6vc0bYQo9Jfb47sp41UjfcTLRL+UFkX5dEnztClDiFUaQ8w0X/UxsSo7I2ZIfUpp2YxB0h41NJzW3ljtU2/bu2QmfhQwhTl04ecA2E/rJoaC88Ky0F1czCJfh7vqowYmob1Yzb8NVAyFpiKHiag/eslhvuowM4ao2X7J3o7sKTkho3Ux2EaJSW8OeU9WUzbiHY3zrBFDoUvUAatsLVx/y249jVQjiAtgovdMF6kjFUgIG/TXSqEAuoc0Pv80XsQzZc8H9XW1QLIdrka9YP7nYXMTDLMDibRaaOUYed2KvvnIoD6cob9RD6jH04h7KMG3PgHHM3TMtwTSKYoPBX5BsHqocQZeJXSNRw44ya6Oo23OhKiP7ClLsRBVklLiSqidBTV5qPYnyPax1OVTiYnJQjs0BZEtUughqpJkLZhWm3Z3KsAbLpUv6HKd6l+oHkSwydO1obYWsoNrxVP71lT10MF9NP5XnfCbUhqbuZrYtwIJQybMoOTHC4Xr9dxBBXl340n/mix9R/kS4VF5z16+eB05IUMv23/mNx9clVm9ZCKAU4ulF3JUwdlIQQaC422L46qZsaCFeyBn9EUcah4l2qY39b2RsNV4RqRYYc3tQkNKCUFxS0S7Rc2MqjG0J/sSw3ZhK4YBtVs5QPtr5LfQEcti+5nCa006suCAdSkQJrcEH/InfEZlXvRbVF8nsPP1/fpB7s1xYTaY3QV+pVb2uUf8OPC5NSkbbBSIVcSZ7ydrxYLpz8DSvVgCXCeSjV67Q3cSbqMLb0gowFH3M1QyoP8OcKK+FJijzr+9bsHNogTP46ylsXRW/A/yaMWIs500ZlhNEJnZtQR+CiFsAe+3Nat1Yh9OZ91b3fsEwaBlHkrzFxZmIlcK3pgHlSGiZvNVT61L6eV4kepQmhl6zOpcrvoWiKwE7RgSBkIvbkF5iloAcBFJrsGu6+1I7dUUTxtKx6KIT+NNZtH/pS2oGnZO+QBenUW7c0QwqBT15KISqaHakXxTvJjGgQDnZacG2NBcLEIq1KYLWP5EGcQjrQAp9Ut1JBb0fY7MNtvJ6Og8AHhH4QjKfreBvuyTL2vU4VwDjSbIqmgJrEHt1/IFC1eoU9iI17LhwovegdCOBCQyQIqp5Y0MQUN225wWO7kV8YPwDkPqZ5aGnZQ2IOQBMZ0nLAxsblNG99Mu2gMNPmtDa68cCmhkQ7fEOrTlERGVyCb9MACZRMvl02HxbUPf9U5pKgj7TRZ/kJ3atAD5kmCH5d1Y+cBtPtuWr/KFLv3N/Zue7VPTgV39C4nSbwQOD72odonj9f/Rlxds5/q7nDXmAw+gavBTO9ZVaEoMJUXwiBU43CwPF8N/m5bEPYnRduLz+TXZ3dv+BTGUIo1Pflr4B6MMkYqKIGNXN8d15NAt/UVN4CstpTn4OpMDUOb6+xysOodr6UUVo9ykv9XIEdMyUBYBCa1D40RwjCZFr0jbXyhpbSJPP9aj6uouYIp9XD7LV18wyhrLFIvGAQuzJLgpojhDoso6iA2ZZTq6NKLYwFn4bgq5oaaxqrcZ5qFEZSraLQGgrLIl5GwXiQzKe73Xrys4rjy2WxWPxt++Hp+3w+HPb7dHan7p06vV4P0xP5/7OH2Yfpfn84nM/fp7C//bv/+nKJ49XPZL3bTefJYOznrfBGt9Vz4UE7ohOxKPW+TPCd6N756JCOOks13/BMOi47o/QQ3YcBXC9jlRBoDFFtgg42+oWm/cyvJ6NjBewmJANAkxo1wLx+xPAM2hgzl+AocmEFC2LwhbzT27BQ9G2wbMCm3L8E3qaHZVDKp30ADelwpBRlwU9ogDWVynWzud1unZy6o4xmaZrO8v91i8f3zzcb4/ERhtfTEBVEgJg096Xlpmuu2r6i77C/uKv2TLeDcg/8pntZfD8A85PZn8wA/fXv2vvrrr1/j+pQkI2B0UfVCeUaZG6Al2BE6+Tdh474yZpv+iYXmiDKwiXqiqiI7c39/pTjnMZsqx610ARsBw6YZx4PVpnxij24tsRqeynvrSsKIoghlaA5wbvefQSHTJj6pJQH5NwK8xAbxRBjEfcCqOcS1n8SVhESn0V8AYJLqN6fCpl+G42MsgP5/cK5K1iWWriPPpFHMwLhIlJnfo9PDGgSajGgcEepRP46+tKzr78497nqTU4zRumhvyrxS3zWL5EH/fRExQNFHcGG+LRIueVx5Nyod8dGgf6jPvPydBD2jVWrMkpl5sq7o8m9BDfxNQqBCiRMGNi47LcgskRuB3hB75QH/C0KLSQOkg8pAYzCPK75eMtUhLtEWmFhlB9QtpmqCclu8sYJ/HRaCBIyoOj0fjtX3hAKlAWlsOxHIwbCBiS8b5HpLdi4Hj+wcCn5iq/HEJSITBinYhFPSaSNCKERKjFR+LCZMu0RvSwoohgoJ/BYS0oChABTDVTshQzGqitVmTIihNQYtQ5R4OqyTDalSov8BpWigkLNkjs0k2e+QHhd/mYk5AqwUJwhVK2uESFYRCqxCMLvo7YgVCmkragUIlHikij9HcqDODghoq2CUO2GGWGRpx8SXs0fIgRtQVSmAieQeR8YKEURwctZeW2BUEgMzbGqy1cQKgJfILwSjRe5MUqCwBmbo5dOGAtwfsgkOvxaWZQFuRvLf4t1MGghJypCWR5ORoTwM8LdZKo21o2d2hPS7QY23UixJQwLT92VEWKzZxWhPJhmhCubrsdoN4nwd2qc4RbLokpfUJlUhxAyKdcSQkkxA0JC0mCWCJMPQdEFXkJloSbGl/BWJEGFwlOu+guEsro6C+1KCMXTTMwIYfipyBx5IjIivJTHVSbYpShuOlI1qR7hlkIo+rkw/ASDzXGWTAgjMHhUYT70w5Du/y4N5F+pYR3CsIRwg5sc1+qXCIQVTk3BSim0TkWHMLqGtawdDhUj6Kig4nQIeyWEV1w44AxhRjhGPtTTCJAtNa1zMjeRU1v5Coys6GpoEM7Fb+E4Yukg8w1C4wCDIqcSTEVNaA8iXMqkn4pBNQDEXjCXocykOoQw0QsR4YCtb+HLzAjh7BgqGVW8bAMu+GbU1dGowH80IYTZYIpF8Un1CBHKWEboHaXnVUJytOp724KMCFtyXSuYe0mwVYTsDL1IAjLgScK9A0IzXa0QUrkQqRtg4MGDkFR4gbATXzJanPjG8ERFyDZYx+IHVK7daknzAQhl+9fTdIqKDzE3IjqYWAU3UD94I0LUGvmElHxSA0Km3kQg6JPnBRvbVyE8mhGC9sxnRMekBEKuv6Wpwp2422qEdnJY6NJjT09HG4Qimw51fdIiFNJ3MjOimM4rXaqjRd+vze1hiy30JFpzr0d4EMdARogF9zdPTHrqyM4eNvZpWsw/3zImVdKrCsLbfiH3WVEouOhyqkBY4dMUSY5bY780I8j1bLTmniHcB4OcxqXxUlUmFvxPL0aEFX5pwVnDxrFFTqhNgcHU1JySiSqRihATXDdz8xWxRZELSpvGhwVBPmEL/KVGbK4I2e6dthGhZXwoxmllqozxCwI2Xe71PXJGqJSYEQNsFeOHTfM0QNLaSyl/7o7Ql4w5gdCcpwFWXzTMtSFJp4KV2MYdoXwKF4HQnGsDHo4b5kuRArGWp+SC1EDYOlUjtMqXThrmvBkJbFq2PHUQesJefAKhZc670boFJ0H7lV9VB6F4YhIhabBuQbwUvIWg2doTJ4/3p8w1tRAKh+EQCAuTXrn21Gj9UCCm3zV1KfUQMhecQGi1fthpNVoDFokpPw2/10Q4MCO0WgPO8DdYx5cIu6N5kSXCUrICDzTQc5DVOn7mljeoxZAIxEanlA7GwcZh1AhKoUsITW5Vi5FZ8ib1NCL5uVLSSmw+nqajDVNiMvIj9g7EwsyJmPmChH0ZjWqiJFodvv70MJJT2jcqq7/9mRC2CakCbGqiCvwYR+npf1rX5olxr1VtovWR3S8jq9rEAr9dfenDTnh/ENnVlxa9tqwR/qg7JW1rhAvh8sx8yPYi/K/qvEfSDP+DtfrgbaMH6bTf4t13g9rttwAxREelas+M31bo+Nvrzg5C4J9kW2byDZFNrxL3/WzLZrZpZl3s2Ywv2/7pfNjPhrdNKYtftWeG2Tj4PtnsQL8xCZ0ET1ch284vUd8sYd9Tse0pTdMRp25neLstN5vjtd7Gp6P1vqfae9eAr/vaD59OXRogeKLcG4CUjmn/4beujSJ9471n655p/yFoFi5HdfeQQnLH/aSW5mTeQwpbnQWtWG8fcFctgH0hGY6oYUwqBnI2e7khHM33cn+l3V4vZEP0/E3Qm5vLXm6InESpq7cfn9OA74fMNuQX+/Gjw+Hwtd/vYUd+h+/H74n78ffG/fhBjf34wnomJ/szFZocbfKiMxXUCp+c/qlzMU4FGDka+hfPNlGm4h86nwasu3q84j90xtCQGIR/7ZyocobquWd9TXeTlXTW12qymz7nrC8wmGWr9p7z2npPO69NM3zw44edubfbEueSanBG24eduRfS0/DQcxPP7vHGY85NNB5++aizL78bnH35/aCzL/XpjerzS0GTUeVF2fmlmiOFHSmNaYa1Pr+UsJfVZ9AaU/wvO4PWoO9hCimL+6RzhH+/yHOEv36pH9U7RxgNAsnGIIm0OcDaJ9uzoM9WZ0ET9qTGWdBgD2iHACeRVpYO53mvHM/zVs+ab1PnedNrydXnedc6kz0ude3JZ7LTmhS6bzrDw/pcfTY9iwefq79VJXPDPLTKc/WrWbD1IXcjqN4CXIFSdTcCxoXmi59s77fIqgrU+y2WD7vfIunXud/iBN+ucOgxM0i+B6SufEfJ7rF3lMgrBRZ3lKCEVUXo1vfMyObvA+6ZgQRb9W2WH3RXkHdxuCsImc/iYlTX+556T73vSTVFlDeCPGpzvxxOEnVXs3Jnl9M1YTXyND92d3aharLKdX7avWux2CAxoLg0Znki2WffnaebJZwU+oIWmT77/sPyFej8HCrr3BYyYkkUpXW0V95hKSmckppHIXTIAv6/7iHF2gzjmqJKaIjErOMH3SV7FV0urAenkys6Mt8HfIIB+Kj7gN1uyxVswqff6czmwvn+TvJe7ujl93JDV/J7uXk9lHIvtzHFqacPvVudh6T53eoooXVWxNj2sVFrzMM1FHEInVyuGW7VRAiOMioSzqmbMduSsam1IMY4nJvbEVPTmD62cOUFqoMQNQkz9AJDsZ65Ox85STvkMhIdexDMUmLRSDUQYsAqOmSl6pba1b0T+T1SMSfOsJOE10CIGk+yBVu5Yw1qe6VMk+LCYNMudxC7I8RYTRlIyckxVg9VER+sssMLH1BxpI7cEaKOU5/vuINlrOSqJuZrD0sChyrAgU+dESKjlBSaz8oFm9SG5HTCN3VKoQnmO+zl3BUh6rqSURqzYMNiv1IVMYgliWObf63LpBwRYkLlqjbAMykPACgGhSqvoK613lDjiBANn6or+ZbcGr6ajri6UYv/0Uu0lQU3hDi06oroH9mf2sSNhtKYh3xqaZGcECKHqMcmcue7kZnQN3a3DXIUxgTCziq6ICRenfAs8UM38QgOnByH4fTaFWU6IAzQ4MkTJeQyH7wRK+FJtrPENcgzVikNe4QscSHLBd8ysHEM6avJ52mopcg37OwDmwjNHiFGDVLyZc45NH3GbTBCKlHUnSzKtkjHWiNklQGimyF04EFWQiVBBobCNDIZrQ6HbRGyxUNB1qbCtg7nnIwtCXqsHXK5Y8hNpZs5WSI8lJGIl4YtHy6CAombg7iHw+zlvkLdWCH0WNaLq1HxWCWnxK87iStPKWNVJiEjs9GwQciTFEza58KyxfO3so7FBfYzKgKWe/w1ZkwsEA5Y1gu1yVhMWny9Yh+rFF+HoLV5OtpkiKsRctcCAPrScv6LbiwKpDoJOCyBd8TgDlci5E51ATCQVrsOr9uiu5bqXYq7bngEsic7UoEw4AVyeWoikebv1y1z2ZB8eUdelOkcvhq9ofpiRrjmnmGW355HUhvOC85NaSCX9HR+JPc80nfHhFBYkshk+Ueuwji8Y6f8NJX6cGfWRHA7tCtvBoSC/homiVKvOnvXwSO7kdKRUFjK7GpYlUQovukWKmvNo5cKoEJrTd0ro7RkOAiEKjdI1Hsnvox2M1PvJrIbp0U4MW08mX3CgSNT0zbga18MJssI533T7gzi4KHX09jYzWF/hzMpI/R2fdNG9832U04ayWln3GtxnW3XmVvAd+cl6+3MeFbE1yewp0xBbJLInEawO29U8b32KH73ESoEJYtH7JpJL8+McBtTsIqqMRgo+tTZk2i+qORXLc3+PkV1WpA3XZ1dDgTpRvG02dE9b6HxfBXqNvtI1InC1fyjzIIz+cF8Ei/CKB3eNvlhQtfr5jZMo3ART+bB80Oi/wCDaD/pshsCsgAAAABJRU5ErkJggg==;" parent="1" vertex="1">
          <mxGeometry x="40" y="540" width="90" height="90" as="geometry" />
        </mxCell>
        <mxCell id="RZCP1eC1JpLQxB95aDeo-125" style="edgeStyle=orthogonalEdgeStyle;rounded=0;orthogonalLoop=1;jettySize=auto;html=1;exitX=0.5;exitY=1;exitDx=0;exitDy=0;" parent="1" source="RZCP1eC1JpLQxB95aDeo-12" edge="1">
          <mxGeometry relative="1" as="geometry">
            <mxPoint x="355" y="630" as="targetPoint" />
          </mxGeometry>
        </mxCell>
        <mxCell id="RZCP1eC1JpLQxB95aDeo-12" value="" style="shape=image;verticalLabelPosition=bottom;labelBackgroundColor=default;verticalAlign=top;aspect=fixed;imageAspect=0;image=data:image/png,iVBORw0KGgoAAAANSUhEUgAAAOEAAADhCAMAAAAJbSJIAAABX1BMVEX///8AAADwUlL5kT1mmWZIx4f3VFT5VFQTExPb29vqVVXzUlJRLS3MWFj6V1cuERHfTU1qNzewSUmnTk4gJCRbICByOjo4ODiZPT3/lT4ACgoAFhaeRkaNOzvbUlKRRUUoOyjcWVmDRER9Ly+GOztJKir19fUAAAiCgoJycnKioqLq6uo+Pj5LS0vh4eHKyspaWlpomGhdjF1ReVEdHR2Ojo6dnZ27u7tcgFw7SjtWdVY7WTtHwII7om5Lz41ii2J3d3feh0IuLi7zkUJVVVWYYTZMZkwMAAwXIxczTTNGaUYfLh8cQCsPFg8mZ0ZDVkNsSS43KyKtbjyGWDW+dz8ADhfSgD9VOSMABhhHNSekYixmTDerckaOXDVoTTh1TS44JhZCNy4rGhpQICC8RETAczU6GBgqIhsAFx8zICAjFRVEMTEvOS+7WlpwQEAfUDYwe1Q4kWIvd1EZRjAiXkCO+dpUAAAO0UlEQVR4nO2diV/TyhbHTStpacEnWIFURFFpWYVCka0US2VREFQQRS/XDa/L4z0W+f8/L5kzk8yWNqWBTPr6+3zutTTTZL49M2fOmZk016411VRTTTXVVFNNNeVJI60jQVfh8tQ6PBTXTA0FXZHLUetgXiMaDroyl6CZUY1S4xlxOK8xmg66Qj5rfJnl0/KZoKvkqzKDGq/xoOvkq1qdBvr+Ffw7GHSdfNWwzff6jbEDbTToOvmqpzbfrmGUso3XRp9hvuxK2Yga0Egngq6UnyJj4H7JiEajJfjjcdC18k+Zbgy4Y/FFjU8N52bGcAvdRYDRMgpJtQYKuycA8O0eABpvGi1ew+P8zxIARqPv0N+tQdfLN+FxMG8DwlCxHHS9fFMrbqI2IG6kdto0PPZsONTRKQ7V9gggGQyJnwETD4aXcQgA39iAUeO99cYYKRDHA8l0SBnH6XEQd0N2MHTyqVCm+5kURDJlB9DYRW/NkCLTNqE2FsIgBwaKbIkyofGBjdjGNUqhM+NjoROahDtcQEMTahMh640Qre3TgFHjIxoNHZIJBnE5VC11HLfRqEjY7ZSCjvjXD8IYplgHUqYDozLhDCq1G90hiOHJi8GE+XKUJfyba6XQWT8Yxm46bIjQC1cMjpD3NCOYMGqUvoQLEQLSn1FOeLRwettInLRlo/wRI4YjdRwSRwpqxH9ilwNCJvvX4gHW27MyqKpvy7wNo2V0wI5LcSvFjZkghmGSCnKGHd6EJsQ+20xbST8E4YaqbnQzMzQNnahbMhYCIeSHo+QTT2C0IITl14Co6shvVTdujQQwBrwTTWgy3EHHcHaRQd0w67TmcpprxkppxPYiT+R+BhlxBaw0ZDXU1lH+q8CuyMk+lNKEbR00GKYljdSyElmiSXWn8KtdOvvA3iZoGJlwJjRIjLkvM6GJsKdxesd+AxCjqrh4itOEIcIqbaQW4pssA/ijzB6GdhpXL5PC02qWk4CEYc+F0GR4SwOW+Mhu3+7PasleQMPWzLoBmgylT6RwdqfsEvcoN6U6Yhslk8lX6IaYory783H/4853gc86+FpJd+os8s5AyManFTwGSHoIjKha7DZmE05XdjQehAcUtXxNxnEdeTDn3oUBo8aBgs0UZiNgChumect1EO6RcUchoXwwveJYUpI5eVf5M/q+goZihHrO57I9Z6al6iHE6zcqTbxBMvEK50aoqdZF+F25jkjcJx7K6iWM7qHATqXdDNh9GniJt27CqHIjIgrZrJzebqc/6yKEtjBa/cJXJsgrrDGeZLjv6yNEEzYq7c5E27p+wJwgJEd12pCfOQ5cKGb7gucE0QR9lbC0GuGHKyIUN71WEskmjPLB37t1ARJCz7qo152ufmpaH50dF/Kk4fIILzrpka9+ZloVM8JLJuyuTiNTvPqZaX1peMIfPhIeXCHh1y4P+oou4yMhGg/jHfYFBtAFOmTX/l0v4e1YTK+mWJdVUrZOcVFCFNP8ipBLx+4hwj5JVWIDdRPqkarSUQWydaT1PCG69LcYewGtPyle+2oIk4eoAnUOgpQggO+yLx08YT9aMvrkFyHODzvVIYwkUNHPPgGSsLTdBgqeMNZmFX3rm6tB8zRawj5/8IR6D6pBHXOkjKAbtsWc8wdOmOxHNZCu+tYunGP2OFcOnjASS/k5IsLqU5/DowCh3ouqcOCHEfGE8AB1YQUIk31ovHjvA2DUeMeNFUoQRpIdqA5/+WDEEjpTPkGdXQlCCGviZb9M+Ii+rgqEkciAPz0RxzPpPppGCUK9U/PHncK0eVeMOfmlElZPnug0pt4xEY+F6QR77svMnv7p8SqUJNY5j0h22wxw50ZRoXZPdtmv9RLWLtdtJlGyfO9+nFqfq0lXS/jDrSsaxt73lZ2D73uyHRigdxe75BUTap/LUr7yyg9YmcrGP/HbhHCRnSpnVoVQ25dVn93s9Ulix5pn2IIjlCCW+faXF7qrsSI916UT3k7cFNWHTntXcuA3RuRMVH4tVCrLIdJN9KHkmi5K+DAeiqNs8iaqR494SO/Dhuc25O3blU+n7Ve0R3JuRkCEkou66JJiGkwoOaS3Y4L31Myb3f7aOtv72w87cBFqY6lRYoaJh15DxQAIHUTKmZRgu2X88IaeNKX3Q/jjTD8ab8iGzN608oQRvf8Orm0eE2AfeaeflE/iMJ2sqZZsN9Sph4AwkkwMkArvl6wAxviJ/jjUqSKwcldCPdB2MfH2WCQMhGb9O0ids6/2DKOEXnYwCR/MenwwjPKBvWP4V59ZJBSEFoDtMbPvdt/gBkh/CX2oKb/a+2QX1LoSVnIUEkJz1LBbqgmJ/s+ktJHEL43VHfwNhIUwkrzRy4ZEbNIeifzDAj5I4JOFhtAy46M0zcDZkNkk0NFunypEhJGk3tdFMd5i+yF1pK096dCHidBiTPTatuqUE6a7+mO0dcNFaEqPHMLsxq8E834SvZvv6EzE2P4ZOkIrxkGVfsAH070PHx326cIpAiCskFt4m/CXEyZ1PaYLs4NJTHiluUVCIsgPe2SHRGHCiLfSQOitrKVI3YTxlEya+6GrLGwpXS9hONQkbBKqr/p27nV4VRfkCx5LIx+Y9njmAdcz+7Fzz+PaE9nAp0U8fSJ21yp7R7acJCkc9M49LB0IE9VLWoUxoWRJUFJYhRXSJmGTsEn4f0qY1GP9aIiKD1/odky1Cc30K9J+l/qt/qczNd8JpjBhUo/c7Oy6o3F69qS23+5RlTAZSxzeaxPwQN1Px73fEKYiodnzEp0dv+V0RGPDHk2pHGFfLNLf82+eJ5vaPhKThMFxD71SOcJbj4TtNvn7q0vXr1/PzW6n+EPaRFVTqkOII29eqe3Z3HWi3NLqkVBitLIp1SC0RoXONhHvCBmPVW5+W2yvEzOurueC2VOiekkqe6pWLNHX25bmK71OG4+TaUqBcnlabkrYuXer95ZXwTftsTBaRU3f662sB/wqnLZmGs8VD0POzwm9Mj40I/ZKBWcx4hWMx7ZXaa/kb6ZVjDAr63kVKefneASFCVNz896Mx0HOrh6tOWfhfxBGGcLqPa+SJh1Tqkl4MeNxml2FJQoZ4bd2iWDX+iPZIVH/Qc7+v94Kt6Mzd6GXMPjUj4d035XwdiwpSCc798RDksJkdc1L4WQSr66Zr2KProiw3hVSsn7oMTZyVkj1JqGtSQ89NaSEk1MLGzikW3/+YrLhCKfuc253owJkCAmn1jVR6YWGIZzckPAhTTUG4Qs3PlP3G4HwOQW0ubV1trV1/NJ556WsN4aL0PEwW4stLUVLLS2FE6djShBDRUgAX560mGS2isXFDXfEMBGSJnpeoPkQY8sJgRdigBAREidzyvMhxkXcVDfCSziJARdlgKYKuKW+qIvwQjv3fCLcqAzoIE56JrwhUQIIZYdEkezJW2kgvGES3pARTlVoogQRijz3Sqj9SyZ05Lf0kB+F4+hlXEIIBjquANhSPJUZsQJh0JKZsOBmPkD8gwo9DyUhjBRnUhMWFze1Y8S4KPlkSAhzEJvJTYi4NikjToWQEBqpvBdiB1NweuKCN8Lfbd4FP71XU+GBqiXoai6gd6SOtLDuELYUUNVfeiO8HfMusnPPk2Dt6WaFEjBa5PhqyhvpJgBuFalm6pEwsPVDXSREdlq3XYtjy+IxAP7Bf26hvyZ5wpRihPcEQrobFhePz0lkg4m0DQIMHZF2NWglin8sSNCEcBfmEk+IGyKCOAMgklLY7XeRJ8whQv45UkET3kKnm3UhhI63aZqRBDFUsCoSoiVT/jfQAyZMwhrGvJyQuBbtpLgoAIqEk2iNjf9F5aB3KkAG84InPC8yLVP7g6doqEFE7IeQdPGPrAvahnCv8DbvS4k7sRFBdChXPOMJZ9Eb/NMWgrYh3Cu8zLt8jWAsrlOA58yUDQwe1CdX0Rv8Fs2gCfVvfD0hplkkHC3nNuAfZvgvoIZLxzQQsvNbTgInfIDORw0XEJdu2eayvegGA4gdDZ0+oX2owlOygiZMwlIz5Uwn03QztRALKD5Ls4Fc8Zzvhjn0hvBsnsAJYf5jTuiIJ3SfMx3OOjeviNMM6nPgaIRnuQVNGImgfaTrVNwGzfQlbbJiCz9viv0M3Ui3pY4meMJYB98RYbygeqJEJAKg4250R3lK2NsW+M69GHTEVaqqeD7YfTLRzhTpJagleTfEO/c6vQt27nksDDv3eiqWgdj7iKrrdZLouiNuiiaE0VB8upIasxga20zJnLcrIiS/zBRGDr4WcZupMoR04IZHfS0tbajFArbgOv0R8KSShyspQ8hkwfbi2llRYHQCOWY6eA69JXkE2FAgNDLRvsbuitr6IsNYLBaOyQeYiUTwM7IH8GZGA4CRKs8YMWdH3BsnBWsJGP1XOLX5uN0KMBjKH0XTGrgew8Mx55kq56iNNJvHZ6enpyfnf6gvhAWEiE2lh0exmpEYkd2qwGudW1cDE6r1vEhGcHca2xPN8O2lGyC/Zwj3QpUepsgJjLgmLMwvSBmfC3sUjlQ34bVr4O/m+Jpfz73g90WlF8Q9GPNwqLa79q5Y+JHms0LlzQDnheNz1hdk+71yMKir9LBIiWBcjrtsIs1NTply25QIg71izxYWhJ+ILbbT6sJtVKUnmkqFH4nN+9PqWoJ7LVR63KeLJty7YiXl8E+pKTvYO8qAv1ir7a4gPFCo30YtYX+aqgkRe5mnQVfem55gxBrun4FoTakn0lYUTuX4ALUqoEoPpK2isdoaKm6iKsejvDL4ByLyXhBz5PbK8aCrXYsy5M7X+aqAS6RoKNyoI2JFbbtKZ5xfCyegidiNa35UqaXmtrUwNlFQ5hmpvHsEN2vfxh0iJ0NpkFQ/JQ/hcsSHat0hiNWkGiYE2pzkNxVW7dualU7qK6t12Y0xt+rMYfO7LsIlu6WaLsdpq0vbzm3po0pPWnhQKzVVvYZ+ZWFylfrBqJAbEDRM8WipOeYHIobC6mJYZdwebf8snGOETCMyxgbis5QZ7mbw4kONxYc0/tTmmxgOTyZYkzLjgwivMdyLmxqbrqmmmmqqqaaaaspF/wPqa+GaXjtRrwAAAABJRU5ErkJggg==;" parent="1" vertex="1">
          <mxGeometry x="310" y="405" width="70" height="70" as="geometry" />
        </mxCell>
        <mxCell id="RZCP1eC1JpLQxB95aDeo-13" value="" style="endArrow=none;dashed=1;html=1;dashPattern=1 3;strokeWidth=2;rounded=0;" parent="1" edge="1">
          <mxGeometry width="50" height="50" relative="1" as="geometry">
            <mxPoint x="300" y="590" as="sourcePoint" />
            <mxPoint x="300" y="230" as="targetPoint" />
          </mxGeometry>
        </mxCell>
        <mxCell id="RZCP1eC1JpLQxB95aDeo-15" value="" style="endArrow=none;dashed=1;html=1;dashPattern=1 3;strokeWidth=2;rounded=0;" parent="1" edge="1">
          <mxGeometry width="50" height="50" relative="1" as="geometry">
            <mxPoint x="300" y="590" as="sourcePoint" />
            <mxPoint x="790" y="590" as="targetPoint" />
          </mxGeometry>
        </mxCell>
        <mxCell id="RZCP1eC1JpLQxB95aDeo-18" value="" style="endArrow=none;dashed=1;html=1;dashPattern=1 3;strokeWidth=2;rounded=0;" parent="1" source="RZCP1eC1JpLQxB95aDeo-19" edge="1">
          <mxGeometry width="50" height="50" relative="1" as="geometry">
            <mxPoint x="300" y="240" as="sourcePoint" />
            <mxPoint x="1320" y="240" as="targetPoint" />
          </mxGeometry>
        </mxCell>
        <mxCell id="RZCP1eC1JpLQxB95aDeo-21" value="" style="shape=image;verticalLabelPosition=bottom;labelBackgroundColor=default;verticalAlign=top;aspect=fixed;imageAspect=0;image=data:image/png,iVBORw0KGgoAAAANSUhEUgAAAOEAAADhCAMAAAAJbSJIAAABX1BMVEX///8AAADwUlL5kT1mmWZIx4f3VFT5VFQTExPb29vqVVXzUlJRLS3MWFj6V1cuERHfTU1qNzewSUmnTk4gJCRbICByOjo4ODiZPT3/lT4ACgoAFhaeRkaNOzvbUlKRRUUoOyjcWVmDRER9Ly+GOztJKir19fUAAAiCgoJycnKioqLq6uo+Pj5LS0vh4eHKyspaWlpomGhdjF1ReVEdHR2Ojo6dnZ27u7tcgFw7SjtWdVY7WTtHwII7om5Lz41ii2J3d3feh0IuLi7zkUJVVVWYYTZMZkwMAAwXIxczTTNGaUYfLh8cQCsPFg8mZ0ZDVkNsSS43KyKtbjyGWDW+dz8ADhfSgD9VOSMABhhHNSekYixmTDerckaOXDVoTTh1TS44JhZCNy4rGhpQICC8RETAczU6GBgqIhsAFx8zICAjFRVEMTEvOS+7WlpwQEAfUDYwe1Q4kWIvd1EZRjAiXkCO+dpUAAAO0UlEQVR4nO2diV/TyhbHTStpacEnWIFURFFpWYVCka0US2VREFQQRS/XDa/L4z0W+f8/L5kzk8yWNqWBTPr6+3zutTTTZL49M2fOmZk016411VRTTTXVVFNNNeVJI60jQVfh8tQ6PBTXTA0FXZHLUetgXiMaDroyl6CZUY1S4xlxOK8xmg66Qj5rfJnl0/KZoKvkqzKDGq/xoOvkq1qdBvr+Ffw7GHSdfNWwzff6jbEDbTToOvmqpzbfrmGUso3XRp9hvuxK2Yga0Egngq6UnyJj4H7JiEajJfjjcdC18k+Zbgy4Y/FFjU8N52bGcAvdRYDRMgpJtQYKuycA8O0eABpvGi1ew+P8zxIARqPv0N+tQdfLN+FxMG8DwlCxHHS9fFMrbqI2IG6kdto0PPZsONTRKQ7V9gggGQyJnwETD4aXcQgA39iAUeO99cYYKRDHA8l0SBnH6XEQd0N2MHTyqVCm+5kURDJlB9DYRW/NkCLTNqE2FsIgBwaKbIkyofGBjdjGNUqhM+NjoROahDtcQEMTahMh640Qre3TgFHjIxoNHZIJBnE5VC11HLfRqEjY7ZSCjvjXD8IYplgHUqYDozLhDCq1G90hiOHJi8GE+XKUJfyba6XQWT8Yxm46bIjQC1cMjpD3NCOYMGqUvoQLEQLSn1FOeLRwettInLRlo/wRI4YjdRwSRwpqxH9ilwNCJvvX4gHW27MyqKpvy7wNo2V0wI5LcSvFjZkghmGSCnKGHd6EJsQ+20xbST8E4YaqbnQzMzQNnahbMhYCIeSHo+QTT2C0IITl14Co6shvVTdujQQwBrwTTWgy3EHHcHaRQd0w67TmcpprxkppxPYiT+R+BhlxBaw0ZDXU1lH+q8CuyMk+lNKEbR00GKYljdSyElmiSXWn8KtdOvvA3iZoGJlwJjRIjLkvM6GJsKdxesd+AxCjqrh4itOEIcIqbaQW4pssA/ijzB6GdhpXL5PC02qWk4CEYc+F0GR4SwOW+Mhu3+7PasleQMPWzLoBmgylT6RwdqfsEvcoN6U6Yhslk8lX6IaYory783H/4853gc86+FpJd+os8s5AyManFTwGSHoIjKha7DZmE05XdjQehAcUtXxNxnEdeTDn3oUBo8aBgs0UZiNgChumect1EO6RcUchoXwwveJYUpI5eVf5M/q+goZihHrO57I9Z6al6iHE6zcqTbxBMvEK50aoqdZF+F25jkjcJx7K6iWM7qHATqXdDNh9GniJt27CqHIjIgrZrJzebqc/6yKEtjBa/cJXJsgrrDGeZLjv6yNEEzYq7c5E27p+wJwgJEd12pCfOQ5cKGb7gucE0QR9lbC0GuGHKyIUN71WEskmjPLB37t1ARJCz7qo152ufmpaH50dF/Kk4fIILzrpka9+ZloVM8JLJuyuTiNTvPqZaX1peMIfPhIeXCHh1y4P+oou4yMhGg/jHfYFBtAFOmTX/l0v4e1YTK+mWJdVUrZOcVFCFNP8ipBLx+4hwj5JVWIDdRPqkarSUQWydaT1PCG69LcYewGtPyle+2oIk4eoAnUOgpQggO+yLx08YT9aMvrkFyHODzvVIYwkUNHPPgGSsLTdBgqeMNZmFX3rm6tB8zRawj5/8IR6D6pBHXOkjKAbtsWc8wdOmOxHNZCu+tYunGP2OFcOnjASS/k5IsLqU5/DowCh3ouqcOCHEfGE8AB1YQUIk31ovHjvA2DUeMeNFUoQRpIdqA5/+WDEEjpTPkGdXQlCCGviZb9M+Ii+rgqEkciAPz0RxzPpPppGCUK9U/PHncK0eVeMOfmlElZPnug0pt4xEY+F6QR77svMnv7p8SqUJNY5j0h22wxw50ZRoXZPdtmv9RLWLtdtJlGyfO9+nFqfq0lXS/jDrSsaxt73lZ2D73uyHRigdxe75BUTap/LUr7yyg9YmcrGP/HbhHCRnSpnVoVQ25dVn93s9Ulix5pn2IIjlCCW+faXF7qrsSI916UT3k7cFNWHTntXcuA3RuRMVH4tVCrLIdJN9KHkmi5K+DAeiqNs8iaqR494SO/Dhuc25O3blU+n7Ve0R3JuRkCEkou66JJiGkwoOaS3Y4L31Myb3f7aOtv72w87cBFqY6lRYoaJh15DxQAIHUTKmZRgu2X88IaeNKX3Q/jjTD8ab8iGzN608oQRvf8Orm0eE2AfeaeflE/iMJ2sqZZsN9Sph4AwkkwMkArvl6wAxviJ/jjUqSKwcldCPdB2MfH2WCQMhGb9O0ids6/2DKOEXnYwCR/MenwwjPKBvWP4V59ZJBSEFoDtMbPvdt/gBkh/CX2oKb/a+2QX1LoSVnIUEkJz1LBbqgmJ/s+ktJHEL43VHfwNhIUwkrzRy4ZEbNIeifzDAj5I4JOFhtAy46M0zcDZkNkk0NFunypEhJGk3tdFMd5i+yF1pK096dCHidBiTPTatuqUE6a7+mO0dcNFaEqPHMLsxq8E834SvZvv6EzE2P4ZOkIrxkGVfsAH070PHx326cIpAiCskFt4m/CXEyZ1PaYLs4NJTHiluUVCIsgPe2SHRGHCiLfSQOitrKVI3YTxlEya+6GrLGwpXS9hONQkbBKqr/p27nV4VRfkCx5LIx+Y9njmAdcz+7Fzz+PaE9nAp0U8fSJ21yp7R7acJCkc9M49LB0IE9VLWoUxoWRJUFJYhRXSJmGTsEn4f0qY1GP9aIiKD1/odky1Cc30K9J+l/qt/qczNd8JpjBhUo/c7Oy6o3F69qS23+5RlTAZSxzeaxPwQN1Px73fEKYiodnzEp0dv+V0RGPDHk2pHGFfLNLf82+eJ5vaPhKThMFxD71SOcJbj4TtNvn7q0vXr1/PzW6n+EPaRFVTqkOII29eqe3Z3HWi3NLqkVBitLIp1SC0RoXONhHvCBmPVW5+W2yvEzOurueC2VOiekkqe6pWLNHX25bmK71OG4+TaUqBcnlabkrYuXer95ZXwTftsTBaRU3f662sB/wqnLZmGs8VD0POzwm9Mj40I/ZKBWcx4hWMx7ZXaa/kb6ZVjDAr63kVKefneASFCVNz896Mx0HOrh6tOWfhfxBGGcLqPa+SJh1Tqkl4MeNxml2FJQoZ4bd2iWDX+iPZIVH/Qc7+v94Kt6Mzd6GXMPjUj4d035XwdiwpSCc798RDksJkdc1L4WQSr66Zr2KProiw3hVSsn7oMTZyVkj1JqGtSQ89NaSEk1MLGzikW3/+YrLhCKfuc253owJkCAmn1jVR6YWGIZzckPAhTTUG4Qs3PlP3G4HwOQW0ubV1trV1/NJ556WsN4aL0PEwW4stLUVLLS2FE6djShBDRUgAX560mGS2isXFDXfEMBGSJnpeoPkQY8sJgRdigBAREidzyvMhxkXcVDfCSziJARdlgKYKuKW+qIvwQjv3fCLcqAzoIE56JrwhUQIIZYdEkezJW2kgvGES3pARTlVoogQRijz3Sqj9SyZ05Lf0kB+F4+hlXEIIBjquANhSPJUZsQJh0JKZsOBmPkD8gwo9DyUhjBRnUhMWFze1Y8S4KPlkSAhzEJvJTYi4NikjToWQEBqpvBdiB1NweuKCN8Lfbd4FP71XU+GBqiXoai6gd6SOtLDuELYUUNVfeiO8HfMusnPPk2Dt6WaFEjBa5PhqyhvpJgBuFalm6pEwsPVDXSREdlq3XYtjy+IxAP7Bf26hvyZ5wpRihPcEQrobFhePz0lkg4m0DQIMHZF2NWglin8sSNCEcBfmEk+IGyKCOAMgklLY7XeRJ8whQv45UkET3kKnm3UhhI63aZqRBDFUsCoSoiVT/jfQAyZMwhrGvJyQuBbtpLgoAIqEk2iNjf9F5aB3KkAG84InPC8yLVP7g6doqEFE7IeQdPGPrAvahnCv8DbvS4k7sRFBdChXPOMJZ9Eb/NMWgrYh3Cu8zLt8jWAsrlOA58yUDQwe1CdX0Rv8Fs2gCfVvfD0hplkkHC3nNuAfZvgvoIZLxzQQsvNbTgInfIDORw0XEJdu2eayvegGA4gdDZ0+oX2owlOygiZMwlIz5Uwn03QztRALKD5Ls4Fc8Zzvhjn0hvBsnsAJYf5jTuiIJ3SfMx3OOjeviNMM6nPgaIRnuQVNGImgfaTrVNwGzfQlbbJiCz9viv0M3Ui3pY4meMJYB98RYbygeqJEJAKg4250R3lK2NsW+M69GHTEVaqqeD7YfTLRzhTpJagleTfEO/c6vQt27nksDDv3eiqWgdj7iKrrdZLouiNuiiaE0VB8upIasxga20zJnLcrIiS/zBRGDr4WcZupMoR04IZHfS0tbajFArbgOv0R8KSShyspQ8hkwfbi2llRYHQCOWY6eA69JXkE2FAgNDLRvsbuitr6IsNYLBaOyQeYiUTwM7IH8GZGA4CRKs8YMWdH3BsnBWsJGP1XOLX5uN0KMBjKH0XTGrgew8Mx55kq56iNNJvHZ6enpyfnf6gvhAWEiE2lh0exmpEYkd2qwGudW1cDE6r1vEhGcHca2xPN8O2lGyC/Zwj3QpUepsgJjLgmLMwvSBmfC3sUjlQ34bVr4O/m+Jpfz73g90WlF8Q9GPNwqLa79q5Y+JHms0LlzQDnheNz1hdk+71yMKir9LBIiWBcjrtsIs1NTply25QIg71izxYWhJ+ILbbT6sJtVKUnmkqFH4nN+9PqWoJ7LVR63KeLJty7YiXl8E+pKTvYO8qAv1ir7a4gPFCo30YtYX+aqgkRe5mnQVfem55gxBrun4FoTakn0lYUTuX4ALUqoEoPpK2isdoaKm6iKsejvDL4ByLyXhBz5PbK8aCrXYsy5M7X+aqAS6RoKNyoI2JFbbtKZ5xfCyegidiNa35UqaXmtrUwNlFQ5hmpvHsEN2vfxh0iJ0NpkFQ/JQ/hcsSHat0hiNWkGiYE2pzkNxVW7dualU7qK6t12Y0xt+rMYfO7LsIlu6WaLsdpq0vbzm3po0pPWnhQKzVVvYZ+ZWFylfrBqJAbEDRM8WipOeYHIobC6mJYZdwebf8snGOETCMyxgbis5QZ7mbw4kONxYc0/tTmmxgOTyZYkzLjgwivMdyLmxqbrqmmmmqqqaaaaspF/wPqa+GaXjtRrwAAAABJRU5ErkJggg==;" parent="1" vertex="1">
          <mxGeometry x="710" y="395" width="70" height="70" as="geometry" />
        </mxCell>
        <mxCell id="RZCP1eC1JpLQxB95aDeo-22" value="" style="endArrow=none;dashed=1;html=1;rounded=0;" parent="1" edge="1">
          <mxGeometry width="50" height="50" relative="1" as="geometry">
            <mxPoint x="430" y="520" as="sourcePoint" />
            <mxPoint x="430" y="320" as="targetPoint" />
          </mxGeometry>
        </mxCell>
        <mxCell id="RZCP1eC1JpLQxB95aDeo-24" value="" style="endArrow=none;dashed=1;html=1;rounded=0;" parent="1" edge="1">
          <mxGeometry width="50" height="50" relative="1" as="geometry">
            <mxPoint x="435" y="555" as="sourcePoint" />
            <mxPoint x="675" y="555" as="targetPoint" />
            <Array as="points" />
          </mxGeometry>
        </mxCell>
        <mxCell id="RZCP1eC1JpLQxB95aDeo-27" value="" style="endArrow=none;dashed=1;html=1;rounded=0;" parent="1" source="RZCP1eC1JpLQxB95aDeo-23" edge="1">
          <mxGeometry width="50" height="50" relative="1" as="geometry">
            <mxPoint x="680" y="320" as="sourcePoint" />
            <mxPoint x="440" y="320" as="targetPoint" />
            <Array as="points" />
          </mxGeometry>
        </mxCell>
        <mxCell id="RZCP1eC1JpLQxB95aDeo-28" value="" style="endArrow=none;dashed=1;html=1;rounded=0;" parent="1" edge="1">
          <mxGeometry width="50" height="50" relative="1" as="geometry">
            <mxPoint x="690" y="512.5" as="sourcePoint" />
            <mxPoint x="690" y="312.5" as="targetPoint" />
            <Array as="points">
              <mxPoint x="690" y="422.5" />
            </Array>
          </mxGeometry>
        </mxCell>
        <mxCell id="RZCP1eC1JpLQxB95aDeo-30" value="" style="endArrow=none;dashed=1;html=1;dashPattern=1 3;strokeWidth=2;rounded=0;" parent="1" target="RZCP1eC1JpLQxB95aDeo-19" edge="1">
          <mxGeometry width="50" height="50" relative="1" as="geometry">
            <mxPoint x="300" y="240" as="sourcePoint" />
            <mxPoint x="1040" y="240" as="targetPoint" />
          </mxGeometry>
        </mxCell>
        <mxCell id="RZCP1eC1JpLQxB95aDeo-19" value="INTERNAL NETWORK" style="text;html=1;align=center;verticalAlign=middle;whiteSpace=wrap;rounded=0;" parent="1" vertex="1">
          <mxGeometry x="787.5" y="200" width="220" height="80" as="geometry" />
        </mxCell>
        <mxCell id="RZCP1eC1JpLQxB95aDeo-31" value="" style="endArrow=none;dashed=1;html=1;rounded=0;" parent="1" target="RZCP1eC1JpLQxB95aDeo-23" edge="1">
          <mxGeometry width="50" height="50" relative="1" as="geometry">
            <mxPoint x="680" y="320" as="sourcePoint" />
            <mxPoint x="440" y="320" as="targetPoint" />
            <Array as="points" />
          </mxGeometry>
        </mxCell>
        <mxCell id="RZCP1eC1JpLQxB95aDeo-142" style="edgeStyle=orthogonalEdgeStyle;rounded=0;orthogonalLoop=1;jettySize=auto;html=1;exitX=0.5;exitY=0;exitDx=0;exitDy=0;" parent="1" source="RZCP1eC1JpLQxB95aDeo-23" target="RZCP1eC1JpLQxB95aDeo-134" edge="1">
          <mxGeometry relative="1" as="geometry">
            <Array as="points">
              <mxPoint x="560" y="215" />
              <mxPoint x="635" y="215" />
              <mxPoint x="635" y="-30" />
              <mxPoint x="545" y="-30" />
            </Array>
          </mxGeometry>
        </mxCell>
        <mxCell id="RZCP1eC1JpLQxB95aDeo-23" value="DMZ" style="text;html=1;align=center;verticalAlign=middle;whiteSpace=wrap;rounded=0;" parent="1" vertex="1">
          <mxGeometry x="530" y="310" width="60" height="30" as="geometry" />
        </mxCell>
        <mxCell id="RZCP1eC1JpLQxB95aDeo-34" value="" style="shape=image;verticalLabelPosition=bottom;labelBackgroundColor=default;verticalAlign=top;aspect=fixed;imageAspect=0;image=data:image/png,iVBORw0KGgoAAAANSUhEUgAAAOEAAADhCAMAAAAJbSJIAAAA+VBMVEUAAABBcsr///9ojtUmRH46Z8FCdM4kQHFrktpAcMYwVZYLFCRScKhAV4Jsk90bJjnx8fEeHh6i9cMrTIc3YawZK0weNFwbL1gjPnMRHzviebM5ZsA7aLg1XaWaUnrpfbknNVCp/8wQHTOK0aZnN1IUJEQJDhopPzKEx55up4VLclqU37I6WEYrTZDOb6NMes3o6Oh5eXkoR30FCRByltjZ2dlBQUEbL1mxsbGdnZ0YITErKysaLVDNzc0hOmaDg4N6uZMgMSeDRmcyWKU1NTVjY2O9vb1bim4XIxxAIjMNFytVVVU1Xa9XL0U0R2thhMYkExw8WZAjMEiQOwksAAAKDUlEQVR4nO2d6WLTOBSF6xbs2IEuOA7N4AANJAxTYGgy3Wiasg+UpQPv/zCTxJYs2deOJd1ETqLzr71Z9EW2rOVcaWMzR8dXFxvLo4ur4zyQDfjfu0e6yyyso10hwhPd5ZXQiQjhJ92lldJRecJL3WWVFHgvgoTLdxNGAisRJIzvwqFTde3HGkYFBu9EiHB3b/r6wK68bhN1pyXeg5rTAsKmbVVdDwjhfUNoCKsqQyhCyLZg2W9CCYoKldC2Q88naqdKWhi0bJcJWgVBQXnh+JvQCO1GwHYdeh5Xu2GT61j4XNAdccE+y2i7TsnOCqigYWMR2l76wx2mehvpIFv3YT0V7LoJodtRARzLu41DaIfZz04qys0GGf404LgrmFwZXUXAjY3vSIQB8NkhKeYICDbIO/tAsE2CmStDXF0UQqgKk0oMB0CQVmK2CpNKtFvqhLQS1QjB3zouZ/YunKhV9Ntck8u7h0D4EoXQjz7s7WGkd9O/unGwHQWfx8Fn0786PP77V5F+TP/quRx+a19Kp9G7b2ESPjm4N9UziPDPKHjwAiJ8+OiPiR49hQi7t6S0Pw/Ce0WE9xZM6BhCQ2gIV5Lw8CASSPgkDuYQRoIJfRlAH7UtBZ/4QZknPhisx31vsDckKpwnPljOflG3hfRowW5Li/TaVEcWE33AGT1dAx9NO9dQt5x2rqFuOenRgt1yQV0jjS2AyzQZOwI13KJBoIbrydBKnfAlDqFlZ4biHVpK2hAl6iWDXNIQMQqZmQNVQAdpBJylGLnsXITH323DkA22+QFUlws21AZQPtosxmRGxR8FsZp9tpTToJcEnQY/FTUOOsM4OHRSU1G21aZBUY18F3EmykrN+lkpIQV1ziZWVYbQEBpC/aKEp5KEEq1bIpVmsqxkn/ibH6evH/ieoLhFiVD03RJ6GetWNE75CMGAhNKGoXaC2Jz9anR9Kk34WfYrBqRLijFwENfn0oTxZSoh7+9Y0Hz+vAVepDmEr2W/5E5ta6rtN5hFL6nXAoSbx3Lm0t5NBLhVu4tc+tm6yHGY5hBu7p7viX/JgFThWD/xGYq0d55jL80lnFyql7FHcedOSW0lgFu1m7LvUtBOVMDLS/gCnUU4iU71eLtWTlucSr5JQduPowIWM5QhTBW9MqoZQkNoCLULj3C7qlIjPDs6if3eg52qKl7cOTk5OhMmPJPoV+hVHmMO4TLmI8AJJTmE57pLK6Xz8oTSgyfNAnunIOGV7qJK6qo04bf4HfVlUVzeb2UJd6Phb2sR84FqorOJ0Yr5hZkRXmLC1Z/VN4SGcCragEFfhRAUFDahbYeNWKGVSYux3VLBRmFQUJOUGcScGbfPmtCanBnDtnx2Cn/Y4O0WHmvuCtp8sK1gNxn0XbycmTDt+2LSgmw3Xco+Q+EOU0GHvTAgU5iA6iGWYwgw4CV1ARjwEn47DcjyqwJubPSQ6hAqyYAWE1pGo2tskHGTXOKAI0xYpziEoMGS1BNosCT1BBosR0WuRlHh5MyAv3Wh+ZQYiMHfpkN+G4wlRtScmX+fR/rCQbT54DsWguA/fRjp6/SvlAv6+r6U4rw35JyZqWAnu4LPW87JbnJmDKEhNIRLSlilnJm5tKUv/ooU/RXwhCT4BSL8+jTSfywhyZnptaQUjwVwnvhgn2ZU1KcJbA6CF+nTgIkqosLJmQG7njQtBup60rQYqOu5X5RQIyg6uFAcWwDDhyQtBhg+9IoSapKBB9hrFRO5DZVHwNmqYDJfslWRjPKBH4cZWSpvORBgjYAtN2UW7XCZL6mcoTo7U5FGHLCbhqgiNi00wnFr00wajcBLZb40Rsmd2vJdPhg6ySip008H+9LNzaDZRs2ZAWbyMIJqZnAzI2wIDWEVtEaEK7tCKv08jNbx66HlLljc48S2Z77+QawP0TO39Do+9WIsXk4C6Ir3zEt7MXRaoka0Mywx9ACtbSDhLn7JS4umuku8F2LJ8bVp3Cr5HyLxt14KEOozX+5QA7BwXlGO/TLPX3qsqbWhWTe1O2Jv/JS37Xy+R/j12Xnc4ry5uzDdJJby2s3sl8f1fH5+lp80g5ozoy7eqD5LJmfGEBpC/TKE5QkX15aKSbEt1fI8FJTK81BXn0Za3wT7NMuXFCTYL13OY1gExhY6x4cqKk+4nGlPOYlPFZunUZNozky9sfC5NlHJzrWtwXzp0hCu/pz3Gq1bGEJDOLd1fKVlfNR1fM6L0fXxvBiOkhcDb4dWIT9Nbwn9NKieKCahpjKeKMjXRg2GK+FrW3lv4ur7S9fAI7w2Pu818OobQkNoCPUTrnz+4QrnkK58HvDq53KvQT7+6u+pMGtfjPSBqQvbF+MabV+M+e1t4lVkb5NJWZj9aTJTZmX3pynevEbr/jRxaeAZQayg8FSiZWaEDaEhrILWiFB0hVRk70vm+2SbRXnRJ77g3pcC+5d2+sxRgI3h/HcqhRWXt3zOjMgetAHt2ykfZ6is8n4aoX2E6fy+jtOBeJXfR1jIFPWLHJ7ze24lLymBvaCF9vOmh+cs+NyVjIT28xawXyYW6Zt5Fn+2BPdk3yy5r/7vX4zr+ubn4nbUj6Syr34cnarobATO5F5b2KEIsR5HBSxmKEO4+l59Q6hLhtAQJoQrmjMjce7awqVy7prU2XkaJXx2nuT5hzoldv7hch7DInKGpfQ5pFolcA6p9FmymlX+LFnp84A1q/x5wLJnOi9csmc6S5/LvXChrR9WViZnxhAaQv3CJOSasPQXIQUFhUpou/4oiNXsh6kFftdLgk6Dx7AtbzSMg0OnnQ62HRIU1WiSnIN3ko7Pm+5HbHKP7fEGtSGXUNPmrThdLthQMJtsTJIe0BxDTvqzO0wx/XSwxyy4ZZ1dTLaN8mKVg/TEh9xpzaI1tWSjaMD0V08qURUwsSaq1iGU+kGcT3ba8zURXXCDbF00oQby/AnqGoUQvpj6RRbSwnwiUsOgNVNUODkzYIpZUITfKgrW+ZwZNaHmzBxWKWfGNzkzhtAQGsIlJTwoIjxYMOE82tK3h5HeQYTP4+AziPD9q0g/IMLWvpROMQnBJ/6wzBMf7PBcWwUdHlHhPPHBcpLepQv1TGjKAZT4MyS9NrWhUySknBkofYemxUCda5oWA3WuabdcecOB8b2CNHoCKpFU4bgSs0EmayRbiUMaRKjE7ziEwDh2lDBk70R29iNMI3aT4bHlqo4u2kgj4ElBuQu1x27fMQ5ytsuBzwVTe8f32W1RbDczeSCiIETMmbHt0POJUnNNk8SXJNjOpMWwQasgKChvkjQzr9lEKyOUoNbZxKrKEBpCQ6hfioSBQju3INEnfleMcDP2dw+dqouMpeJs4xMIBiQUyEWolMB8BJDwWHdRJQU622DX13JWIpxSkuNNPNFdWgmBd2G+v3T5ajEnKSjfI3x8tUwW04urvE3nN/8HiTETcsgVhtwAAAAASUVORK5CYII=;" parent="1" vertex="1">
          <mxGeometry x="475" y="402.5" width="55" height="55" as="geometry" />
        </mxCell>
        <mxCell id="RZCP1eC1JpLQxB95aDeo-39" value="hackthe.lab" style="text;html=1;align=center;verticalAlign=middle;whiteSpace=wrap;rounded=0;" parent="1" vertex="1">
          <mxGeometry x="460" y="445" width="85" height="75" as="geometry" />
        </mxCell>
        <mxCell id="RZCP1eC1JpLQxB95aDeo-51" value="PUBLIC IP&amp;nbsp;" style="text;html=1;align=center;verticalAlign=middle;whiteSpace=wrap;rounded=0;" parent="1" vertex="1">
          <mxGeometry x="240" y="400" width="60" height="30" as="geometry" />
        </mxCell>
        <mxCell id="RZCP1eC1JpLQxB95aDeo-52" value="Perimeter Firewall" style="text;html=1;align=center;verticalAlign=middle;whiteSpace=wrap;rounded=0;" parent="1" vertex="1">
          <mxGeometry x="315" y="355" width="60" height="30" as="geometry" />
        </mxCell>
        <mxCell id="RZCP1eC1JpLQxB95aDeo-53" value="Interal firewall" style="text;html=1;align=center;verticalAlign=middle;whiteSpace=wrap;rounded=0;" parent="1" vertex="1">
          <mxGeometry x="710" y="355" width="60" height="30" as="geometry" />
        </mxCell>
        <mxCell id="RZCP1eC1JpLQxB95aDeo-57" value="" style="endArrow=none;dashed=1;html=1;dashPattern=1 3;strokeWidth=2;rounded=0;" parent="1" edge="1">
          <mxGeometry width="50" height="50" relative="1" as="geometry">
            <mxPoint x="800" y="590" as="sourcePoint" />
            <mxPoint x="800" y="940" as="targetPoint" />
          </mxGeometry>
        </mxCell>
        <mxCell id="RZCP1eC1JpLQxB95aDeo-59" value="" style="shape=image;verticalLabelPosition=bottom;labelBackgroundColor=default;verticalAlign=top;aspect=fixed;imageAspect=0;image=data:image/png,iVBORw0KGgoAAAANSUhEUgAAAOEAAADhCAMAAAAJbSJIAAAA+VBMVEUAAABBcsr///9ojtUmRH46Z8FCdM4kQHFrktpAcMYwVZYLFCRScKhAV4Jsk90bJjnx8fEeHh6i9cMrTIc3YawZK0weNFwbL1gjPnMRHzviebM5ZsA7aLg1XaWaUnrpfbknNVCp/8wQHTOK0aZnN1IUJEQJDhopPzKEx55up4VLclqU37I6WEYrTZDOb6NMes3o6Oh5eXkoR30FCRByltjZ2dlBQUEbL1mxsbGdnZ0YITErKysaLVDNzc0hOmaDg4N6uZMgMSeDRmcyWKU1NTVjY2O9vb1bim4XIxxAIjMNFytVVVU1Xa9XL0U0R2thhMYkExw8WZAjMEiQOwksAAAKDUlEQVR4nO2d6WLTOBSF6xbs2IEuOA7N4AANJAxTYGgy3Wiasg+UpQPv/zCTxJYs2deOJd1ETqLzr71Z9EW2rOVcaWMzR8dXFxvLo4ur4zyQDfjfu0e6yyyso10hwhPd5ZXQiQjhJ92lldJRecJL3WWVFHgvgoTLdxNGAisRJIzvwqFTde3HGkYFBu9EiHB3b/r6wK68bhN1pyXeg5rTAsKmbVVdDwjhfUNoCKsqQyhCyLZg2W9CCYoKldC2Q88naqdKWhi0bJcJWgVBQXnh+JvQCO1GwHYdeh5Xu2GT61j4XNAdccE+y2i7TsnOCqigYWMR2l76wx2mehvpIFv3YT0V7LoJodtRARzLu41DaIfZz04qys0GGf404LgrmFwZXUXAjY3vSIQB8NkhKeYICDbIO/tAsE2CmStDXF0UQqgKk0oMB0CQVmK2CpNKtFvqhLQS1QjB3zouZ/YunKhV9Ntck8u7h0D4EoXQjz7s7WGkd9O/unGwHQWfx8Fn0786PP77V5F+TP/quRx+a19Kp9G7b2ESPjm4N9UziPDPKHjwAiJ8+OiPiR49hQi7t6S0Pw/Ce0WE9xZM6BhCQ2gIV5Lw8CASSPgkDuYQRoIJfRlAH7UtBZ/4QZknPhisx31vsDckKpwnPljOflG3hfRowW5Li/TaVEcWE33AGT1dAx9NO9dQt5x2rqFuOenRgt1yQV0jjS2AyzQZOwI13KJBoIbrydBKnfAlDqFlZ4biHVpK2hAl6iWDXNIQMQqZmQNVQAdpBJylGLnsXITH323DkA22+QFUlws21AZQPtosxmRGxR8FsZp9tpTToJcEnQY/FTUOOsM4OHRSU1G21aZBUY18F3EmykrN+lkpIQV1ziZWVYbQEBpC/aKEp5KEEq1bIpVmsqxkn/ibH6evH/ieoLhFiVD03RJ6GetWNE75CMGAhNKGoXaC2Jz9anR9Kk34WfYrBqRLijFwENfn0oTxZSoh7+9Y0Hz+vAVepDmEr2W/5E5ta6rtN5hFL6nXAoSbx3Lm0t5NBLhVu4tc+tm6yHGY5hBu7p7viX/JgFThWD/xGYq0d55jL80lnFyql7FHcedOSW0lgFu1m7LvUtBOVMDLS/gCnUU4iU71eLtWTlucSr5JQduPowIWM5QhTBW9MqoZQkNoCLULj3C7qlIjPDs6if3eg52qKl7cOTk5OhMmPJPoV+hVHmMO4TLmI8AJJTmE57pLK6Xz8oTSgyfNAnunIOGV7qJK6qo04bf4HfVlUVzeb2UJd6Phb2sR84FqorOJ0Yr5hZkRXmLC1Z/VN4SGcCragEFfhRAUFDahbYeNWKGVSYux3VLBRmFQUJOUGcScGbfPmtCanBnDtnx2Cn/Y4O0WHmvuCtp8sK1gNxn0XbycmTDt+2LSgmw3Xco+Q+EOU0GHvTAgU5iA6iGWYwgw4CV1ARjwEn47DcjyqwJubPSQ6hAqyYAWE1pGo2tskHGTXOKAI0xYpziEoMGS1BNosCT1BBosR0WuRlHh5MyAv3Wh+ZQYiMHfpkN+G4wlRtScmX+fR/rCQbT54DsWguA/fRjp6/SvlAv6+r6U4rw35JyZqWAnu4LPW87JbnJmDKEhNIRLSlilnJm5tKUv/ooU/RXwhCT4BSL8+jTSfywhyZnptaQUjwVwnvhgn2ZU1KcJbA6CF+nTgIkqosLJmQG7njQtBup60rQYqOu5X5RQIyg6uFAcWwDDhyQtBhg+9IoSapKBB9hrFRO5DZVHwNmqYDJfslWRjPKBH4cZWSpvORBgjYAtN2UW7XCZL6mcoTo7U5FGHLCbhqgiNi00wnFr00wajcBLZb40Rsmd2vJdPhg6ySip008H+9LNzaDZRs2ZAWbyMIJqZnAzI2wIDWEVtEaEK7tCKv08jNbx66HlLljc48S2Z77+QawP0TO39Do+9WIsXk4C6Ir3zEt7MXRaoka0Mywx9ACtbSDhLn7JS4umuku8F2LJ8bVp3Cr5HyLxt14KEOozX+5QA7BwXlGO/TLPX3qsqbWhWTe1O2Jv/JS37Xy+R/j12Xnc4ry5uzDdJJby2s3sl8f1fH5+lp80g5ozoy7eqD5LJmfGEBpC/TKE5QkX15aKSbEt1fI8FJTK81BXn0Za3wT7NMuXFCTYL13OY1gExhY6x4cqKk+4nGlPOYlPFZunUZNozky9sfC5NlHJzrWtwXzp0hCu/pz3Gq1bGEJDOLd1fKVlfNR1fM6L0fXxvBiOkhcDb4dWIT9Nbwn9NKieKCahpjKeKMjXRg2GK+FrW3lv4ur7S9fAI7w2Pu818OobQkNoCPUTrnz+4QrnkK58HvDq53KvQT7+6u+pMGtfjPSBqQvbF+MabV+M+e1t4lVkb5NJWZj9aTJTZmX3pynevEbr/jRxaeAZQayg8FSiZWaEDaEhrILWiFB0hVRk70vm+2SbRXnRJ77g3pcC+5d2+sxRgI3h/HcqhRWXt3zOjMgetAHt2ykfZ6is8n4aoX2E6fy+jtOBeJXfR1jIFPWLHJ7ze24lLymBvaCF9vOmh+cs+NyVjIT28xawXyYW6Zt5Fn+2BPdk3yy5r/7vX4zr+ubn4nbUj6Syr34cnarobATO5F5b2KEIsR5HBSxmKEO4+l59Q6hLhtAQJoQrmjMjce7awqVy7prU2XkaJXx2nuT5hzoldv7hch7DInKGpfQ5pFolcA6p9FmymlX+LFnp84A1q/x5wLJnOi9csmc6S5/LvXChrR9WViZnxhAaQv3CJOSasPQXIQUFhUpou/4oiNXsh6kFftdLgk6Dx7AtbzSMg0OnnQ62HRIU1WiSnIN3ko7Pm+5HbHKP7fEGtSGXUNPmrThdLthQMJtsTJIe0BxDTvqzO0wx/XSwxyy4ZZ1dTLaN8mKVg/TEh9xpzaI1tWSjaMD0V08qURUwsSaq1iGU+kGcT3ba8zURXXCDbF00oQby/AnqGoUQvpj6RRbSwnwiUsOgNVNUODkzYIpZUITfKgrW+ZwZNaHmzBxWKWfGNzkzhtAQGsIlJTwoIjxYMOE82tK3h5HeQYTP4+AziPD9q0g/IMLWvpROMQnBJ/6wzBMf7PBcWwUdHlHhPPHBcpLepQv1TGjKAZT4MyS9NrWhUySknBkofYemxUCda5oWA3WuabdcecOB8b2CNHoCKpFU4bgSs0EmayRbiUMaRKjE7ziEwDh2lDBk70R29iNMI3aT4bHlqo4u2kgj4ElBuQu1x27fMQ5ytsuBzwVTe8f32W1RbDczeSCiIETMmbHt0POJUnNNk8SXJNjOpMWwQasgKChvkjQzr9lEKyOUoNbZxKrKEBpCQ6hfioSBQju3INEnfleMcDP2dw+dqouMpeJs4xMIBiQUyEWolMB8BJDwWHdRJQU622DX13JWIpxSkuNNPNFdWgmBd2G+v3T5ajEnKSjfI3x8tUwW04urvE3nN/8HiTETcsgVhtwAAAAASUVORK5CYII=;" parent="1" vertex="1">
          <mxGeometry x="890" y="405" width="60" height="60" as="geometry" />
        </mxCell>
        <mxCell id="RZCP1eC1JpLQxB95aDeo-60" value="FORREST ROOT&amp;nbsp;&lt;div&gt;infosec.lab&lt;/div&gt;&lt;div&gt;10.0.0.x&lt;/div&gt;" style="text;html=1;align=center;verticalAlign=middle;whiteSpace=wrap;rounded=0;" parent="1" vertex="1">
          <mxGeometry x="960" y="272.5" width="230" height="82.5" as="geometry" />
        </mxCell>
        <mxCell id="RZCP1eC1JpLQxB95aDeo-61" value="MONITORING&amp;nbsp; ELK STACK/ WAZUH" style="text;html=1;align=center;verticalAlign=middle;whiteSpace=wrap;rounded=0;" parent="1" vertex="1">
          <mxGeometry x="870" y="477.5" width="100" height="40" as="geometry" />
        </mxCell>
        <mxCell id="RZCP1eC1JpLQxB95aDeo-69" value="" style="shape=image;verticalLabelPosition=bottom;labelBackgroundColor=default;verticalAlign=top;aspect=fixed;imageAspect=0;image=data:image/png,iVBORw0KGgoAAAANSUhEUgAAAOEAAADhCAMAAAAJbSJIAAAA+VBMVEUAAABBcsr///9ojtUmRH46Z8FCdM4kQHFrktpAcMYwVZYLFCRScKhAV4Jsk90bJjnx8fEeHh6i9cMrTIc3YawZK0weNFwbL1gjPnMRHzviebM5ZsA7aLg1XaWaUnrpfbknNVCp/8wQHTOK0aZnN1IUJEQJDhopPzKEx55up4VLclqU37I6WEYrTZDOb6NMes3o6Oh5eXkoR30FCRByltjZ2dlBQUEbL1mxsbGdnZ0YITErKysaLVDNzc0hOmaDg4N6uZMgMSeDRmcyWKU1NTVjY2O9vb1bim4XIxxAIjMNFytVVVU1Xa9XL0U0R2thhMYkExw8WZAjMEiQOwksAAAKDUlEQVR4nO2d6WLTOBSF6xbs2IEuOA7N4AANJAxTYGgy3Wiasg+UpQPv/zCTxJYs2deOJd1ETqLzr71Z9EW2rOVcaWMzR8dXFxvLo4ur4zyQDfjfu0e6yyyso10hwhPd5ZXQiQjhJ92lldJRecJL3WWVFHgvgoTLdxNGAisRJIzvwqFTde3HGkYFBu9EiHB3b/r6wK68bhN1pyXeg5rTAsKmbVVdDwjhfUNoCKsqQyhCyLZg2W9CCYoKldC2Q88naqdKWhi0bJcJWgVBQXnh+JvQCO1GwHYdeh5Xu2GT61j4XNAdccE+y2i7TsnOCqigYWMR2l76wx2mehvpIFv3YT0V7LoJodtRARzLu41DaIfZz04qys0GGf404LgrmFwZXUXAjY3vSIQB8NkhKeYICDbIO/tAsE2CmStDXF0UQqgKk0oMB0CQVmK2CpNKtFvqhLQS1QjB3zouZ/YunKhV9Ntck8u7h0D4EoXQjz7s7WGkd9O/unGwHQWfx8Fn0786PP77V5F+TP/quRx+a19Kp9G7b2ESPjm4N9UziPDPKHjwAiJ8+OiPiR49hQi7t6S0Pw/Ce0WE9xZM6BhCQ2gIV5Lw8CASSPgkDuYQRoIJfRlAH7UtBZ/4QZknPhisx31vsDckKpwnPljOflG3hfRowW5Li/TaVEcWE33AGT1dAx9NO9dQt5x2rqFuOenRgt1yQV0jjS2AyzQZOwI13KJBoIbrydBKnfAlDqFlZ4biHVpK2hAl6iWDXNIQMQqZmQNVQAdpBJylGLnsXITH323DkA22+QFUlws21AZQPtosxmRGxR8FsZp9tpTToJcEnQY/FTUOOsM4OHRSU1G21aZBUY18F3EmykrN+lkpIQV1ziZWVYbQEBpC/aKEp5KEEq1bIpVmsqxkn/ibH6evH/ieoLhFiVD03RJ6GetWNE75CMGAhNKGoXaC2Jz9anR9Kk34WfYrBqRLijFwENfn0oTxZSoh7+9Y0Hz+vAVepDmEr2W/5E5ta6rtN5hFL6nXAoSbx3Lm0t5NBLhVu4tc+tm6yHGY5hBu7p7viX/JgFThWD/xGYq0d55jL80lnFyql7FHcedOSW0lgFu1m7LvUtBOVMDLS/gCnUU4iU71eLtWTlucSr5JQduPowIWM5QhTBW9MqoZQkNoCLULj3C7qlIjPDs6if3eg52qKl7cOTk5OhMmPJPoV+hVHmMO4TLmI8AJJTmE57pLK6Xz8oTSgyfNAnunIOGV7qJK6qo04bf4HfVlUVzeb2UJd6Phb2sR84FqorOJ0Yr5hZkRXmLC1Z/VN4SGcCragEFfhRAUFDahbYeNWKGVSYux3VLBRmFQUJOUGcScGbfPmtCanBnDtnx2Cn/Y4O0WHmvuCtp8sK1gNxn0XbycmTDt+2LSgmw3Xco+Q+EOU0GHvTAgU5iA6iGWYwgw4CV1ARjwEn47DcjyqwJubPSQ6hAqyYAWE1pGo2tskHGTXOKAI0xYpziEoMGS1BNosCT1BBosR0WuRlHh5MyAv3Wh+ZQYiMHfpkN+G4wlRtScmX+fR/rCQbT54DsWguA/fRjp6/SvlAv6+r6U4rw35JyZqWAnu4LPW87JbnJmDKEhNIRLSlilnJm5tKUv/ooU/RXwhCT4BSL8+jTSfywhyZnptaQUjwVwnvhgn2ZU1KcJbA6CF+nTgIkqosLJmQG7njQtBup60rQYqOu5X5RQIyg6uFAcWwDDhyQtBhg+9IoSapKBB9hrFRO5DZVHwNmqYDJfslWRjPKBH4cZWSpvORBgjYAtN2UW7XCZL6mcoTo7U5FGHLCbhqgiNi00wnFr00wajcBLZb40Rsmd2vJdPhg6ySip008H+9LNzaDZRs2ZAWbyMIJqZnAzI2wIDWEVtEaEK7tCKv08jNbx66HlLljc48S2Z77+QawP0TO39Do+9WIsXk4C6Ir3zEt7MXRaoka0Mywx9ACtbSDhLn7JS4umuku8F2LJ8bVp3Cr5HyLxt14KEOozX+5QA7BwXlGO/TLPX3qsqbWhWTe1O2Jv/JS37Xy+R/j12Xnc4ry5uzDdJJby2s3sl8f1fH5+lp80g5ozoy7eqD5LJmfGEBpC/TKE5QkX15aKSbEt1fI8FJTK81BXn0Za3wT7NMuXFCTYL13OY1gExhY6x4cqKk+4nGlPOYlPFZunUZNozky9sfC5NlHJzrWtwXzp0hCu/pz3Gq1bGEJDOLd1fKVlfNR1fM6L0fXxvBiOkhcDb4dWIT9Nbwn9NKieKCahpjKeKMjXRg2GK+FrW3lv4ur7S9fAI7w2Pu818OobQkNoCPUTrnz+4QrnkK58HvDq53KvQT7+6u+pMGtfjPSBqQvbF+MabV+M+e1t4lVkb5NJWZj9aTJTZmX3pynevEbr/jRxaeAZQayg8FSiZWaEDaEhrILWiFB0hVRk70vm+2SbRXnRJ77g3pcC+5d2+sxRgI3h/HcqhRWXt3zOjMgetAHt2ykfZ6is8n4aoX2E6fy+jtOBeJXfR1jIFPWLHJ7ze24lLymBvaCF9vOmh+cs+NyVjIT28xawXyYW6Zt5Fn+2BPdk3yy5r/7vX4zr+ubn4nbUj6Syr34cnarobATO5F5b2KEIsR5HBSxmKEO4+l59Q6hLhtAQJoQrmjMjce7awqVy7prU2XkaJXx2nuT5hzoldv7hch7DInKGpfQ5pFolcA6p9FmymlX+LFnp84A1q/x5wLJnOi9csmc6S5/LvXChrR9WViZnxhAaQv3CJOSasPQXIQUFhUpou/4oiNXsh6kFftdLgk6Dx7AtbzSMg0OnnQ62HRIU1WiSnIN3ko7Pm+5HbHKP7fEGtSGXUNPmrThdLthQMJtsTJIe0BxDTvqzO0wx/XSwxyy4ZZ1dTLaN8mKVg/TEh9xpzaI1tWSjaMD0V08qURUwsSaq1iGU+kGcT3ba8zURXXCDbF00oQby/AnqGoUQvpj6RRbSwnwiUsOgNVNUODkzYIpZUITfKgrW+ZwZNaHmzBxWKWfGNzkzhtAQGsIlJTwoIjxYMOE82tK3h5HeQYTP4+AziPD9q0g/IMLWvpROMQnBJ/6wzBMf7PBcWwUdHlHhPPHBcpLepQv1TGjKAZT4MyS9NrWhUySknBkofYemxUCda5oWA3WuabdcecOB8b2CNHoCKpFU4bgSs0EmayRbiUMaRKjE7ziEwDh2lDBk70R29iNMI3aT4bHlqo4u2kgj4ElBuQu1x27fMQ5ytsuBzwVTe8f32W1RbDczeSCiIETMmbHt0POJUnNNk8SXJNjOpMWwQasgKChvkjQzr9lEKyOUoNbZxKrKEBpCQ6hfioSBQju3INEnfleMcDP2dw+dqouMpeJs4xMIBiQUyEWolMB8BJDwWHdRJQU622DX13JWIpxSkuNNPNFdWgmBd2G+v3T5ajEnKSjfI3x8tUwW04urvE3nN/8HiTETcsgVhtwAAAAASUVORK5CYII=;" parent="1" vertex="1">
          <mxGeometry x="1140" y="400" width="55" height="55" as="geometry" />
        </mxCell>
        <mxCell id="RZCP1eC1JpLQxB95aDeo-77" value="File, GITLAB, AND DATABASE, Automation, Testing Server" style="text;html=1;align=center;verticalAlign=middle;whiteSpace=wrap;rounded=0;" parent="1" vertex="1">
          <mxGeometry x="1098.75" y="460" width="137.5" height="62.5" as="geometry" />
        </mxCell>
        <mxCell id="RZCP1eC1JpLQxB95aDeo-116" value="" style="shape=image;verticalLabelPosition=bottom;labelBackgroundColor=default;verticalAlign=top;aspect=fixed;imageAspect=0;image=data:image/png,iVBORw0KGgoAAAANSUhEUgAAAOEAAADhCAMAAAAJbSJIAAAA+VBMVEUAAABBcsr///9ojtUmRH46Z8FCdM4kQHFrktpAcMYwVZYLFCRScKhAV4Jsk90bJjnx8fEeHh6i9cMrTIc3YawZK0weNFwbL1gjPnMRHzviebM5ZsA7aLg1XaWaUnrpfbknNVCp/8wQHTOK0aZnN1IUJEQJDhopPzKEx55up4VLclqU37I6WEYrTZDOb6NMes3o6Oh5eXkoR30FCRByltjZ2dlBQUEbL1mxsbGdnZ0YITErKysaLVDNzc0hOmaDg4N6uZMgMSeDRmcyWKU1NTVjY2O9vb1bim4XIxxAIjMNFytVVVU1Xa9XL0U0R2thhMYkExw8WZAjMEiQOwksAAAKDUlEQVR4nO2d6WLTOBSF6xbs2IEuOA7N4AANJAxTYGgy3Wiasg+UpQPv/zCTxJYs2deOJd1ETqLzr71Z9EW2rOVcaWMzR8dXFxvLo4ur4zyQDfjfu0e6yyyso10hwhPd5ZXQiQjhJ92lldJRecJL3WWVFHgvgoTLdxNGAisRJIzvwqFTde3HGkYFBu9EiHB3b/r6wK68bhN1pyXeg5rTAsKmbVVdDwjhfUNoCKsqQyhCyLZg2W9CCYoKldC2Q88naqdKWhi0bJcJWgVBQXnh+JvQCO1GwHYdeh5Xu2GT61j4XNAdccE+y2i7TsnOCqigYWMR2l76wx2mehvpIFv3YT0V7LoJodtRARzLu41DaIfZz04qys0GGf404LgrmFwZXUXAjY3vSIQB8NkhKeYICDbIO/tAsE2CmStDXF0UQqgKk0oMB0CQVmK2CpNKtFvqhLQS1QjB3zouZ/YunKhV9Ntck8u7h0D4EoXQjz7s7WGkd9O/unGwHQWfx8Fn0786PP77V5F+TP/quRx+a19Kp9G7b2ESPjm4N9UziPDPKHjwAiJ8+OiPiR49hQi7t6S0Pw/Ce0WE9xZM6BhCQ2gIV5Lw8CASSPgkDuYQRoIJfRlAH7UtBZ/4QZknPhisx31vsDckKpwnPljOflG3hfRowW5Li/TaVEcWE33AGT1dAx9NO9dQt5x2rqFuOenRgt1yQV0jjS2AyzQZOwI13KJBoIbrydBKnfAlDqFlZ4biHVpK2hAl6iWDXNIQMQqZmQNVQAdpBJylGLnsXITH323DkA22+QFUlws21AZQPtosxmRGxR8FsZp9tpTToJcEnQY/FTUOOsM4OHRSU1G21aZBUY18F3EmykrN+lkpIQV1ziZWVYbQEBpC/aKEp5KEEq1bIpVmsqxkn/ibH6evH/ieoLhFiVD03RJ6GetWNE75CMGAhNKGoXaC2Jz9anR9Kk34WfYrBqRLijFwENfn0oTxZSoh7+9Y0Hz+vAVepDmEr2W/5E5ta6rtN5hFL6nXAoSbx3Lm0t5NBLhVu4tc+tm6yHGY5hBu7p7viX/JgFThWD/xGYq0d55jL80lnFyql7FHcedOSW0lgFu1m7LvUtBOVMDLS/gCnUU4iU71eLtWTlucSr5JQduPowIWM5QhTBW9MqoZQkNoCLULj3C7qlIjPDs6if3eg52qKl7cOTk5OhMmPJPoV+hVHmMO4TLmI8AJJTmE57pLK6Xz8oTSgyfNAnunIOGV7qJK6qo04bf4HfVlUVzeb2UJd6Phb2sR84FqorOJ0Yr5hZkRXmLC1Z/VN4SGcCragEFfhRAUFDahbYeNWKGVSYux3VLBRmFQUJOUGcScGbfPmtCanBnDtnx2Cn/Y4O0WHmvuCtp8sK1gNxn0XbycmTDt+2LSgmw3Xco+Q+EOU0GHvTAgU5iA6iGWYwgw4CV1ARjwEn47DcjyqwJubPSQ6hAqyYAWE1pGo2tskHGTXOKAI0xYpziEoMGS1BNosCT1BBosR0WuRlHh5MyAv3Wh+ZQYiMHfpkN+G4wlRtScmX+fR/rCQbT54DsWguA/fRjp6/SvlAv6+r6U4rw35JyZqWAnu4LPW87JbnJmDKEhNIRLSlilnJm5tKUv/ooU/RXwhCT4BSL8+jTSfywhyZnptaQUjwVwnvhgn2ZU1KcJbA6CF+nTgIkqosLJmQG7njQtBup60rQYqOu5X5RQIyg6uFAcWwDDhyQtBhg+9IoSapKBB9hrFRO5DZVHwNmqYDJfslWRjPKBH4cZWSpvORBgjYAtN2UW7XCZL6mcoTo7U5FGHLCbhqgiNi00wnFr00wajcBLZb40Rsmd2vJdPhg6ySip008H+9LNzaDZRs2ZAWbyMIJqZnAzI2wIDWEVtEaEK7tCKv08jNbx66HlLljc48S2Z77+QawP0TO39Do+9WIsXk4C6Ir3zEt7MXRaoka0Mywx9ACtbSDhLn7JS4umuku8F2LJ8bVp3Cr5HyLxt14KEOozX+5QA7BwXlGO/TLPX3qsqbWhWTe1O2Jv/JS37Xy+R/j12Xnc4ry5uzDdJJby2s3sl8f1fH5+lp80g5ozoy7eqD5LJmfGEBpC/TKE5QkX15aKSbEt1fI8FJTK81BXn0Za3wT7NMuXFCTYL13OY1gExhY6x4cqKk+4nGlPOYlPFZunUZNozky9sfC5NlHJzrWtwXzp0hCu/pz3Gq1bGEJDOLd1fKVlfNR1fM6L0fXxvBiOkhcDb4dWIT9Nbwn9NKieKCahpjKeKMjXRg2GK+FrW3lv4ur7S9fAI7w2Pu818OobQkNoCPUTrnz+4QrnkK58HvDq53KvQT7+6u+pMGtfjPSBqQvbF+MabV+M+e1t4lVkb5NJWZj9aTJTZmX3pynevEbr/jRxaeAZQayg8FSiZWaEDaEhrILWiFB0hVRk70vm+2SbRXnRJ77g3pcC+5d2+sxRgI3h/HcqhRWXt3zOjMgetAHt2ykfZ6is8n4aoX2E6fy+jtOBeJXfR1jIFPWLHJ7ze24lLymBvaCF9vOmh+cs+NyVjIT28xawXyYW6Zt5Fn+2BPdk3yy5r/7vX4zr+ubn4nbUj6Syr34cnarobATO5F5b2KEIsR5HBSxmKEO4+l59Q6hLhtAQJoQrmjMjce7awqVy7prU2XkaJXx2nuT5hzoldv7hch7DInKGpfQ5pFolcA6p9FmymlX+LFnp84A1q/x5wLJnOi9csmc6S5/LvXChrR9WViZnxhAaQv3CJOSasPQXIQUFhUpou/4oiNXsh6kFftdLgk6Dx7AtbzSMg0OnnQ62HRIU1WiSnIN3ko7Pm+5HbHKP7fEGtSGXUNPmrThdLthQMJtsTJIe0BxDTvqzO0wx/XSwxyy4ZZ1dTLaN8mKVg/TEh9xpzaI1tWSjaMD0V08qURUwsSaq1iGU+kGcT3ba8zURXXCDbF00oQby/AnqGoUQvpj6RRbSwnwiUsOgNVNUODkzYIpZUITfKgrW+ZwZNaHmzBxWKWfGNzkzhtAQGsIlJTwoIjxYMOE82tK3h5HeQYTP4+AziPD9q0g/IMLWvpROMQnBJ/6wzBMf7PBcWwUdHlHhPPHBcpLepQv1TGjKAZT4MyS9NrWhUySknBkofYemxUCda5oWA3WuabdcecOB8b2CNHoCKpFU4bgSs0EmayRbiUMaRKjE7ziEwDh2lDBk70R29iNMI3aT4bHlqo4u2kgj4ElBuQu1x27fMQ5ytsuBzwVTe8f32W1RbDczeSCiIETMmbHt0POJUnNNk8SXJNjOpMWwQasgKChvkjQzr9lEKyOUoNbZxKrKEBpCQ6hfioSBQju3INEnfleMcDP2dw+dqouMpeJs4xMIBiQUyEWolMB8BJDwWHdRJQU622DX13JWIpxSkuNNPNFdWgmBd2G+v3T5ajEnKSjfI3x8tUwW04urvE3nN/8HiTETcsgVhtwAAAAASUVORK5CYII=;" parent="1" vertex="1">
          <mxGeometry x="1007.5" y="510" width="60" height="60" as="geometry" />
        </mxCell>
        <mxCell id="RZCP1eC1JpLQxB95aDeo-117" value="Domain Controller" style="text;html=1;align=center;verticalAlign=middle;whiteSpace=wrap;rounded=0;" parent="1" vertex="1">
          <mxGeometry x="1007.5" y="590" width="60" height="30" as="geometry" />
        </mxCell>
        <mxCell id="RZCP1eC1JpLQxB95aDeo-118" value="" style="shape=image;verticalLabelPosition=bottom;labelBackgroundColor=default;verticalAlign=top;aspect=fixed;imageAspect=0;image=data:image/png,iVBORw0KGgoAAAANSUhEUgAAAgAAAAIACAYAAAD0eNT6AAAABHNCSVQICAgIfAhkiAAAAAlwSFlzAAAOxAAADsQBlSsOGwAAABl0RVh0U29mdHdhcmUAd3d3Lmlua3NjYXBlLm9yZ5vuPBoAACAASURBVHic7d15nFxlne/x71NVvXc6GwlJCCGbkB0wsqkIIihEo+gYERQMOpfRcXTG61W8OtfBccZxttc44ziLCmYGECWOKBjCpqAoKiIQQgiQhISsnXSn1+qu5SzP/aO6lSUktZyqU6fO5/16+YdSdeqrplPffp7n/I4EAAAAAAAAAAAAAAAAAAAAAAAAAAAAAAAAAAAAAAAAAAAAAAAAAAAAAAAAAAAAAAAAAAAAAAAAAAAAAAAAAAAAAAAAAAAAAAAAAAAAAAAAAAAAAAAAAAAAAAAAAAAAAAAAAAAAAAAAAAAAAAAAAAAAAAAAAAAAAAAAAAAAAAAAAAAAAAAAAAAAAAAAAAAAAAAAAAAAAAAAAAAAAAAAAAAAAAAAAAAAAAAAAAAAAAAAAAAAAAAAAAAAAAAAAAAAAAAAAAAAAAAAAAAAAAAAAAAAAAAAAAAAAAAAAAAAAAAAAAAAAAAAAAAAAAAAAAAAAAAAAAAAAAAAAAAAAAAA4EVMzT7puusSSx/etcIYs8xY/xTZxHQZ2ympqWYZAESX1ag1GjHWPi+ZZ1NNiYcfu/2G/WHHCtqKN1/ZoWTqLEmnWNmTlVCHrCaFnQtV4ciatIx/yJrEM9aYzVteM2ezrrvOr8WHV7UArFx5TZMzPX+xNeb9kr1Q0pRqfh6A2HnWSj800o2b71y3Oeww5Vq5+prjcn7+csm+x1hzlvjFKL6sDhuj+3yZm1oONt39299+3anWR1WlAKxcfU274+avscZ+UjKzq/EZAPASP5VJ/NXmDTfcF3aQYq1YfeU86yWvlbRWUkvIcVB/9ljZf5jQMfqNX65fnwn64oEXgOWXrL3UGH3FSicFfW0AKMIGmcTHN2+44bmwg7ySc9asaUuPtH9WMp8SX/w4tl3G2D99YsN/3R7kRQMrAOesWdOWHu34Z1n9r6CuCQBlysjqTzdvXPeNsIO81PLVaxfJ062SloedBdFipBvleh954p4bRwK6XuVOe9vaVzmuc1ci0TQ/iOsBQCCsvrr5rLl/VqtDVcey4pK1q63RdyS1h50FkbUplUqsCuIAbMUFYOlFV5zmuvlfWd9vSTY1KdXcVuklASAwRvruKR0j71u/fr0XZo5lb736/cb635JMKswcaAi7ZBJvqnSbK1HJm5e9+eoTXdf5pfX9FknyHEf5TFrWD/XnDAB+x0qXPTPS8S3V8rbnl1hxydrVfPkjQHNl/XuWrlo7o5KLJMt949Kla5q9dme79b0JL/oH1spzXclIiSR/1gHUhVOnLzx1+ND2Tb+s+Qe/5QNLbcLcLRkO+yFIU2Ts2UtOeOeNu3Y9UNYWV9krAP7M5J2+577Cff1WXj43thpQF1tvAGLOGPM3p77tqjNr+ZnnrFnT5ifNrWLPH1VgrHl9X/vOvyz3/WUVgCVvueIdvuu86Vivs74vJ5uW5+TL+RgACFKT75vrV668pmZDdobTnZ+TtKRWn4f4sTKfXrpq7WnlvLesAuA77vXW2qJea63k5rNyMiOyltUAAGEyy/LTnT+qxSetWH3lPGPs/6nFZyHWkgnpn8t5Y8kFYOlF7/uo77lTS32f73tyRkfku1WbaggAx2bsZ+eev7a12h9j3dRnxJAf1MYblr1t7fmlvqnkAuD5+c+V+p5xVlZOLiM3O8pqAICwzJzQrvdW8wNWrr7mOBn7gWp+BvBCxupTpb6npAKw4s2XLfNdf2apH/JSnucqnxmR77EaAKD2jMxV1bx+zstdIX77Ry1Z++ZSbwssqQDkff1fqbi9/2OyVk42IyeXKRwUAIAasbLnVXoP9VEZranatYEjMqmE7B+U8o6SCoD1/fNKC3RsvusUVgN8N+hLA8ArSSSNzq/GhVeuvqbdWFPT2w0BSbIybyzl9aUVAK/y5f8jXtf6cjOjcvNZBbbCAABHYa1eX43rZv3sWZKaq3Ft4GiMSvszXXQBWHbJZQskW9Ho4KOxkjwnX7hTgOFBAKrNaFE1LptUYnE1rgsU4filb/nQKwzoe7miv9B9J/GG8vKUxrdjw4PyOdYCAFSNsVpYjetaqwXVuC5QFOMV/eev+AJgTVWW/4/ISq6Tk5sZYZQwgKqw0qRqXNdIE6txXaAYJlH8n+uin9Zjja3KD8sL+S3tGlqwUk7ni+cMJWXVPtrD8QAgBozvqXm4X60DB6t9h1BnxK4LHJvRhGO/qKDoApCQTVXtIb+JlPa+5cManTpPsq/wxM6UkdpTFT7AGEBUtAz2atbDP1Lnvm3V+oiyn4Z6NJa/pRAiU8Kf6/D/oCYSeu5dn9PolPmv/OUvSa6V0o6UZxkAiIPcxOO068KrNDh3edhRgIYUegE4ePYfyG0pcsvMlzTqSqMe2wFADFiT0L7XvlNuC0/TBYIWegEYPunVpb8p70vDTmFVAEBD85pbNDh/RdgxgIYTegHwk2XOy/AlpcdWAwA0tMyUWWFHABpO6AXgqPv+xcj70pDLagDQwPwmnqsDBC38AhAE30ojrpRhNQAAgGI0RgGQCocCc7407EoeqwEAABxN4xSAcZ4tlIAcEwQBAHgljVcAxmW8QhGgBwAA8DKNWwCk368G5GkBAAC8UGMXAKkwS3zUk0YYHgQAwLjGLwDjnLEDgg6rAQAAxKcASGO3C3pjo4RZDgAAxFe8CsC4vC8NewwPAgDEVtGPA244vi2MEm5JSK1JqcKBhABQb4wxmj1jmiZOaFcyEc/f96rJcVx19w6ob3Ao7ChliW8BGJfzCysB7UkpSQsA0BjOXHGyVp13liZ0tIUdpeHt2ndQ6zf+TN29/WFHKQmVUPr97YJZRgkDiL7zzlyhy1adz5d/jcw94Xh97Mp36Pipk8OOUhIKwAtlx+4U8DkbACCaJnV16q3nnRF2jNhpbWnWu97yurBjlIQC8FKMEgYQYactXqBkMhl2jFhaOGeWJnV1hh2jaBSAI7EqjBIe8RglDCBSZh4XrWXoRjNj2pSwIxSNAnA0ji8NOwwPAhAdnGUOV4RmzFAAjsVqbHiQyyhhAHWv+1Bf2BFi7UBPdP73pwAUKz92NsChBQCoX49u3SHXY9UyDM/u2qfB4ZGwYxSNAlAK30ojbmGUMADUocHhEf3o/l+FHSN2Mtmcvn/vz8OOURIGAZUj/4LhQSk23ADUlwcfeVKZbE5vPf8sdXW2hx2n4T2354D+5+6fq+fwYNhRSkIBKNf4akBzQmrjlhsA9eWRJ7fpt1u2a9b0qZrc1cGtgVWQc1wd7OlT/1A67ChloQBUwopRwgDqlrVW+w72at/B3rCjoA5xBiAIDA8CAEQMBSBIGW9slHDYQQAAODoKQNDGVwPytAAAQP2iAFSDtYVbBdOsBgAA6hMFoJpcWygBjBIGANQZCkC1+XZslLAXqRnRAIDGRgGolbwvDXuFVQEAAEJGAaglf2xLIOPxYCEAQKgoAGHI+YUi4NECAADhYBJgWMZvF2xNSK2M6AQQrEldnXrT2adp8YIT1dXZoWSS3/eClnccdfcO6NEt2/TQY1vledF6UBwFIGxZv/CI4Y6klGCUMIDKzZk5TddctkptrS1hR2lozU1NmjNzmubMnKYVp8zT12/dKMdxw45VNCphPWCUMICANKWSuvLSi/jyr7H5J87UqjecEXaMklAA6oVV4XDgiMfwIABlW3HKPE2Z2Bl2jFg65/QlammOzsI6BaDeOL407DA8CEBZ5s6eEXaE2GpKJTV7xrSwYxSNAlCPrMaGB7ncLgigJK3NTWFHiLXW5uhsvVAA6ll+7GyAQwsAUJyB4dGwI8TawPBw2BGKRgGod76VRtzCKGEAOIantj8fdoTY6htMa/+hvrBjFI0CEBV5XxpyGSUM4Kh27u3Wlu27wo4RSxse+LVshJ75QgGIkvHVgAyrAQBe2c2336+ntu8OO0ZsuJ6vH9z3kB7fuiPsKCWJzv0KKLAqzAtwrdSelJIMDwLwYrm8o+u/d5cWzJmpRfPnaFJXh5IJft8LWt5xdLCnX5ueeU59g+mw45SMAhBV48OD2pJSCz/YAF5ux+4D2rH7QNgxUKf45oi6jFcoAowNAACUgALQCMZXA/K0AABAcSgAjcLawq2CaVYDAADHRgFoNK4tlABGCQMAjoIC0Ih8OzZK2CusDAAA8BIUgEaW96Vhj+FBAICXoQA0On9sSyDj8WAhAMDvUADiIucXioBHCwAAUADiZfx2wSyjhAEg7igAcZT1x4YHsRoAAHFFAYir8dWAHLcLAkAcUQDizKpwOHDEY3gQAMQMBQCFoUHDDsODACBGKAAosBobHuRyuyAAxAAFAC+WHzsb4NACAKCRUQDwcr6VRtzCKGEAQEOiAOCV5X1pyGWUMAA0IAoAjm58NSDDagAANBIKAI7NqjAvYJhRwgDQKCgAKB7DgwCgYaTCDoAIyniF8wEdKSokUKcmdXXqTWefpsULTlRXZ4eSSX5Yg5Z3HHX3DujRLdv00GNb5XnR2iqlAKA846sBbQmpmb9YgHoyZ+Y0XXPZKrW1toQdpaE1NzVpzsxpmjNzmlacMk9fv3WjHMcNO1bR+Jsb5bO2cKtg2mWUMFAnmlJJXXnpRXz519j8E2dq1RvOCDtGSSgAqJxrCyWAUcJA6FacMk9TJnaGHSOWzjl9iVqao7OwTgFAMHw7NkrYK6wMAAjF3Nkzwo4QW02ppGbPmBZ2jKJRABCsvC8NewwPAkLS2twUdoRYa22OztYLBQDB88e2BDIeDxYCamxgeDTsCLE2MDwcdoSiUQBQPTm/UAQYHgTUzFPbnw87Qmz1Daa1/1Bf2DGKRgFAdY3fLpiN1v2xQFTt3NutLdt3hR0jljY88GvZCJ2BogCgNrJjo4T96PxwAFF18+3366ntu8OOERuu5+sH9z2kx7fuCDtKSaJzvwKib3w1oDUptdA9gWrJ5R1d/727tGDOTC2aP0eTujqUTPAzF7S84+hgT782PfOc+gbTYccpGQUAtWVVOBzoWqktyRoUUEU7dh/Qjt0Hwo6BOsVfvwiH40vDDsODACAkFACEx2pseJDL7YIAUGMUAIQvP3Y2wKEFAECtUABQH3wrjbiFUcIAgKqjAKC+5H1pyGWUMABUGQUA9Wd8NSDDagAAVAsFAPXJqjBKeJhRwgBQDRQA1Lfx4UE5bhcEgCBRABANGW9slHDYQQCgMTAJENExvhrQlpCa6a7AsSycM0uLF5yorgmMAq6GvOPo4OFBPb51h/oHo/MY4HEUAESLtYVbBfO+1J5iDQs4gtaWZl359gu0aMGcsKPEwiXnrtSGn/5GP334ibCjlIS/PhFNrpXSLqOEgSN432q+/GspmUzq7RecrVcvWRh2lJJQABBdvh0bJewVVgYAaN7sGVqykC//MKw6/0wZY8KOUTQKAKIv70vDHsODAElLFp4UdoTYmtzVqVnTp4Ydo2gUADQGf2xLIOPxYCHE2qSujrAjxNqkCZ1hRygaBQCNJecXigDDgxBT2Ww+7Aixls3nwo5QNAoAGs/47YJZRgkjfnbu7Q47Qmw5rqu93T1hxygaBQCNKzs2SthnNQDx8cQzz0XynvRG8NCjTymXd8OOUTQKABobo4QRM67na91t92kkmw07Sqxs371fG3/2SNgxSsIgIDQ+q8LhQNdKbUlqLxre3u4e/eP1/6MLzj5NixfM0aQJ7Uomk2HHajh5x1F3T79+u2Wbfvn4VnletH7RoAAgPhxfcn2pPSk10QLQ2AaHR3Tbvb/Qbff+IuwoqFP8LYh4sRobHuRyuyCAWKMAIJ7yY2cDHFoAgHiiACC+fCuNuIVRwgAQMxQAIO9LQy6jhAHECgUAkH6/GpBhNQBAPFAAgHFWhXkBw4wSBtD4KADASzE8CEAMUACAV5LxxkYJhx0EAIJHAQCOZnw1IE8LANBYKADAsVhbuFUwzWoAgMZBAQCK5dpCCXBoAQCijwIAlMK3Y6OEvcLKAABEFAUAKEfel4Y9hgcBiCwKAFAuf2xLIOPxYCEAkUMBACqV8wtFgOFBACKEAgAEYfx2wSyjhAFEAwUACFJ2bJSwz2oAgPpGAQCCxihhABFAAQCqwapwOHDEY3gQgLpEAQCqyfGlYYfhQQDqDgUAqDarseFBLrcLAqgbFACgVvJjZwMcWgCA8FEAgFryrTTiFkYJA0CIKABAGPK+NOQyShhAaCgAQFjGVwMyrAYAqD0KABAmq8K8gGFGCQOoLQoAUA8YHgSgxigAQD3JeGOjhMMOAqDRUQCAejO+GpCnBQCoHgoAUI+sLdwqmGY1AEB1UACAeubaQglglDCAgFEAgHrn27FRwl5hZQAAAkABAKIi70vDHsODAASCAgBEiT+2JZDxeLAQgIpQAIAoyvmFIsDwIABlogAAUTV+u2CWUcIASkcBAKIuOzZK2Gc1AEDxKABAI2CUMIASUQCARmFVOBw44jE8CMAxUQCARuP40rDD8CAAR0UBABqR1djwIJfbBQEcEQUAaGT5sbMBDi0AwItRAIBG51tpxC2MEgaAMRQAIC7yvjTkMkoYgCQKABAv46sBGVYDgLijAABxY1WYFzDMKGEgzigAQFwxPAiINQoAEHcZb2yUcNhBANQSBQDA71cD8rQAIC4oAAAKrC3cKphmNQCIAwoAgBdzbaEEMEoYaGgUAAAv59uxUcJeYWUAQMOhAAB4ZXlfGvYYHgQ0IAoAgKPzx7YEMh4PFgIaCAUAQHFyfqEIMDwIaAgUAADFG79dMMsoYSDqKAAASpcdGyXssxoARBUFAEB5GCUMRBoFAED5rAqHA0c8hgcBEUMBAFA5x5eGHYYHARFCAQAQDKux4UEutwsCEUABABCs/NjZAIcWANQzCgCA4PlWGnELo4QB1KXwC4DhtwSgYeV9aciteJRwwskGFAjAuNALQMLNhR0BQDWNrwZUMDyore9AgIEASHVQALqefzTsCACqzars4UHJfE6TnnuiOrmAGAu9AEz/9ffVlB0IOwaAWvjd8KDiVgOM9XXCQ/+jZG60ysGA+Am9AMj3Ne+2L6m9d3vYSQDUgpWUGXuw0FFWA1oGezT3nnWauGtL7bIBMZIq9oW+jFu1FL6r2Xf/m/yWNg3NXylnwnFV+ygA9SPh5dU2cliJZPJ3/5nxPTWn+9Xa113tj+cWBcRa0QUgIX+w2j8tiVxGk7b+vMqfAqDeJJIpNbW0ScbU8mOHa/lhQL0pfgvAmqrXcQDx5Huu8pkReV71FhqPgMNHiLWiC4BtyT1YzSAA4s1aX252VE4uI2trMR/EcvAIsVZ0AXj6ztueVcLwpA8AVeW7jpxsWr5X5U1Ho6er+wFAfSvpLoCEEgerFQQAxlnfysmOyM1nVa0nC1k/wYEjxFpJBcAYfmAA1I7n5JXPjMr6ga8G+GpKPhD0RYEoKa0A2MQXqhUEAI7E+p7ymVG5Ti7ItYAHnrz9m6xoItZKKgBP3X/LlkQyeahaYQDgyKy8fE5OdkTWVn4UyRjz3wGEAiKt9EmAicQXq5ADAI7Jep6cTFqek6/kKnu99vQtgYUCIqrkAvD0fd/9V5NMcv8sgFBYK7n5rJzsaOHflMgY8zdb1q+vpEEADaGsZwEkTOrqoIMAQCkKw4PS8l2nlLdtnjIy9+vVygRESVkFYOuPb/lBMpXijgAAobLWysll5OYyxawG5K0SH3zggetqOm4QqFdlPw3QaT7+QpNMDgYZBgDK4bmO8pkR+UcZJWysrn3yzhseqWEsoK6VXQC2b/xqrqklsdIkErkgAwFAOaz15WRH5eYzR/iH5utPbFz3ldqnAupX2QVAkp7c+N0dSrW8yZhESZtwAFAtnuMUzgb8bniQvWVRZ/qPQw0F1KGKCoAkPXPvzb9oSja9JpFIjAYRCAAqZX1fTmZEvuv+9+Yz571//fr11X6aORA5FRcASXryx7c8kU+aWYlk0xNBXA8AKmGMscmWlr/ecs9NH9B11/EQM+AIAikAkvTcfesHn/7Jd081qdbPm0SSLQEAtWekZDK1uynZfNrWe27587DjAPUssAIw7pkff/uLnUlNSySbvmOM4XYbADVgZJKpQ6nm5g9t/cmtJz3541tYjQSOIVWNi/72vvWDki5feMnH1iZzPZ8yxv+g9f2TrO8HXjgAxJSRjElmE8b82ks2ffGZe2/+cdiRgCipSgEYt33jV3OS/mrsX4llF733Ha7VBbJ2maydbo3a5NumambAMc0OO0BEZCQdDjtEnCWMMlaJUck8r4QebU5533nirvXPhJ0LiKqqFoCX8J+89zu3Sbqthp+JYzj5vHcF+ITVxmWlDdt++v01YecAgKCwJA8AQAxRAAAAiCEKAAAAMUQBAAAghigAAADEEAUAAIAYogAAABBDFAAAAGKIAgAAQAxRAAAAiCEKAAAAMUQBAAAghigAAADEEAUAAIAYogAAABBDFAAAAGKIAgAAQAxRAAAAiCEKAAAAMUQBAAAghlJhB6iGZZd8YEFCZrWMzrXSEkkzJE0KOxci7d3LV621YYeoQ46kAUm7ZPS4kX6SSyY2PHP7DcNhB0P9M8botKWv0utXLtfyRQs0ZeIEdXa0aWBoRPsO9ug3m7bqwd9s0r7u3rCjNiQTdoAAmWWrrn6rkf2UpHPVWP/dgCgZNdItiYT+9vEfrdsWdphaW75q7a2S1oSdo96duniB/uiKS3XK/BOP+jrf93XXzx7WuvUbdXhgsEbpIszoPZs3rFtfzEsbYgVgxcUfPMUa/z8ke37YWQCo3Uof8nxdtWzV2q+kR/X5XQ+sy4YdCvXjXRe/QR95/zuVMMf+PS2RSGjV+WfrrNMW6/P/dIOe3v58DRLGQ+TPAKxYdfXlNuk9IqPzw84C4EWajPSpCe26f/Fb3j8z7DCoDx+67G366JXvKurL/4WmTpqof/rzP9GihSdVKVn8RLoALF919Ses7M2ypjPsLABe0dmpZPLhZRdftSLsIAjXG89+ta54+4Vlv7+5qUl/+YkPasrErgBTxVdkC8DyS9b+L8n+o9jrByLAzDYJs2HpqrUzwk6CcLS1NuuPr7q04utMnTRRV69ZFUAiRLIALL147Rky+lfx5Q9EiJmdkH50zpo1bWEnQe2946JzA/vN/eLzztSs448L5FpxFrkCsPCSj7UkErpJUnPYWQCUbGU63fmZsEOg9t54zqsDu1YikdC5Z54a2PXiKnIFoE1Dfyrp5LBzAChTwv/fbAXEy5SJXVowZ1ag1zzz1MWBXi+OIlUAzlmzpk3GfDLsHAAqYE2nMfbzYcdA7cyYNlWmxFP/xzJz2tRArxdHkSoAIyOdl0qaHnYOAJUx1lx1yts/OCHsHKiNSV0dgV9zykT++FQqUgXAWqZrAQ2io8mxHOWOidFM8HOg0qOZwK8ZN9EpANddl5Bh0h/QKIx0QdgZUBu9A0OBX/NwP2OBKxWZArD44T0nSpocdg4AATGWwUAxsa+7R70Bf2Fv2roj0OvFUWQKQMI488POACBQ/EzHhLVWv3x0S6DXfOi3mwO9XhxFpwDYJLMfgcYyMewAqJ3vbXxArusFcq2ndzyvTU+zAlCpyBQAI5sLOwOAQPEzHSN7DxzS7T/+ecXX8X1f/37TD2WtDSBVvEWmADieu0mSH3YOAIF5LOwAqK3//PbtFe/df+M7d+jJZ58LKFG8RaYAbL37pgOSbg87B4BgGKP/CDsDast1PX3hX76lLdt2lvxea61uvO1u3brh/ioki6fIFABJSqUSH5W0J+wcACpkdPMTG9Z9N+wYqL3BobQ++ddf0/fv+lnRZwIODwzpC/+yTuu+t7HK6eIlUgXgsdtv2J9KJc6WNbeJ7QAgioaM1ecWtY98QBKbuDHlOK6+duP39cFrv6w77vuFDh9hToC1Vs88t0f/+e0f6spPfFEPPrwphKSNLbKP0126au2MpHSaNWIeJFDnjG+ssaZ7MOs/suuBdcGPhasjy1etvVViamkpjDGadfxxmjqpSxM629U3MKz9h3o1OJQOO1r0GL1n84Z164t5aaraWaply53ruiXdFXYOAEBlrLXa192jfd09YUeJlUhtAQAAgGBQAAAAiCEKAAAAMUQBAAAghigAAADEEAUAAIAYogAAABBDFAAAAGKIAgAAQAxRAAAAiCEKAAAAMUQBAAAghigAAADEEAUAAIAYogAAABBDFAAAAGKIAgAAQAxRAAAAiCEKAAAAMZQKO0BQrLXJ/v7+E1xpjhKJGZJM2JmAODLW5mTMXieR2D2rq6s37DwAjizyBaC3d2iRl/T/sGdg4AqZxExJkg05FBBjVkayUsrzdbB/4GEjc1PSd/9r6tSpQ2FnA/B7kd0CsNY2HRoYuNZL+puM9EnJzAw7E4AXM9KZkv0XL5F4+mB//zvDzgPg9yJZAHp6eib09g8+KKsvG6k57DwAjsXMNDLf7+kf/IuwkwAoiFwB2LNnT5tNNd1hjc4KOwuA0ljZ63r6+z8Zdg4AESwALZ0TvibpvLBzACiPlfn77v7+d4SdA4i7SBWAnr7ByyVdHXYOABUxCZlv7e/vPynsIECcRaYA9AwNnWyN/c+wcwAIxOQma75rrW0KOwgQV5EoADt32lbr+bdKmhB2FgDBsEZn9fQPfjHsHEBcRaIAdEwa/DdJp4adA0DAjD7NeQAgHHVfANj3Bxoa5wGAkNT1JMCeoaGTreeXve+fzeY0MDikXN6RtX6Q0QBIMjJKNac0ccIEdXa0l3uZ8fMA5xpjnCDzAXhldVsACvv+g2Xt+1trte/AQfUe7qtCMgAv1dNzWBMndGrOibOVTJa+sPiC8wCfCT4dgCOp2y2ASvb9+fIHam9wOK2du/fI2jIfxsF5AKCm6rIAVLLvP5RO8+UPhCSdHtGh3sPlvp3zAEAN1V0BqOR+f8/3tXfvgaAjAShB96FeZbO5ct/OfACgRuqqAFR6v/+B7oPKO5whAsJkfV/P79lX9lYA8wGA2qirAlDJvn96AdyGuQAADJBJREFUZFS9h/sDTgSgHJlsVgd7esu/AOcBgKqrmwJQyb6/b6327NsfcCIAlTh4qFejmUy5b+c8AFBldVEAKp3zf6D7oHK5fJCRAFTIWqvde/bL+mXP4OA8AFBFoReAPXv2tFWy7z86mmHpH6hT2VxO3YfK3wrgPABQPaEXgJbOrrL3/a3va/fe/eXfdwyg6g71HtboaNlbAZwHAKok1EmAPX2Dl1vZteW+v/tQr7K5sm83AlAD1lrt3rtfp7xqvowx5Vxi/DzA6bMmT34+6Hz17rjJE7XwpNmaMX2Kjj9uimYcN0XTpk5UV2enUsmE2ttb1dzUpJbmJmVzeTmuq5HRjDzP12A6rUO9AzrU26/u3n4dOHRY23ftVd/gUNj/tVAHQisAlc75z2SzlQwcAVBD2VxOBw4e0qwZx5d7idg8L2DeiTN1xqmLtWThXC1eeJKOmzyx6Pe2tjSrtaVZE8aey3CCpmnJwpe/7uDhfj29/Xlt3b5Lv35sq3YfOBhUfERIKAWg0n1/a632sPQPREpPz2F1VfDQoEZ+XsCiBSfpvDNP1etes0InzDiu6p93/NTJOn7qZJ131mn68Psu1e4DB/WLRzbrp796XNt27a3656M+hFIACvv+tqx9f0k62NOr0Uw2yEgAqsxK2r13vxa9ar4SiTKPHxXOA/xyxuTJPww0XAiamlJ67auX6d2rztOShfNCzTJn5vGas/p4Xb76Qj27c482/OSXuufB3zBYrcHVvABUuu+fzeV08BBL/0AU5fN57e8+pNmzZpR7icifB2huatI7L36D3vu2C9TV2RF2nJc5ed6JOvlDJ2rtuy/Rt2+/V3fc95Ac1w07FqqgpgWg0n1/K2nP3gOytuz7igGErPdwnyZO6NSECZ3lXiKS5wESxuiic8/Q2nev0vSpk8KOc0yTJ07QR698l971lvN0w60bdP+vHmPbtcHU7DbASvf9Jam357BGRkcDTAUgDHv2H5BX/oCgyM0HWDj3BP3dZz+sT//RFZH48n+hmdOn6nN/cpX+9toPRy47jq5mBaCS+/0lKZ93dODQoQATAQhLPu/oQHeFJ88jMh/g6ndfoj9532otnj837CgVWbn8FH3zy5/RReeeEXYUBKQmBaAw57/8fX9J2r1vv3yf5SegUfQe7tdQOl3JJer6eQGtLS364p9drWULT5QktbS2hJyoch3trfrMh9+nT3zoPUqlkmHHQYWqXgAqnfMvSb19fUqnR4KKBKBO7NmzX67nVXKJunxewHFTJulLn7xa7a2FWM3NzSprBFKdetsFr9WXP/3h380bQDRVtQAEse+fdxwdOMDSP9CIHNfV/gPdFV2j3s4DnDx/9sQ//8jlL3oIUioZ6tDVqjh96av0D5/7qLom1N+dDChOVQtApfv+krRnX2WHhQDUt77+QQ0OD1d2kTo5D7Bly/NLPnrF2y/0XrKqUeYI5Lq38KQT9JXPf0xTJnaFHQVlqFoBCGLfPz0yquHhivYIAURAd3dPpZcI/TzA9u7u6X0jvb9xXfdlf6/6fkXbHHXtpFkz9KVPX6PWluawo6BEVSkAQez7S4WTwgAaXz6fD+IyoZ0H2LZtW0v33gObM9ncETfF805jD9J51dzZ+n8f/0D5Ex4RisD/3wpi33/chM52Gf5AAQ2vgqFALxLWeYD+0dzPR0cz01/pnzv5vF66LdBozj5tqT7wBxeHHQMlCPzbNYh9/3FNTU2ae+JstbC0BDQkYxKaOHGCTpw1M8CL1vY8wGNbnvns4ODQa472GivFYojZFe+4SKcvOznsGChSoCdTevoGL7fGfjvIawJAGfpd2ao/L2Dz00+vONQ/9JjnvHzf/6WmTJ6oObNPqGacunB4YEh/eO3faohbt8Nh9J7NG9atL+alga0ABLXvDwABqMl5gOGR/B3FfPlL0sDgcKUzDyJh6qQuXXP528OOgSIEUgCC3PcHgCBU+zzAo089fW16JD2n2Nf7vq/e3r5qxakrF593pk5f+qqwY+AYAikAQe77A0BgqnQeYP/+/e3Dw+m/LPV9h3p6lcsFcsdDXTPG6I/f/04lGnT+QaOouAAEcb8/AFRJVeYD7OsZ+GYuly/5dLJvrXbv3R+Lx+rOnzNLF7x2ZdgxcBQVFQD2/QFEQKDnAR7ZsWNieiT9nnLfPzI6qr37DwQRpe6tffclSia5lbuWrFT0QZOy/59h3x9AVAR6HmA0/zXHdSt6FN7hvgHt2XdAjb4OMHP6VJ1/1ulhx4gXq6LnapddANj3BxApAZwHsNYmRkZG1gQR53Bfv3bt2iPPbew7A967+k0N+yyEemR9DRT72rIKAPv+ACKo4vMAj2195lO5fOl7/69kcHhYT297Tv0Dg0Fdsu7MnzNLSxbODTtGfNjkjmJfWnIB6O0dWmSN/Uap7wOAOjA5Jd1srS1rCT+TyX4k6ECO6+j5Pfv09LM7dLivvyFXBC58PYcBa+TglruvL/pe05IeUm2tTTy76/nbjEnwAGgAUfW6oYGhL0m6tpQ3PfT44yekh0ar9rTBbC6nPfsOaO/+brW1tamttUWtrc1KJlJKJKK9hH7G8lPU0d6mkdFM2FEam7EPlvLykgrAU9u3f3rfgZ5FpSUCgPrS0tz0yZ07d/7NvHnzit4vbTbNfyFVf56/tVajo6MabbBnB6x+49n6zob7w47R0Iyf+Ekpry9pCyCdzn68tDgAUH9yeSeZzjnXlfKerJO7tEpxYuH0xQvCjtDgrOsZe1sp7yi6AGw7fLhreHQ0wEd2AUB4RrPZou8IeOSRR5qymey0auZpdC3NJS04o0RGumvLneu6S3lP0QUg29N3sR+DB1kAiIdczplV7GtTHR0X+DGY3ldNnu/rpFnTw47RsKz096W+p+gC4PkeD3kG0DA8zyt6MqC15jXVzBIXC+fODjtCY7J6YPOd//WzUt9WdAEwxlQ0+QoA6kkp8/h9axv3Rv0aGslkw47QgKzrJxN/Vs47iy8AqdT2cj4AAOpRIplwi31tyioew/urbGAoHXaERvTlLT+6YVM5byy6ACTz2Y2McwTQKJpTTQeLfe20KRM3JpMJDgFUIJlIatvOvWHHaDQ/mzo67wvlvrnoArB06dK+ttaWw+V+EADUk+aW5ruLfe2sWbNG21ra9lUzT6NLj2bl+X7YMRrJDptKveeBB64reiXrpUqaA9Da1vrNcj8IAOpFMpm0k9qaP1vKe1qbUzdUK08cPPCbslapcWQ7TdK76Mnbv1n0KtaRlFQAVi5d/Nm21tahSj4QAMLW1dlxx8KFCw+V8p7Tly+5rrWttb9amRqZ6/u67xePhh2jQZjHXM993RN33Liz0iuVVACMMX57V/tl7IUBiKq2ttaB9pQp+ZG+xhg7oaPzsmQqyTp2CZLJpK6/dWPYMRqCkW5sTja9fuvdNwVyKLWsU32PPfX0pw739f+d79MDAERHS0tzpmvC5FNPX7JgW7nXeOLZZ6/o7em/yfU8TkUfQyKR1Pfv/YUe/M0TYUeJuufk62Ob71p3Z5AXLfsP8KZnnrmqv2/om3nHKXqYBgCEpaO9bX9XS+rs5cuX76n0Wpueeuq9A0Oj38rl861BZGtEiWRS//2D+/TYlrK7VuwZ6Xkr+/fDo+b6XQ+sC3yIQkUNdtOm7dPzJn/zUDp9gee6JW0nAEAttLQ0j3Z0tH/1NcuWfCbI6+7fv799X2//99IjIxc5jsug+zHJZFI7dh/Qv99yh1yX8fFl6JHRPfL9mxd1Zu5Zv3591f5HDGQJa+fOna19mdzHPcd7s+97s33P7wjiugBQsoTxjdFQKpna2pJq+faKJQt/UM2Ps9YmHt/67Idd33uz53onWc+bam35f7daybie1+x7NuX7Xsq3SlhZI2vrc8vBGJtznHw6nRndumP3/tvu/XnFh9Piw+aMTNqXuhMyz8okNj+x4fotkthfBwAAAAAAAAAAAAAAAAAAAAAAAAAAAAAAAAAAAAAAAAAAAAAAAAAAAAAAAAAAAAAAAAAAAAAAAAAAAAAAAAAAAAAAAAAAAAAAAAAAAAAAAAAAAAAAAAAAAAAAAAAAAAAAAAAAAAAAAAAAAAAAAAAAAAAAAAAAAAAAAAAAAAAAAAAAAAAAAAAAAAAAAAAAAAAAAAAAAAAAAAAAAAAAAAAAAAAAAAAAAAAAAAAAAAAAAAAAAAAAAAAAAAAAAAAAAAAAAAAAAAAAAAAAAAAAAAAAAAAAAAAAAAAAAAAAAAAAAAAAAAAAAAAAAAAAAAAAAAAAAAAAAAAAAAAAAAAAAMLw/wHjbrffrANOTQAAAABJRU5ErkJggg==;" parent="1" vertex="1">
          <mxGeometry x="1160" y="569" width="81" height="81" as="geometry" />
        </mxCell>
        <mxCell id="RZCP1eC1JpLQxB95aDeo-123" value="" style="endArrow=none;dashed=1;html=1;dashPattern=1 3;strokeWidth=2;rounded=0;" parent="1" edge="1">
          <mxGeometry width="50" height="50" relative="1" as="geometry">
            <mxPoint x="1314" y="950" as="sourcePoint" />
            <mxPoint x="1310" y="260" as="targetPoint" />
          </mxGeometry>
        </mxCell>
        <mxCell id="RZCP1eC1JpLQxB95aDeo-124" value="" style="endArrow=none;dashed=1;html=1;dashPattern=1 3;strokeWidth=2;rounded=0;" parent="1" edge="1">
          <mxGeometry width="50" height="50" relative="1" as="geometry">
            <mxPoint x="810" y="940" as="sourcePoint" />
            <mxPoint x="1320" y="940" as="targetPoint" />
          </mxGeometry>
        </mxCell>
        <mxCell id="RZCP1eC1JpLQxB95aDeo-127" value="FIREWALLS" style="swimlane;fontStyle=0;childLayout=stackLayout;horizontal=1;startSize=30;horizontalStack=0;resizeParent=1;resizeParentMax=0;resizeLast=0;collapsible=1;marginBottom=0;whiteSpace=wrap;html=1;" parent="1" vertex="1">
          <mxGeometry x="274" y="630" width="140" height="320" as="geometry" />
        </mxCell>
        <mxCell id="RZCP1eC1JpLQxB95aDeo-131" style="edgeStyle=orthogonalEdgeStyle;rounded=0;orthogonalLoop=1;jettySize=auto;html=1;exitX=0.5;exitY=1;exitDx=0;exitDy=0;entryX=1.021;entryY=0.425;entryDx=0;entryDy=0;entryPerimeter=0;" parent="1" source="RZCP1eC1JpLQxB95aDeo-21" target="RZCP1eC1JpLQxB95aDeo-128" edge="1">
          <mxGeometry relative="1" as="geometry" />
        </mxCell>
        <mxCell id="RZCP1eC1JpLQxB95aDeo-132" value="hackthe.lab&lt;br&gt;&lt;div&gt;172.16.1.0/24&lt;/div&gt;" style="text;html=1;align=center;verticalAlign=middle;whiteSpace=wrap;rounded=0;" parent="1" vertex="1">
          <mxGeometry x="530" y="355" width="60" height="30" as="geometry" />
        </mxCell>
        <mxCell id="RZCP1eC1JpLQxB95aDeo-133" value="DMZ SERVERS" style="swimlane;fontStyle=0;childLayout=stackLayout;horizontal=1;startSize=30;horizontalStack=0;resizeParent=1;resizeParentMax=0;resizeLast=0;collapsible=1;marginBottom=0;whiteSpace=wrap;html=1;" parent="1" vertex="1">
          <mxGeometry x="407.5" y="-80" width="140" height="300" as="geometry" />
        </mxCell>
        <mxCell id="RZCP1eC1JpLQxB95aDeo-134" value="&lt;br&gt;&lt;div&gt;Services - WEB, PROXY, MAIL, MAIL and DNS&lt;/div&gt;&lt;div&gt;&lt;br&gt;&lt;/div&gt;&lt;div&gt;&lt;br&gt;&lt;/div&gt;" style="text;strokeColor=none;fillColor=none;align=left;verticalAlign=middle;spacingLeft=4;spacingRight=4;overflow=hidden;points=[[0,0.5],[1,0.5]];portConstraint=eastwest;rotatable=0;whiteSpace=wrap;html=1;" parent="RZCP1eC1JpLQxB95aDeo-133" vertex="1">
          <mxGeometry y="30" width="140" height="110" as="geometry" />
        </mxCell>
        <mxCell id="RZCP1eC1JpLQxB95aDeo-135" value="&lt;div&gt;&lt;span style=&quot;background-color: transparent; color: light-dark(rgb(0, 0, 0), rgb(255, 255, 255));&quot;&gt;RUNS (binaries [ctf])&lt;/span&gt;&lt;/div&gt;VULN SERVICES&lt;div&gt;&lt;br&gt;&lt;/div&gt;" style="text;strokeColor=none;fillColor=none;align=left;verticalAlign=middle;spacingLeft=4;spacingRight=4;overflow=hidden;points=[[0,0.5],[1,0.5]];portConstraint=eastwest;rotatable=0;whiteSpace=wrap;html=1;" parent="RZCP1eC1JpLQxB95aDeo-133" vertex="1">
          <mxGeometry y="140" width="140" height="80" as="geometry" />
        </mxCell>
        <mxCell id="P_Y8_BffKS8sCkRuGIxR-12" value="Runs vulhub (old vulnerabilities)" style="text;strokeColor=none;fillColor=none;align=left;verticalAlign=middle;spacingLeft=4;spacingRight=4;overflow=hidden;points=[[0,0.5],[1,0.5]];portConstraint=eastwest;rotatable=0;whiteSpace=wrap;html=1;" parent="RZCP1eC1JpLQxB95aDeo-133" vertex="1">
          <mxGeometry y="220" width="140" height="80" as="geometry" />
        </mxCell>
        <mxCell id="RZCP1eC1JpLQxB95aDeo-143" style="edgeStyle=orthogonalEdgeStyle;rounded=0;orthogonalLoop=1;jettySize=auto;html=1;exitX=0.5;exitY=0;exitDx=0;exitDy=0;entryX=0.477;entryY=0.989;entryDx=0;entryDy=0;entryPerimeter=0;" parent="1" source="RZCP1eC1JpLQxB95aDeo-9" target="RZCP1eC1JpLQxB95aDeo-5" edge="1">
          <mxGeometry relative="1" as="geometry" />
        </mxCell>
        <mxCell id="RZCP1eC1JpLQxB95aDeo-146" style="edgeStyle=orthogonalEdgeStyle;rounded=0;orthogonalLoop=1;jettySize=auto;html=1;exitX=0.5;exitY=0;exitDx=0;exitDy=0;entryX=0.5;entryY=1;entryDx=0;entryDy=0;" parent="1" source="RZCP1eC1JpLQxB95aDeo-145" target="RZCP1eC1JpLQxB95aDeo-9" edge="1">
          <mxGeometry relative="1" as="geometry" />
        </mxCell>
        <mxCell id="RZCP1eC1JpLQxB95aDeo-145" value="" style="shape=image;verticalLabelPosition=bottom;labelBackgroundColor=default;verticalAlign=top;aspect=fixed;imageAspect=0;image=data:image/png,iVBORw0KGgoAAAANSUhEUgAAAOEAAADhCAMAAAAJbSJIAAAAkFBMVEX///8VFxYAAADk5OQTFRQWFhYABgTHx8cAAwBxcXEQEBAxMTHt7e23t7cmJiZnaWjX2Ng/QUCgoKD5+fmQkJAJDAvl5eXy8vI3Nzfe3t5JSUnExMTQ0NCGhobv7++xsbFXV1enp6ecnJx6enodHR1NTU1gYGBbXFuAgoGNjY0qKip1dXUyNDNDQ0O7vbwhICFpfGEmAAALTklEQVR4nO2daXfiOgyGiXBYzN7UbAUKBTot3f7/v7t22JIUO0psY/eevGc+zJmZZvLEm2TJcq1WqVKlSpUqVapUqVKlSpUqVbqvoqg7ro/r3UkUuX4V01oNN8v2fAcX9ddvm9n/BXPVXK4Jh2pQQoKjCKGM/8nntvn3ISffgz4AO6OlRQGmLyvXr6il4ZZ3TBqG4U1AIQa7l7/bjos1wO3GSzdkf+H6TcuJ80k652/GpeuXLaFuGxgKTyiEf39uND4HoBh8vwhDmHddv3IhdV8R4y8t+Jq4fusCWuygIJ/oqGvXr43XpnADBnFH/TPTzRLwAzDdin9k0fgo3kNPYl+u3x2ldmlAPts8u357hMq3IBcd+W+/vekA8kZsugbI00YPMGi1XRPkqFlmmUiK9v023rp9qgfIu6nfC8ZAs48KwgfXECo96wMG8OaaQqGx7iAUary6xlDIQB/126xZmADk3XTgrZ841Z5HT4g/nq76vZIOxS+FFL5dw9yUqSbkIvDkmuaGvs2MwqMozFzz/NYev6+Wr5D552MMTayFV0IPNzQ0naZfIr7100nfZBMKNdaumdIyOs/EIp45GTp7MxI1/rmGSiqi5hbDs/waiQtT9kxS8O4aK6FHG4R06lEcY25yub/Ip7nG/DwTE/rTTYd2CNncNdhFJvZnboiANzuL73YIA3+cqH9WJhpO+OKa7KyOaaP0JH+2+KklQtpxTXbSxKhvmFAIrtFO6toiDMATq2Zmrw09Mb6zhKGekm3oid2WIiRUW5enhb4siElC0u98dvT0eV18oOea7ahkzAk2+s+rX57nC2FytTAR4JydjcDQF8Ias0QYeBPA6Fsj9CUKtWa2CIf6TzOihPdkmNCXYGnPGqH+w8yobomQHvQfZkhAQhuEjYH+wwzpA6wQwqP+wwypZ4nQE7O0JqwaaoGQeDOVcm3BAiHb6z/LmC6hGZOEHg3D2tWsMUhIvLFoYjXBNGHI5n7lY7y2TBOacDVNqn50ocwR0p1HM2msY3jGHKFf80ysOFvBGCEJPdkrTSiag0FC30ZhrGgNxgg9PakXtRsmCIcQMO+mmZO6OxMhvyHQ0JPN7l+aHEzkFDbB4yNsUzAQ1OyBX/ZaSnMwcJhgA77EnG5oAD/6D9nCwdN5husBWF37IVPwyTHM6An0dx4igA8T72JHXdBP1Vr4PJXWap+gnar16PNUGr+e7jw4hamRV7Ek3sU07bahgY5uVbuG5ubDu9+dNO6mWkG/ScfvTiqC+qAVbXgGLz3DpNqgkwUTjZg3ITWZxs/PGoTP2jOV55rs2I+Z/Zlx/f7CWNNbM/ZMtNkH0Li3Wv117iTbhJYJo3uyB0ZciME258121MRaGH1ZyjvPF8lBXIORzG4rJ3iQUicb8kFooqCCtZRllFRBz0dgBxPRpp6zPhoLpFsAHDDQ3x+omT+wW5RQthgsgTEzFvfa0ukPLKEkojTggIZ2gUc+Es460Oqb2kG0dYJHgzB6AMr2xjYQXY/D367RYg5hKJ+BCuu5SFVRC4TZwbYYxHVc88ydAho6JcweKfz+B+fUko2pVoycErKvxJreXIbQuNT3Bhi9jI0gflGHhGI3O4qiybD3yI1QSJ7iFxXNYbQxMOG8ObVLX2pRI2bJVokmjY99/OevPV0XeOOUcFFbALllGYtjzbPHeVxwf6ln3Fg6eI0ShbGkduSpcFI0XP4IyHVPwwZfOXQuKJ9otnx5b/wqo3F1OqLvddyQD6U7azQ3X6UDK7GVOj9M9+2v7DukfPvxkgrIZdlZZ+uum15c+KwPl60lGG2m0ADYlmN8cEh43ovKlFi8lUr6vQfG27HMEmmo+l8JEXrxHzqpbno76NscUQLksfh4HNs6XJ4rOr3MkKkyDLJiOx8t8Xf9wnGMyE6tFYTY+to+yW4qq1nabh35p0V940HLUSMm9gqj5MnaQDKhHAnFMlqwHuaLo4GYKof4mjjRJ8uVPRPyf8IKbfY3nREmhtt1RifSWMyVkP/suoB3NbtpGN6BcJd8iTMhke9zJwj5kskKzDgGC3EWUWo7ODqvF4RKTdAUIf8Ur+jR6Gg3Kj3ejufdwlARTksTckSCTRFwNNWkT2Yfz7uFqlOUGULBiJxwnhwRpuaKo+EWqg6k/yIMaIgjnDlxgkkmBSGu6aqs5/WbEH0Bxs7FVJONOy3jQweqcNsNQorM0F0zB42YXdjFspyw43CE2KtoHl0MxGyRC7Fho37fm4S43FPzBVXzFULG1XuFMCfme4MwIH3Uojh2MNVQmn6HpohWqDfVbhFiK7o4IGSZ9lrzJsw5unCTsIVLmzNafRunTNboEyLgdJOQMFQ1RQdTTaZ3jVh+vOkmIbKbOshXSDcYf4H80pYSQtRsWr87IemnvMAfijgkeptQ4YwkFCFvzzQnlipevYEQcc73NiGyitvdUzLEbtMFadKnISKPVEaISg1b3rmbCr+nflkcXngTHvL3QSWEuGoSlgrjKgiH3JI6TTYr0YSIPQkJIa4k5uzehNzYejmv8HytYlPEdCEhxA3ESXDfqUb0rDU7WmljQnCLmpQQtSd156lGLGI/9HhQ4Y034QjzjjJCXHWlO8fY+GfvAo29O1EWEXeGT0ZI+pifvm84P3YE2xDfy9GGEFmLXErYwHhQQyQhVeenM5zpQMTy3hWVBJp8jsM66jJCXLXBLm6vhs0HOTpgEI/jji/CbD/gJjcy2VnahripBhdjy//aI8yXOjp1IkmCMXzxIHkbooxv1MUpJDdnEJfacfroR6cNfcxXSoizalDhfHJY1d6nI5k6T8j0nNPAWf3wpZA0sLmyUkKCMPmQl6KKjzUHyujtX7yFUeZfeK68Jj4rPtFSTsgwH2kcIgjF2rqT/jsCEW63gJzrEEw6lFJ0BElKiHSgMDE27qV25QhihkRd4XzdhdoUOeWrIERt7r82EITfYuNW8pdE3F3whZmSr75gNC1QSV5BiCqhgoixCVNEvqVDeAtHuKn0aqQ9FyhwJSfEbSkiYmxkN1adk+J9ZYxbc657TlGBpEM5IW65UAyws+in8oZYvnKjQpGE4alwhLSD6uv5992J0JAia5qvAahVtWxZHjkhYah8t9yBGPKla3WQTrnkM8Ic3wjDsif05YQBrjZFlGd8i82UYUPa0mKDEGHdhlD2Fjw5IfajyReC83OeVOlFwjhB+GBsV/aQgaoNkck139mM+SzhTJKWffxfXsTpjRw+ArR0XrqKELvozL4AFHdpMMVuRzy8FqqfFg8AeC1/8ZaKEH+K6GkwPfQl+hmpsotEC/eo7GdjHUZbnUOFCsJipb5XXZlWtYncwaX9bm0i/dH4xzXPhigI2d5UgdqxfKDav9pOQUg/TRHKHdw4zeAx1rul+9EUhISZKm+qCKVyN2gFR1mq8K8gDIzdHPgoXzKhFx9m5KKWqgIpCU0dG5Y7uGLT8+m4HDohNHRBSyRP2iC0fra7nRAaukZoJQ9R0U503pF0QmioFJHCwRWLxamFnRAaKoatcHBbH2LnzB2hgWK3QgoHl1v39VPSvwtCUzd4bkEusQ13EiqeV1wqQnVmKl6zoVyT2uTyezP/W1YqQoqKIvsuFSEJijyp/tS0It2z9UrCAqX5mh3FYNPTXs+0UhOinYsesMBOSD8MGnrFyVSEQTapWiq7lbGY1jqiJsR+PLs5GdichDKEWNP7w27WiVYxUvU4xJredjOH9K7DUbch9sl2kxTzzhuo9aEkxDoXE7B5BkrUj1/0SupblXtH8LHkJ0DEgssoDAn8zGqTsPRyqvz2BUzvxdrgGp9Weyzij5ZUZDNzYqnqbGx1zCw9vG6mqFSlSpUqVapUqVKlSpUqVar0l/QfKizU3lA8tYQAAAAASUVORK5CYII=;" parent="1" vertex="1">
          <mxGeometry x="40" y="772.5" width="85" height="85" as="geometry" />
        </mxCell>
        <mxCell id="RZCP1eC1JpLQxB95aDeo-147" value="REMOTE ADMIN" style="text;html=1;align=center;verticalAlign=middle;whiteSpace=wrap;rounded=0;" parent="1" vertex="1">
          <mxGeometry x="40" y="870" width="60" height="30" as="geometry" />
        </mxCell>
        <mxCell id="RZCP1eC1JpLQxB95aDeo-128" value="BOTH Firewalls use IPTABLES&lt;div&gt;&lt;br&gt;&lt;/div&gt;&lt;div&gt;FIREWALL 1&lt;/div&gt;&lt;div&gt;ALLOWED PORTS&lt;/div&gt;&lt;div&gt;SERVER 1&amp;nbsp;&lt;/div&gt;&lt;div&gt;(TCP 25, 53, 80, 143 443, 999)&lt;/div&gt;&lt;div&gt;(UDP 53)&amp;nbsp;&lt;/div&gt;&lt;div&gt;&lt;br&gt;&lt;/div&gt;&lt;div&gt;SERVER 2&amp;nbsp;&lt;/div&gt;&lt;div&gt;TCP (80, 9000 - 9099)&lt;/div&gt;&lt;div&gt;&lt;br&gt;&lt;/div&gt;&lt;div&gt;&lt;div&gt;FIREWALL 2&lt;/div&gt;&lt;div&gt;(CONTROLLED ACCESS)&lt;/div&gt;&lt;/div&gt;" style="text;strokeColor=none;fillColor=none;align=left;verticalAlign=middle;spacingLeft=4;spacingRight=4;overflow=hidden;points=[[0,0.5],[1,0.5]];portConstraint=eastwest;rotatable=0;whiteSpace=wrap;html=1;" parent="1" vertex="1">
          <mxGeometry x="275" y="660" width="140" height="290" as="geometry" />
        </mxCell>
        <mxCell id="P_Y8_BffKS8sCkRuGIxR-8" style="edgeStyle=orthogonalEdgeStyle;rounded=0;orthogonalLoop=1;jettySize=auto;html=1;exitX=0;exitY=0.5;exitDx=0;exitDy=0;entryX=0.5;entryY=0;entryDx=0;entryDy=0;" parent="1" source="P_Y8_BffKS8sCkRuGIxR-1" target="P_Y8_BffKS8sCkRuGIxR-3" edge="1">
          <mxGeometry relative="1" as="geometry" />
        </mxCell>
        <mxCell id="P_Y8_BffKS8sCkRuGIxR-1" value="" style="shape=image;verticalLabelPosition=bottom;labelBackgroundColor=default;verticalAlign=top;aspect=fixed;imageAspect=0;image=data:image/png,iVBORw0KGgoAAAANSUhEUgAAAOEAAADhCAMAAAAJbSJIAAAA+VBMVEUAAABBcsr///9ojtUmRH46Z8FCdM4kQHFrktpAcMYwVZYLFCRScKhAV4Jsk90bJjnx8fEeHh6i9cMrTIc3YawZK0weNFwbL1gjPnMRHzviebM5ZsA7aLg1XaWaUnrpfbknNVCp/8wQHTOK0aZnN1IUJEQJDhopPzKEx55up4VLclqU37I6WEYrTZDOb6NMes3o6Oh5eXkoR30FCRByltjZ2dlBQUEbL1mxsbGdnZ0YITErKysaLVDNzc0hOmaDg4N6uZMgMSeDRmcyWKU1NTVjY2O9vb1bim4XIxxAIjMNFytVVVU1Xa9XL0U0R2thhMYkExw8WZAjMEiQOwksAAAKDUlEQVR4nO2d6WLTOBSF6xbs2IEuOA7N4AANJAxTYGgy3Wiasg+UpQPv/zCTxJYs2deOJd1ETqLzr71Z9EW2rOVcaWMzR8dXFxvLo4ur4zyQDfjfu0e6yyyso10hwhPd5ZXQiQjhJ92lldJRecJL3WWVFHgvgoTLdxNGAisRJIzvwqFTde3HGkYFBu9EiHB3b/r6wK68bhN1pyXeg5rTAsKmbVVdDwjhfUNoCKsqQyhCyLZg2W9CCYoKldC2Q88naqdKWhi0bJcJWgVBQXnh+JvQCO1GwHYdeh5Xu2GT61j4XNAdccE+y2i7TsnOCqigYWMR2l76wx2mehvpIFv3YT0V7LoJodtRARzLu41DaIfZz04qys0GGf404LgrmFwZXUXAjY3vSIQB8NkhKeYICDbIO/tAsE2CmStDXF0UQqgKk0oMB0CQVmK2CpNKtFvqhLQS1QjB3zouZ/YunKhV9Ntck8u7h0D4EoXQjz7s7WGkd9O/unGwHQWfx8Fn0786PP77V5F+TP/quRx+a19Kp9G7b2ESPjm4N9UziPDPKHjwAiJ8+OiPiR49hQi7t6S0Pw/Ce0WE9xZM6BhCQ2gIV5Lw8CASSPgkDuYQRoIJfRlAH7UtBZ/4QZknPhisx31vsDckKpwnPljOflG3hfRowW5Li/TaVEcWE33AGT1dAx9NO9dQt5x2rqFuOenRgt1yQV0jjS2AyzQZOwI13KJBoIbrydBKnfAlDqFlZ4biHVpK2hAl6iWDXNIQMQqZmQNVQAdpBJylGLnsXITH323DkA22+QFUlws21AZQPtosxmRGxR8FsZp9tpTToJcEnQY/FTUOOsM4OHRSU1G21aZBUY18F3EmykrN+lkpIQV1ziZWVYbQEBpC/aKEp5KEEq1bIpVmsqxkn/ibH6evH/ieoLhFiVD03RJ6GetWNE75CMGAhNKGoXaC2Jz9anR9Kk34WfYrBqRLijFwENfn0oTxZSoh7+9Y0Hz+vAVepDmEr2W/5E5ta6rtN5hFL6nXAoSbx3Lm0t5NBLhVu4tc+tm6yHGY5hBu7p7viX/JgFThWD/xGYq0d55jL80lnFyql7FHcedOSW0lgFu1m7LvUtBOVMDLS/gCnUU4iU71eLtWTlucSr5JQduPowIWM5QhTBW9MqoZQkNoCLULj3C7qlIjPDs6if3eg52qKl7cOTk5OhMmPJPoV+hVHmMO4TLmI8AJJTmE57pLK6Xz8oTSgyfNAnunIOGV7qJK6qo04bf4HfVlUVzeb2UJd6Phb2sR84FqorOJ0Yr5hZkRXmLC1Z/VN4SGcCragEFfhRAUFDahbYeNWKGVSYux3VLBRmFQUJOUGcScGbfPmtCanBnDtnx2Cn/Y4O0WHmvuCtp8sK1gNxn0XbycmTDt+2LSgmw3Xco+Q+EOU0GHvTAgU5iA6iGWYwgw4CV1ARjwEn47DcjyqwJubPSQ6hAqyYAWE1pGo2tskHGTXOKAI0xYpziEoMGS1BNosCT1BBosR0WuRlHh5MyAv3Wh+ZQYiMHfpkN+G4wlRtScmX+fR/rCQbT54DsWguA/fRjp6/SvlAv6+r6U4rw35JyZqWAnu4LPW87JbnJmDKEhNIRLSlilnJm5tKUv/ooU/RXwhCT4BSL8+jTSfywhyZnptaQUjwVwnvhgn2ZU1KcJbA6CF+nTgIkqosLJmQG7njQtBup60rQYqOu5X5RQIyg6uFAcWwDDhyQtBhg+9IoSapKBB9hrFRO5DZVHwNmqYDJfslWRjPKBH4cZWSpvORBgjYAtN2UW7XCZL6mcoTo7U5FGHLCbhqgiNi00wnFr00wajcBLZb40Rsmd2vJdPhg6ySip008H+9LNzaDZRs2ZAWbyMIJqZnAzI2wIDWEVtEaEK7tCKv08jNbx66HlLljc48S2Z77+QawP0TO39Do+9WIsXk4C6Ir3zEt7MXRaoka0Mywx9ACtbSDhLn7JS4umuku8F2LJ8bVp3Cr5HyLxt14KEOozX+5QA7BwXlGO/TLPX3qsqbWhWTe1O2Jv/JS37Xy+R/j12Xnc4ry5uzDdJJby2s3sl8f1fH5+lp80g5ozoy7eqD5LJmfGEBpC/TKE5QkX15aKSbEt1fI8FJTK81BXn0Za3wT7NMuXFCTYL13OY1gExhY6x4cqKk+4nGlPOYlPFZunUZNozky9sfC5NlHJzrWtwXzp0hCu/pz3Gq1bGEJDOLd1fKVlfNR1fM6L0fXxvBiOkhcDb4dWIT9Nbwn9NKieKCahpjKeKMjXRg2GK+FrW3lv4ur7S9fAI7w2Pu818OobQkNoCPUTrnz+4QrnkK58HvDq53KvQT7+6u+pMGtfjPSBqQvbF+MabV+M+e1t4lVkb5NJWZj9aTJTZmX3pynevEbr/jRxaeAZQayg8FSiZWaEDaEhrILWiFB0hVRk70vm+2SbRXnRJ77g3pcC+5d2+sxRgI3h/HcqhRWXt3zOjMgetAHt2ykfZ6is8n4aoX2E6fy+jtOBeJXfR1jIFPWLHJ7ze24lLymBvaCF9vOmh+cs+NyVjIT28xawXyYW6Zt5Fn+2BPdk3yy5r/7vX4zr+ubn4nbUj6Syr34cnarobATO5F5b2KEIsR5HBSxmKEO4+l59Q6hLhtAQJoQrmjMjce7awqVy7prU2XkaJXx2nuT5hzoldv7hch7DInKGpfQ5pFolcA6p9FmymlX+LFnp84A1q/x5wLJnOi9csmc6S5/LvXChrR9WViZnxhAaQv3CJOSasPQXIQUFhUpou/4oiNXsh6kFftdLgk6Dx7AtbzSMg0OnnQ62HRIU1WiSnIN3ko7Pm+5HbHKP7fEGtSGXUNPmrThdLthQMJtsTJIe0BxDTvqzO0wx/XSwxyy4ZZ1dTLaN8mKVg/TEh9xpzaI1tWSjaMD0V08qURUwsSaq1iGU+kGcT3ba8zURXXCDbF00oQby/AnqGoUQvpj6RRbSwnwiUsOgNVNUODkzYIpZUITfKgrW+ZwZNaHmzBxWKWfGNzkzhtAQGsIlJTwoIjxYMOE82tK3h5HeQYTP4+AziPD9q0g/IMLWvpROMQnBJ/6wzBMf7PBcWwUdHlHhPPHBcpLepQv1TGjKAZT4MyS9NrWhUySknBkofYemxUCda5oWA3WuabdcecOB8b2CNHoCKpFU4bgSs0EmayRbiUMaRKjE7ziEwDh2lDBk70R29iNMI3aT4bHlqo4u2kgj4ElBuQu1x27fMQ5ytsuBzwVTe8f32W1RbDczeSCiIETMmbHt0POJUnNNk8SXJNjOpMWwQasgKChvkjQzr9lEKyOUoNbZxKrKEBpCQ6hfioSBQju3INEnfleMcDP2dw+dqouMpeJs4xMIBiQUyEWolMB8BJDwWHdRJQU622DX13JWIpxSkuNNPNFdWgmBd2G+v3T5ajEnKSjfI3x8tUwW04urvE3nN/8HiTETcsgVhtwAAAAASUVORK5CYII=;" parent="1" vertex="1">
          <mxGeometry x="890" y="590" width="60" height="60" as="geometry" />
        </mxCell>
        <mxCell id="P_Y8_BffKS8sCkRuGIxR-2" value="VULN SERVER&amp;nbsp;" style="text;html=1;align=center;verticalAlign=middle;whiteSpace=wrap;rounded=0;" parent="1" vertex="1">
          <mxGeometry x="890" y="660" width="60" height="30" as="geometry" />
        </mxCell>
        <mxCell id="P_Y8_BffKS8sCkRuGIxR-3" value="VULN SERVER" style="swimlane;fontStyle=0;childLayout=stackLayout;horizontal=1;startSize=30;horizontalStack=0;resizeParent=1;resizeParentMax=0;resizeLast=0;collapsible=1;marginBottom=0;whiteSpace=wrap;html=1;" parent="1" vertex="1">
          <mxGeometry x="610" y="840" width="140" height="190" as="geometry" />
        </mxCell>
        <mxCell id="P_Y8_BffKS8sCkRuGIxR-4" value="Standalone machine&lt;div&gt;Not part of AD but part of same&amp;nbsp;&lt;span style=&quot;background-color: transparent; color: light-dark(rgb(0, 0, 0), rgb(255, 255, 255));&quot;&gt;network (VULNHUB)&lt;/span&gt;&lt;/div&gt;" style="text;strokeColor=none;fillColor=none;align=left;verticalAlign=middle;spacingLeft=4;spacingRight=4;overflow=hidden;points=[[0,0.5],[1,0.5]];portConstraint=eastwest;rotatable=0;whiteSpace=wrap;html=1;" parent="P_Y8_BffKS8sCkRuGIxR-3" vertex="1">
          <mxGeometry y="30" width="140" height="160" as="geometry" />
        </mxCell>
        <mxCell id="UKOFYQc7yCOFPyKtpSYT-3" value="" style="shape=image;verticalLabelPosition=bottom;labelBackgroundColor=default;verticalAlign=top;aspect=fixed;imageAspect=0;image=data:image/png,iVBORw0KGgoAAAANSUhEUgAAAgAAAAIACAYAAAD0eNT6AAAABHNCSVQICAgIfAhkiAAAAAlwSFlzAAAOxAAADsQBlSsOGwAAABl0RVh0U29mdHdhcmUAd3d3Lmlua3NjYXBlLm9yZ5vuPBoAACAASURBVHic7d15nFxlne/x71NVvXc6GwlJCCGbkB0wsqkIIihEo+gYERQMOpfRcXTG61W8OtfBccZxttc44ziLCmYGECWOKBjCpqAoKiIQQgiQhISsnXSn1+qu5SzP/aO6lSUktZyqU6fO5/16+YdSdeqrplPffp7n/I4EAAAAAAAAAAAAAAAAAAAAAAAAAAAAAAAAAAAAAAAAAAAAAAAAAAAAAAAAAAAAAAAAAAAAAAAAAAAAAAAAAAAAAAAAAAAAAAAAAAAAAAAAAAAAAAAAAAAAAAAAAAAAAAAAAAAAAAAAAAAAAAAAAAAAAAAAAAAAAAAAAAAAAAAAAAAAAAAAAAAAAAAAAAAAAAAAAAAAAAAAAAAAAAAAAAAAAAAAAAAAAAAAAAAAAAAAAAAAAAAAAAAAAAAAAAAAAAAAAAAAAAAAAAAAAAAAAAAAAAAAAAAAAAAAAAAAAAAAAAAAAAAAAAAAAAAAAAAAAAAAAAAAAAAAAAAAAAAA4EVMzT7puusSSx/etcIYs8xY/xTZxHQZ2ympqWYZAESX1ag1GjHWPi+ZZ1NNiYcfu/2G/WHHCtqKN1/ZoWTqLEmnWNmTlVCHrCaFnQtV4ciatIx/yJrEM9aYzVteM2ezrrvOr8WHV7UArFx5TZMzPX+xNeb9kr1Q0pRqfh6A2HnWSj800o2b71y3Oeww5Vq5+prjcn7+csm+x1hzlvjFKL6sDhuj+3yZm1oONt39299+3anWR1WlAKxcfU274+avscZ+UjKzq/EZAPASP5VJ/NXmDTfcF3aQYq1YfeU86yWvlbRWUkvIcVB/9ljZf5jQMfqNX65fnwn64oEXgOWXrL3UGH3FSicFfW0AKMIGmcTHN2+44bmwg7ySc9asaUuPtH9WMp8SX/w4tl3G2D99YsN/3R7kRQMrAOesWdOWHu34Z1n9r6CuCQBlysjqTzdvXPeNsIO81PLVaxfJ062SloedBdFipBvleh954p4bRwK6XuVOe9vaVzmuc1ci0TQ/iOsBQCCsvrr5rLl/VqtDVcey4pK1q63RdyS1h50FkbUplUqsCuIAbMUFYOlFV5zmuvlfWd9vSTY1KdXcVuklASAwRvruKR0j71u/fr0XZo5lb736/cb635JMKswcaAi7ZBJvqnSbK1HJm5e9+eoTXdf5pfX9FknyHEf5TFrWD/XnDAB+x0qXPTPS8S3V8rbnl1hxydrVfPkjQHNl/XuWrlo7o5KLJMt949Kla5q9dme79b0JL/oH1spzXclIiSR/1gHUhVOnLzx1+ND2Tb+s+Qe/5QNLbcLcLRkO+yFIU2Ts2UtOeOeNu3Y9UNYWV9krAP7M5J2+577Cff1WXj43thpQF1tvAGLOGPM3p77tqjNr+ZnnrFnT5ifNrWLPH1VgrHl9X/vOvyz3/WUVgCVvueIdvuu86Vivs74vJ5uW5+TL+RgACFKT75vrV668pmZDdobTnZ+TtKRWn4f4sTKfXrpq7WnlvLesAuA77vXW2qJea63k5rNyMiOyltUAAGEyy/LTnT+qxSetWH3lPGPs/6nFZyHWkgnpn8t5Y8kFYOlF7/uo77lTS32f73tyRkfku1WbaggAx2bsZ+eev7a12h9j3dRnxJAf1MYblr1t7fmlvqnkAuD5+c+V+p5xVlZOLiM3O8pqAICwzJzQrvdW8wNWrr7mOBn7gWp+BvBCxupTpb6npAKw4s2XLfNdf2apH/JSnucqnxmR77EaAKD2jMxV1bx+zstdIX77Ry1Z++ZSbwssqQDkff1fqbi9/2OyVk42IyeXKRwUAIAasbLnVXoP9VEZranatYEjMqmE7B+U8o6SCoD1/fNKC3RsvusUVgN8N+hLA8ArSSSNzq/GhVeuvqbdWFPT2w0BSbIybyzl9aUVAK/y5f8jXtf6cjOjcvNZBbbCAABHYa1eX43rZv3sWZKaq3Ft4GiMSvszXXQBWHbJZQskW9Ho4KOxkjwnX7hTgOFBAKrNaFE1LptUYnE1rgsU4filb/nQKwzoe7miv9B9J/GG8vKUxrdjw4PyOdYCAFSNsVpYjetaqwXVuC5QFOMV/eev+AJgTVWW/4/ISq6Tk5sZYZQwgKqw0qRqXNdIE6txXaAYJlH8n+uin9Zjja3KD8sL+S3tGlqwUk7ni+cMJWXVPtrD8QAgBozvqXm4X60DB6t9h1BnxK4LHJvRhGO/qKDoApCQTVXtIb+JlPa+5cManTpPsq/wxM6UkdpTFT7AGEBUtAz2atbDP1Lnvm3V+oiyn4Z6NJa/pRAiU8Kf6/D/oCYSeu5dn9PolPmv/OUvSa6V0o6UZxkAiIPcxOO068KrNDh3edhRgIYUegE4ePYfyG0pcsvMlzTqSqMe2wFADFiT0L7XvlNuC0/TBYIWegEYPunVpb8p70vDTmFVAEBD85pbNDh/RdgxgIYTegHwk2XOy/AlpcdWAwA0tMyUWWFHABpO6AXgqPv+xcj70pDLagDQwPwmnqsDBC38AhAE30ojrpRhNQAAgGI0RgGQCocCc7407EoeqwEAABxN4xSAcZ4tlIAcEwQBAHgljVcAxmW8QhGgBwAA8DKNWwCk368G5GkBAAC8UGMXAKkwS3zUk0YYHgQAwLjGLwDjnLEDgg6rAQAAxKcASGO3C3pjo4RZDgAAxFe8CsC4vC8NewwPAgDEVtGPA244vi2MEm5JSK1JqcKBhABQb4wxmj1jmiZOaFcyEc/f96rJcVx19w6ob3Ao7ChliW8BGJfzCysB7UkpSQsA0BjOXHGyVp13liZ0tIUdpeHt2ndQ6zf+TN29/WFHKQmVUPr97YJZRgkDiL7zzlyhy1adz5d/jcw94Xh97Mp36Pipk8OOUhIKwAtlx+4U8DkbACCaJnV16q3nnRF2jNhpbWnWu97yurBjlIQC8FKMEgYQYactXqBkMhl2jFhaOGeWJnV1hh2jaBSAI7EqjBIe8RglDCBSZh4XrWXoRjNj2pSwIxSNAnA0ji8NOwwPAhAdnGUOV4RmzFAAjsVqbHiQyyhhAHWv+1Bf2BFi7UBPdP73pwAUKz92NsChBQCoX49u3SHXY9UyDM/u2qfB4ZGwYxSNAlAK30ojbmGUMADUocHhEf3o/l+FHSN2Mtmcvn/vz8OOURIGAZUj/4LhQSk23ADUlwcfeVKZbE5vPf8sdXW2hx2n4T2354D+5+6fq+fwYNhRSkIBKNf4akBzQmrjlhsA9eWRJ7fpt1u2a9b0qZrc1cGtgVWQc1wd7OlT/1A67ChloQBUwopRwgDqlrVW+w72at/B3rCjoA5xBiAIDA8CAEQMBSBIGW9slHDYQQAAODoKQNDGVwPytAAAQP2iAFSDtYVbBdOsBgAA6hMFoJpcWygBjBIGANQZCkC1+XZslLAXqRnRAIDGRgGolbwvDXuFVQEAAEJGAaglf2xLIOPxYCEAQKgoAGHI+YUi4NECAADhYBJgWMZvF2xNSK2M6AQQrEldnXrT2adp8YIT1dXZoWSS3/eClnccdfcO6NEt2/TQY1vledF6UBwFIGxZv/CI4Y6klGCUMIDKzZk5TddctkptrS1hR2lozU1NmjNzmubMnKYVp8zT12/dKMdxw45VNCphPWCUMICANKWSuvLSi/jyr7H5J87UqjecEXaMklAA6oVV4XDgiMfwIABlW3HKPE2Z2Bl2jFg65/QlammOzsI6BaDeOL407DA8CEBZ5s6eEXaE2GpKJTV7xrSwYxSNAlCPrMaGB7ncLgigJK3NTWFHiLXW5uhsvVAA6ll+7GyAQwsAUJyB4dGwI8TawPBw2BGKRgGod76VRtzCKGEAOIantj8fdoTY6htMa/+hvrBjFI0CEBV5XxpyGSUM4Kh27u3Wlu27wo4RSxse+LVshJ75QgGIkvHVgAyrAQBe2c2336+ntu8OO0ZsuJ6vH9z3kB7fuiPsKCWJzv0KKLAqzAtwrdSelJIMDwLwYrm8o+u/d5cWzJmpRfPnaFJXh5IJft8LWt5xdLCnX5ueeU59g+mw45SMAhBV48OD2pJSCz/YAF5ux+4D2rH7QNgxUKf45oi6jFcoAowNAACUgALQCMZXA/K0AABAcSgAjcLawq2CaVYDAADHRgFoNK4tlABGCQMAjoIC0Ih8OzZK2CusDAAA8BIUgEaW96Vhj+FBAICXoQA0On9sSyDj8WAhAMDvUADiIucXioBHCwAAUADiZfx2wSyjhAEg7igAcZT1x4YHsRoAAHFFAYir8dWAHLcLAkAcUQDizKpwOHDEY3gQAMQMBQCFoUHDDsODACBGKAAosBobHuRyuyAAxAAFAC+WHzsb4NACAKCRUQDwcr6VRtzCKGEAQEOiAOCV5X1pyGWUMAA0IAoAjm58NSDDagAANBIKAI7NqjAvYJhRwgDQKCgAKB7DgwCgYaTCDoAIyniF8wEdKSokUKcmdXXqTWefpsULTlRXZ4eSSX5Yg5Z3HHX3DujRLdv00GNb5XnR2iqlAKA846sBbQmpmb9YgHoyZ+Y0XXPZKrW1toQdpaE1NzVpzsxpmjNzmlacMk9fv3WjHMcNO1bR+Jsb5bO2cKtg2mWUMFAnmlJJXXnpRXz519j8E2dq1RvOCDtGSSgAqJxrCyWAUcJA6FacMk9TJnaGHSOWzjl9iVqao7OwTgFAMHw7NkrYK6wMAAjF3Nkzwo4QW02ppGbPmBZ2jKJRABCsvC8NewwPAkLS2twUdoRYa22OztYLBQDB88e2BDIeDxYCamxgeDTsCLE2MDwcdoSiUQBQPTm/UAQYHgTUzFPbnw87Qmz1Daa1/1Bf2DGKRgFAdY3fLpiN1v2xQFTt3NutLdt3hR0jljY88GvZCJ2BogCgNrJjo4T96PxwAFF18+3366ntu8OOERuu5+sH9z2kx7fuCDtKSaJzvwKib3w1oDUptdA9gWrJ5R1d/727tGDOTC2aP0eTujqUTPAzF7S84+hgT782PfOc+gbTYccpGQUAtWVVOBzoWqktyRoUUEU7dh/Qjt0Hwo6BOsVfvwiH40vDDsODACAkFACEx2pseJDL7YIAUGMUAIQvP3Y2wKEFAECtUABQH3wrjbiFUcIAgKqjAKC+5H1pyGWUMABUGQUA9Wd8NSDDagAAVAsFAPXJqjBKeJhRwgBQDRQA1Lfx4UE5bhcEgCBRABANGW9slHDYQQCgMTAJENExvhrQlpCa6a7AsSycM0uLF5yorgmMAq6GvOPo4OFBPb51h/oHo/MY4HEUAESLtYVbBfO+1J5iDQs4gtaWZl359gu0aMGcsKPEwiXnrtSGn/5GP334ibCjlIS/PhFNrpXSLqOEgSN432q+/GspmUzq7RecrVcvWRh2lJJQABBdvh0bJewVVgYAaN7sGVqykC//MKw6/0wZY8KOUTQKAKIv70vDHsODAElLFp4UdoTYmtzVqVnTp4Ydo2gUADQGf2xLIOPxYCHE2qSujrAjxNqkCZ1hRygaBQCNJecXigDDgxBT2Ww+7Aixls3nwo5QNAoAGs/47YJZRgkjfnbu7Q47Qmw5rqu93T1hxygaBQCNKzs2SthnNQDx8cQzz0XynvRG8NCjTymXd8OOUTQKABobo4QRM67na91t92kkmw07Sqxs371fG3/2SNgxSsIgIDQ+q8LhQNdKbUlqLxre3u4e/eP1/6MLzj5NixfM0aQJ7Uomk2HHajh5x1F3T79+u2Wbfvn4VnletH7RoAAgPhxfcn2pPSk10QLQ2AaHR3Tbvb/Qbff+IuwoqFP8LYh4sRobHuRyuyCAWKMAIJ7yY2cDHFoAgHiiACC+fCuNuIVRwgAQMxQAIO9LQy6jhAHECgUAkH6/GpBhNQBAPFAAgHFWhXkBw4wSBtD4KADASzE8CEAMUACAV5LxxkYJhx0EAIJHAQCOZnw1IE8LANBYKADAsVhbuFUwzWoAgMZBAQCK5dpCCXBoAQCijwIAlMK3Y6OEvcLKAABEFAUAKEfel4Y9hgcBiCwKAFAuf2xLIOPxYCEAkUMBACqV8wtFgOFBACKEAgAEYfx2wSyjhAFEAwUACFJ2bJSwz2oAgPpGAQCCxihhABFAAQCqwapwOHDEY3gQgLpEAQCqyfGlYYfhQQDqDgUAqDarseFBLrcLAqgbFACgVvJjZwMcWgCA8FEAgFryrTTiFkYJA0CIKABAGPK+NOQyShhAaCgAQFjGVwMyrAYAqD0KABAmq8K8gGFGCQOoLQoAUA8YHgSgxigAQD3JeGOjhMMOAqDRUQCAejO+GpCnBQCoHgoAUI+sLdwqmGY1AEB1UACAeubaQglglDCAgFEAgHrn27FRwl5hZQAAAkABAKIi70vDHsODAASCAgBEiT+2JZDxeLAQgIpQAIAoyvmFIsDwIABlogAAUTV+u2CWUcIASkcBAKIuOzZK2Gc1AEDxKABAI2CUMIASUQCARmFVOBw44jE8CMAxUQCARuP40rDD8CAAR0UBABqR1djwIJfbBQEcEQUAaGT5sbMBDi0AwItRAIBG51tpxC2MEgaAMRQAIC7yvjTkMkoYgCQKABAv46sBGVYDgLijAABxY1WYFzDMKGEgzigAQFwxPAiINQoAEHcZb2yUcNhBANQSBQDA71cD8rQAIC4oAAAKrC3cKphmNQCIAwoAgBdzbaEEMEoYaGgUAAAv59uxUcJeYWUAQMOhAAB4ZXlfGvYYHgQ0IAoAgKPzx7YEMh4PFgIaCAUAQHFyfqEIMDwIaAgUAADFG79dMMsoYSDqKAAASpcdGyXssxoARBUFAEB5GCUMRBoFAED5rAqHA0c8hgcBEUMBAFA5x5eGHYYHARFCAQAQDKux4UEutwsCEUABABCs/NjZAIcWANQzCgCA4PlWGnELo4QB1KXwC4DhtwSgYeV9aciteJRwwskGFAjAuNALQMLNhR0BQDWNrwZUMDyore9AgIEASHVQALqefzTsCACqzars4UHJfE6TnnuiOrmAGAu9AEz/9ffVlB0IOwaAWvjd8KDiVgOM9XXCQ/+jZG60ysGA+Am9AMj3Ne+2L6m9d3vYSQDUgpWUGXuw0FFWA1oGezT3nnWauGtL7bIBMZIq9oW+jFu1FL6r2Xf/m/yWNg3NXylnwnFV+ygA9SPh5dU2cliJZPJ3/5nxPTWn+9Xa113tj+cWBcRa0QUgIX+w2j8tiVxGk7b+vMqfAqDeJJIpNbW0ScbU8mOHa/lhQL0pfgvAmqrXcQDx5Huu8pkReV71FhqPgMNHiLWiC4BtyT1YzSAA4s1aX252VE4uI2trMR/EcvAIsVZ0AXj6ztueVcLwpA8AVeW7jpxsWr5X5U1Ho6er+wFAfSvpLoCEEgerFQQAxlnfysmOyM1nVa0nC1k/wYEjxFpJBcAYfmAA1I7n5JXPjMr6ga8G+GpKPhD0RYEoKa0A2MQXqhUEAI7E+p7ymVG5Ti7ItYAHnrz9m6xoItZKKgBP3X/LlkQyeahaYQDgyKy8fE5OdkTWVn4UyRjz3wGEAiKt9EmAicQXq5ADAI7Jep6cTFqek6/kKnu99vQtgYUCIqrkAvD0fd/9V5NMcv8sgFBYK7n5rJzsaOHflMgY8zdb1q+vpEEADaGsZwEkTOrqoIMAQCkKw4PS8l2nlLdtnjIy9+vVygRESVkFYOuPb/lBMpXijgAAobLWysll5OYyxawG5K0SH3zggetqOm4QqFdlPw3QaT7+QpNMDgYZBgDK4bmO8pkR+UcZJWysrn3yzhseqWEsoK6VXQC2b/xqrqklsdIkErkgAwFAOaz15WRH5eYzR/iH5utPbFz3ldqnAupX2QVAkp7c+N0dSrW8yZhESZtwAFAtnuMUzgb8bniQvWVRZ/qPQw0F1KGKCoAkPXPvzb9oSja9JpFIjAYRCAAqZX1fTmZEvuv+9+Yz571//fr11X6aORA5FRcASXryx7c8kU+aWYlk0xNBXA8AKmGMscmWlr/ecs9NH9B11/EQM+AIAikAkvTcfesHn/7Jd081qdbPm0SSLQEAtWekZDK1uynZfNrWe27587DjAPUssAIw7pkff/uLnUlNSySbvmOM4XYbADVgZJKpQ6nm5g9t/cmtJz3541tYjQSOIVWNi/72vvWDki5feMnH1iZzPZ8yxv+g9f2TrO8HXjgAxJSRjElmE8b82ks2ffGZe2/+cdiRgCipSgEYt33jV3OS/mrsX4llF733Ha7VBbJ2maydbo3a5NumambAMc0OO0BEZCQdDjtEnCWMMlaJUck8r4QebU5533nirvXPhJ0LiKqqFoCX8J+89zu3Sbqthp+JYzj5vHcF+ITVxmWlDdt++v01YecAgKCwJA8AQAxRAAAAiCEKAAAAMUQBAAAghigAAADEEAUAAIAYogAAABBDFAAAAGKIAgAAQAxRAAAAiCEKAAAAMUQBAAAghigAAADEEAUAAIAYogAAABBDFAAAAGKIAgAAQAxRAAAAiCEKAAAAMUQBAAAghlJhB6iGZZd8YEFCZrWMzrXSEkkzJE0KOxci7d3LV621YYeoQ46kAUm7ZPS4kX6SSyY2PHP7DcNhB0P9M8botKWv0utXLtfyRQs0ZeIEdXa0aWBoRPsO9ug3m7bqwd9s0r7u3rCjNiQTdoAAmWWrrn6rkf2UpHPVWP/dgCgZNdItiYT+9vEfrdsWdphaW75q7a2S1oSdo96duniB/uiKS3XK/BOP+jrf93XXzx7WuvUbdXhgsEbpIszoPZs3rFtfzEsbYgVgxcUfPMUa/z8ke37YWQCo3Uof8nxdtWzV2q+kR/X5XQ+sy4YdCvXjXRe/QR95/zuVMMf+PS2RSGjV+WfrrNMW6/P/dIOe3v58DRLGQ+TPAKxYdfXlNuk9IqPzw84C4EWajPSpCe26f/Fb3j8z7DCoDx+67G366JXvKurL/4WmTpqof/rzP9GihSdVKVn8RLoALF919Ses7M2ypjPsLABe0dmpZPLhZRdftSLsIAjXG89+ta54+4Vlv7+5qUl/+YkPasrErgBTxVdkC8DyS9b+L8n+o9jrByLAzDYJs2HpqrUzwk6CcLS1NuuPr7q04utMnTRRV69ZFUAiRLIALL147Rky+lfx5Q9EiJmdkH50zpo1bWEnQe2946JzA/vN/eLzztSs448L5FpxFrkCsPCSj7UkErpJUnPYWQCUbGU63fmZsEOg9t54zqsDu1YikdC5Z54a2PXiKnIFoE1Dfyrp5LBzAChTwv/fbAXEy5SJXVowZ1ag1zzz1MWBXi+OIlUAzlmzpk3GfDLsHAAqYE2nMfbzYcdA7cyYNlWmxFP/xzJz2tRArxdHkSoAIyOdl0qaHnYOAJUx1lx1yts/OCHsHKiNSV0dgV9zykT++FQqUgXAWqZrAQ2io8mxHOWOidFM8HOg0qOZwK8ZN9EpANddl5Bh0h/QKIx0QdgZUBu9A0OBX/NwP2OBKxWZArD44T0nSpocdg4AATGWwUAxsa+7R70Bf2Fv2roj0OvFUWQKQMI488POACBQ/EzHhLVWv3x0S6DXfOi3mwO9XhxFpwDYJLMfgcYyMewAqJ3vbXxArusFcq2ndzyvTU+zAlCpyBQAI5sLOwOAQPEzHSN7DxzS7T/+ecXX8X1f/37TD2WtDSBVvEWmADieu0mSH3YOAIF5LOwAqK3//PbtFe/df+M7d+jJZ58LKFG8RaYAbL37pgOSbg87B4BgGKP/CDsDast1PX3hX76lLdt2lvxea61uvO1u3brh/ioki6fIFABJSqUSH5W0J+wcACpkdPMTG9Z9N+wYqL3BobQ++ddf0/fv+lnRZwIODwzpC/+yTuu+t7HK6eIlUgXgsdtv2J9KJc6WNbeJ7QAgioaM1ecWtY98QBKbuDHlOK6+duP39cFrv6w77vuFDh9hToC1Vs88t0f/+e0f6spPfFEPPrwphKSNLbKP0126au2MpHSaNWIeJFDnjG+ssaZ7MOs/suuBdcGPhasjy1etvVViamkpjDGadfxxmjqpSxM629U3MKz9h3o1OJQOO1r0GL1n84Z164t5aaraWaply53ruiXdFXYOAEBlrLXa192jfd09YUeJlUhtAQAAgGBQAAAAiCEKAAAAMUQBAAAghigAAADEEAUAAIAYogAAABBDFAAAAGKIAgAAQAxRAAAAiCEKAAAAMUQBAAAghigAAADEEAUAAIAYogAAABBDFAAAAGKIAgAAQAxRAAAAiCEKAAAAMZQKO0BQrLXJ/v7+E1xpjhKJGZJM2JmAODLW5mTMXieR2D2rq6s37DwAjizyBaC3d2iRl/T/sGdg4AqZxExJkg05FBBjVkayUsrzdbB/4GEjc1PSd/9r6tSpQ2FnA/B7kd0CsNY2HRoYuNZL+puM9EnJzAw7E4AXM9KZkv0XL5F4+mB//zvDzgPg9yJZAHp6eib09g8+KKsvG6k57DwAjsXMNDLf7+kf/IuwkwAoiFwB2LNnT5tNNd1hjc4KOwuA0ljZ63r6+z8Zdg4AESwALZ0TvibpvLBzACiPlfn77v7+d4SdA4i7SBWAnr7ByyVdHXYOABUxCZlv7e/vPynsIECcRaYA9AwNnWyN/c+wcwAIxOQma75rrW0KOwgQV5EoADt32lbr+bdKmhB2FgDBsEZn9fQPfjHsHEBcRaIAdEwa/DdJp4adA0DAjD7NeQAgHHVfANj3Bxoa5wGAkNT1JMCeoaGTreeXve+fzeY0MDikXN6RtX6Q0QBIMjJKNac0ccIEdXa0l3uZ8fMA5xpjnCDzAXhldVsACvv+g2Xt+1trte/AQfUe7qtCMgAv1dNzWBMndGrOibOVTJa+sPiC8wCfCT4dgCOp2y2ASvb9+fIHam9wOK2du/fI2jIfxsF5AKCm6rIAVLLvP5RO8+UPhCSdHtGh3sPlvp3zAEAN1V0BqOR+f8/3tXfvgaAjAShB96FeZbO5ct/OfACgRuqqAFR6v/+B7oPKO5whAsJkfV/P79lX9lYA8wGA2qirAlDJvn96AdyGuQAADJBJREFUZFS9h/sDTgSgHJlsVgd7esu/AOcBgKqrmwJQyb6/b6327NsfcCIAlTh4qFejmUy5b+c8AFBldVEAKp3zf6D7oHK5fJCRAFTIWqvde/bL+mXP4OA8AFBFoReAPXv2tFWy7z86mmHpH6hT2VxO3YfK3wrgPABQPaEXgJbOrrL3/a3va/fe/eXfdwyg6g71HtboaNlbAZwHAKok1EmAPX2Dl1vZteW+v/tQr7K5sm83AlAD1lrt3rtfp7xqvowx5Vxi/DzA6bMmT34+6Hz17rjJE7XwpNmaMX2Kjj9uimYcN0XTpk5UV2enUsmE2ttb1dzUpJbmJmVzeTmuq5HRjDzP12A6rUO9AzrU26/u3n4dOHRY23ftVd/gUNj/tVAHQisAlc75z2SzlQwcAVBD2VxOBw4e0qwZx5d7idg8L2DeiTN1xqmLtWThXC1eeJKOmzyx6Pe2tjSrtaVZE8aey3CCpmnJwpe/7uDhfj29/Xlt3b5Lv35sq3YfOBhUfERIKAWg0n1/a632sPQPREpPz2F1VfDQoEZ+XsCiBSfpvDNP1etes0InzDiu6p93/NTJOn7qZJ131mn68Psu1e4DB/WLRzbrp796XNt27a3656M+hFIACvv+tqx9f0k62NOr0Uw2yEgAqsxK2r13vxa9ar4SiTKPHxXOA/xyxuTJPww0XAiamlJ67auX6d2rztOShfNCzTJn5vGas/p4Xb76Qj27c482/OSXuufB3zBYrcHVvABUuu+fzeV08BBL/0AU5fN57e8+pNmzZpR7icifB2huatI7L36D3vu2C9TV2RF2nJc5ed6JOvlDJ2rtuy/Rt2+/V3fc95Ac1w07FqqgpgWg0n1/K2nP3gOytuz7igGErPdwnyZO6NSECZ3lXiKS5wESxuiic8/Q2nev0vSpk8KOc0yTJ07QR698l971lvN0w60bdP+vHmPbtcHU7DbASvf9Jam357BGRkcDTAUgDHv2H5BX/oCgyM0HWDj3BP3dZz+sT//RFZH48n+hmdOn6nN/cpX+9toPRy47jq5mBaCS+/0lKZ93dODQoQATAQhLPu/oQHeFJ88jMh/g6ndfoj9532otnj837CgVWbn8FH3zy5/RReeeEXYUBKQmBaAw57/8fX9J2r1vv3yf5SegUfQe7tdQOl3JJer6eQGtLS364p9drWULT5QktbS2hJyoch3trfrMh9+nT3zoPUqlkmHHQYWqXgAqnfMvSb19fUqnR4KKBKBO7NmzX67nVXKJunxewHFTJulLn7xa7a2FWM3NzSprBFKdetsFr9WXP/3h380bQDRVtQAEse+fdxwdOMDSP9CIHNfV/gPdFV2j3s4DnDx/9sQ//8jlL3oIUioZ6tDVqjh96av0D5/7qLom1N+dDChOVQtApfv+krRnX2WHhQDUt77+QQ0OD1d2kTo5D7Bly/NLPnrF2y/0XrKqUeYI5Lq38KQT9JXPf0xTJnaFHQVlqFoBCGLfPz0yquHhivYIAURAd3dPpZcI/TzA9u7u6X0jvb9xXfdlf6/6fkXbHHXtpFkz9KVPX6PWluawo6BEVSkAQez7S4WTwgAaXz6fD+IyoZ0H2LZtW0v33gObM9ncETfF805jD9J51dzZ+n8f/0D5Ex4RisD/3wpi33/chM52Gf5AAQ2vgqFALxLWeYD+0dzPR0cz01/pnzv5vF66LdBozj5tqT7wBxeHHQMlCPzbNYh9/3FNTU2ae+JstbC0BDQkYxKaOHGCTpw1M8CL1vY8wGNbnvns4ODQa472GivFYojZFe+4SKcvOznsGChSoCdTevoGL7fGfjvIawJAGfpd2ao/L2Dz00+vONQ/9JjnvHzf/6WmTJ6oObNPqGacunB4YEh/eO3faohbt8Nh9J7NG9atL+alga0ABLXvDwABqMl5gOGR/B3FfPlL0sDgcKUzDyJh6qQuXXP528OOgSIEUgCC3PcHgCBU+zzAo089fW16JD2n2Nf7vq/e3r5qxakrF593pk5f+qqwY+AYAikAQe77A0BgqnQeYP/+/e3Dw+m/LPV9h3p6lcsFcsdDXTPG6I/f/04lGnT+QaOouAAEcb8/AFRJVeYD7OsZ+GYuly/5dLJvrXbv3R+Lx+rOnzNLF7x2ZdgxcBQVFQD2/QFEQKDnAR7ZsWNieiT9nnLfPzI6qr37DwQRpe6tffclSia5lbuWrFT0QZOy/59h3x9AVAR6HmA0/zXHdSt6FN7hvgHt2XdAjb4OMHP6VJ1/1ulhx4gXq6LnapddANj3BxApAZwHsNYmRkZG1gQR53Bfv3bt2iPPbew7A967+k0N+yyEemR9DRT72rIKAPv+ACKo4vMAj2195lO5fOl7/69kcHhYT297Tv0Dg0Fdsu7MnzNLSxbODTtGfNjkjmJfWnIB6O0dWmSN/Uap7wOAOjA5Jd1srS1rCT+TyX4k6ECO6+j5Pfv09LM7dLivvyFXBC58PYcBa+TglruvL/pe05IeUm2tTTy76/nbjEnwAGgAUfW6oYGhL0m6tpQ3PfT44yekh0ar9rTBbC6nPfsOaO/+brW1tamttUWtrc1KJlJKJKK9hH7G8lPU0d6mkdFM2FEam7EPlvLykgrAU9u3f3rfgZ5FpSUCgPrS0tz0yZ07d/7NvHnzit4vbTbNfyFVf56/tVajo6MabbBnB6x+49n6zob7w47R0Iyf+Ekpry9pCyCdzn68tDgAUH9yeSeZzjnXlfKerJO7tEpxYuH0xQvCjtDgrOsZe1sp7yi6AGw7fLhreHQ0wEd2AUB4RrPZou8IeOSRR5qymey0auZpdC3NJS04o0RGumvLneu6S3lP0QUg29N3sR+DB1kAiIdczplV7GtTHR0X+DGY3ldNnu/rpFnTw47RsKz096W+p+gC4PkeD3kG0DA8zyt6MqC15jXVzBIXC+fODjtCY7J6YPOd//WzUt9WdAEwxlQ0+QoA6kkp8/h9axv3Rv0aGslkw47QgKzrJxN/Vs47iy8AqdT2cj4AAOpRIplwi31tyioew/urbGAoHXaERvTlLT+6YVM5byy6ACTz2Y2McwTQKJpTTQeLfe20KRM3JpMJDgFUIJlIatvOvWHHaDQ/mzo67wvlvrnoArB06dK+ttaWw+V+EADUk+aW5ruLfe2sWbNG21ra9lUzT6NLj2bl+X7YMRrJDptKveeBB64reiXrpUqaA9Da1vrNcj8IAOpFMpm0k9qaP1vKe1qbUzdUK08cPPCbslapcWQ7TdK76Mnbv1n0KtaRlFQAVi5d/Nm21tahSj4QAMLW1dlxx8KFCw+V8p7Tly+5rrWttb9amRqZ6/u67xePhh2jQZjHXM993RN33Liz0iuVVACMMX57V/tl7IUBiKq2ttaB9pQp+ZG+xhg7oaPzsmQqyTp2CZLJpK6/dWPYMRqCkW5sTja9fuvdNwVyKLWsU32PPfX0pw739f+d79MDAERHS0tzpmvC5FNPX7JgW7nXeOLZZ6/o7em/yfU8TkUfQyKR1Pfv/YUe/M0TYUeJuufk62Ob71p3Z5AXLfsP8KZnnrmqv2/om3nHKXqYBgCEpaO9bX9XS+rs5cuX76n0Wpueeuq9A0Oj38rl861BZGtEiWRS//2D+/TYlrK7VuwZ6Xkr+/fDo+b6XQ+sC3yIQkUNdtOm7dPzJn/zUDp9gee6JW0nAEAttLQ0j3Z0tH/1NcuWfCbI6+7fv799X2//99IjIxc5jsug+zHJZFI7dh/Qv99yh1yX8fFl6JHRPfL9mxd1Zu5Zv3591f5HDGQJa+fOna19mdzHPcd7s+97s33P7wjiugBQsoTxjdFQKpna2pJq+faKJQt/UM2Ps9YmHt/67Idd33uz53onWc+bam35f7daybie1+x7NuX7Xsq3SlhZI2vrc8vBGJtznHw6nRndumP3/tvu/XnFh9Piw+aMTNqXuhMyz8okNj+x4fotkthfBwAAAAAAAAAAAAAAAAAAAAAAAAAAAAAAAAAAAAAAAAAAAAAAAAAAAAAAAAAAAAAAAAAAAAAAAAAAAAAAAAAAAAAAAAAAAAAAAAAAAAAAAAAAAAAAAAAAAAAAAAAAAAAAAAAAAAAAAAAAAAAAAAAAAAAAAAAAAAAAAAAAAAAAAAAAAAAAAAAAAAAAAAAAAAAAAAAAAAAAAAAAAAAAAAAAAAAAAAAAAAAAAAAAAAAAAAAAAAAAAAAAAAAAAAAAAAAAAAAAAAAAAAAAAAAAAAAAAAAAAAAAAAAAAAAAAAAAAAAAAAAAAAAAAAAAAAAAAAAAAAAAAAAAAAAAAAAAAMLw/wHjbrffrANOTQAAAABJRU5ErkJggg==;" vertex="1" parent="1">
          <mxGeometry x="1007.5" y="650" width="81" height="81" as="geometry" />
        </mxCell>
        <mxCell id="UKOFYQc7yCOFPyKtpSYT-4" value="Linux Pc" style="text;html=1;align=center;verticalAlign=middle;whiteSpace=wrap;rounded=0;" vertex="1" parent="1">
          <mxGeometry x="1018" y="731" width="60" height="30" as="geometry" />
        </mxCell>
        <mxCell id="UKOFYQc7yCOFPyKtpSYT-5" value="Window Pc" style="text;html=1;align=center;verticalAlign=middle;whiteSpace=wrap;rounded=0;" vertex="1" parent="1">
          <mxGeometry x="1160" y="660" width="60" height="30" as="geometry" />
        </mxCell>
        <mxCell id="UKOFYQc7yCOFPyKtpSYT-6" value="" style="shape=image;verticalLabelPosition=bottom;labelBackgroundColor=default;verticalAlign=top;aspect=fixed;imageAspect=0;image=data:image/png,iVBORw0KGgoAAAANSUhEUgAAAOEAAADhCAMAAAAJbSJIAAAA+VBMVEUAAABBcsr///9ojtUmRH46Z8FCdM4kQHFrktpAcMYwVZYLFCRScKhAV4Jsk90bJjnx8fEeHh6i9cMrTIc3YawZK0weNFwbL1gjPnMRHzviebM5ZsA7aLg1XaWaUnrpfbknNVCp/8wQHTOK0aZnN1IUJEQJDhopPzKEx55up4VLclqU37I6WEYrTZDOb6NMes3o6Oh5eXkoR30FCRByltjZ2dlBQUEbL1mxsbGdnZ0YITErKysaLVDNzc0hOmaDg4N6uZMgMSeDRmcyWKU1NTVjY2O9vb1bim4XIxxAIjMNFytVVVU1Xa9XL0U0R2thhMYkExw8WZAjMEiQOwksAAAKDUlEQVR4nO2d6WLTOBSF6xbs2IEuOA7N4AANJAxTYGgy3Wiasg+UpQPv/zCTxJYs2deOJd1ETqLzr71Z9EW2rOVcaWMzR8dXFxvLo4ur4zyQDfjfu0e6yyyso10hwhPd5ZXQiQjhJ92lldJRecJL3WWVFHgvgoTLdxNGAisRJIzvwqFTde3HGkYFBu9EiHB3b/r6wK68bhN1pyXeg5rTAsKmbVVdDwjhfUNoCKsqQyhCyLZg2W9CCYoKldC2Q88naqdKWhi0bJcJWgVBQXnh+JvQCO1GwHYdeh5Xu2GT61j4XNAdccE+y2i7TsnOCqigYWMR2l76wx2mehvpIFv3YT0V7LoJodtRARzLu41DaIfZz04qys0GGf404LgrmFwZXUXAjY3vSIQB8NkhKeYICDbIO/tAsE2CmStDXF0UQqgKk0oMB0CQVmK2CpNKtFvqhLQS1QjB3zouZ/YunKhV9Ntck8u7h0D4EoXQjz7s7WGkd9O/unGwHQWfx8Fn0786PP77V5F+TP/quRx+a19Kp9G7b2ESPjm4N9UziPDPKHjwAiJ8+OiPiR49hQi7t6S0Pw/Ce0WE9xZM6BhCQ2gIV5Lw8CASSPgkDuYQRoIJfRlAH7UtBZ/4QZknPhisx31vsDckKpwnPljOflG3hfRowW5Li/TaVEcWE33AGT1dAx9NO9dQt5x2rqFuOenRgt1yQV0jjS2AyzQZOwI13KJBoIbrydBKnfAlDqFlZ4biHVpK2hAl6iWDXNIQMQqZmQNVQAdpBJylGLnsXITH323DkA22+QFUlws21AZQPtosxmRGxR8FsZp9tpTToJcEnQY/FTUOOsM4OHRSU1G21aZBUY18F3EmykrN+lkpIQV1ziZWVYbQEBpC/aKEp5KEEq1bIpVmsqxkn/ibH6evH/ieoLhFiVD03RJ6GetWNE75CMGAhNKGoXaC2Jz9anR9Kk34WfYrBqRLijFwENfn0oTxZSoh7+9Y0Hz+vAVepDmEr2W/5E5ta6rtN5hFL6nXAoSbx3Lm0t5NBLhVu4tc+tm6yHGY5hBu7p7viX/JgFThWD/xGYq0d55jL80lnFyql7FHcedOSW0lgFu1m7LvUtBOVMDLS/gCnUU4iU71eLtWTlucSr5JQduPowIWM5QhTBW9MqoZQkNoCLULj3C7qlIjPDs6if3eg52qKl7cOTk5OhMmPJPoV+hVHmMO4TLmI8AJJTmE57pLK6Xz8oTSgyfNAnunIOGV7qJK6qo04bf4HfVlUVzeb2UJd6Phb2sR84FqorOJ0Yr5hZkRXmLC1Z/VN4SGcCragEFfhRAUFDahbYeNWKGVSYux3VLBRmFQUJOUGcScGbfPmtCanBnDtnx2Cn/Y4O0WHmvuCtp8sK1gNxn0XbycmTDt+2LSgmw3Xco+Q+EOU0GHvTAgU5iA6iGWYwgw4CV1ARjwEn47DcjyqwJubPSQ6hAqyYAWE1pGo2tskHGTXOKAI0xYpziEoMGS1BNosCT1BBosR0WuRlHh5MyAv3Wh+ZQYiMHfpkN+G4wlRtScmX+fR/rCQbT54DsWguA/fRjp6/SvlAv6+r6U4rw35JyZqWAnu4LPW87JbnJmDKEhNIRLSlilnJm5tKUv/ooU/RXwhCT4BSL8+jTSfywhyZnptaQUjwVwnvhgn2ZU1KcJbA6CF+nTgIkqosLJmQG7njQtBup60rQYqOu5X5RQIyg6uFAcWwDDhyQtBhg+9IoSapKBB9hrFRO5DZVHwNmqYDJfslWRjPKBH4cZWSpvORBgjYAtN2UW7XCZL6mcoTo7U5FGHLCbhqgiNi00wnFr00wajcBLZb40Rsmd2vJdPhg6ySip008H+9LNzaDZRs2ZAWbyMIJqZnAzI2wIDWEVtEaEK7tCKv08jNbx66HlLljc48S2Z77+QawP0TO39Do+9WIsXk4C6Ir3zEt7MXRaoka0Mywx9ACtbSDhLn7JS4umuku8F2LJ8bVp3Cr5HyLxt14KEOozX+5QA7BwXlGO/TLPX3qsqbWhWTe1O2Jv/JS37Xy+R/j12Xnc4ry5uzDdJJby2s3sl8f1fH5+lp80g5ozoy7eqD5LJmfGEBpC/TKE5QkX15aKSbEt1fI8FJTK81BXn0Za3wT7NMuXFCTYL13OY1gExhY6x4cqKk+4nGlPOYlPFZunUZNozky9sfC5NlHJzrWtwXzp0hCu/pz3Gq1bGEJDOLd1fKVlfNR1fM6L0fXxvBiOkhcDb4dWIT9Nbwn9NKieKCahpjKeKMjXRg2GK+FrW3lv4ur7S9fAI7w2Pu818OobQkNoCPUTrnz+4QrnkK58HvDq53KvQT7+6u+pMGtfjPSBqQvbF+MabV+M+e1t4lVkb5NJWZj9aTJTZmX3pynevEbr/jRxaeAZQayg8FSiZWaEDaEhrILWiFB0hVRk70vm+2SbRXnRJ77g3pcC+5d2+sxRgI3h/HcqhRWXt3zOjMgetAHt2ykfZ6is8n4aoX2E6fy+jtOBeJXfR1jIFPWLHJ7ze24lLymBvaCF9vOmh+cs+NyVjIT28xawXyYW6Zt5Fn+2BPdk3yy5r/7vX4zr+ubn4nbUj6Syr34cnarobATO5F5b2KEIsR5HBSxmKEO4+l59Q6hLhtAQJoQrmjMjce7awqVy7prU2XkaJXx2nuT5hzoldv7hch7DInKGpfQ5pFolcA6p9FmymlX+LFnp84A1q/x5wLJnOi9csmc6S5/LvXChrR9WViZnxhAaQv3CJOSasPQXIQUFhUpou/4oiNXsh6kFftdLgk6Dx7AtbzSMg0OnnQ62HRIU1WiSnIN3ko7Pm+5HbHKP7fEGtSGXUNPmrThdLthQMJtsTJIe0BxDTvqzO0wx/XSwxyy4ZZ1dTLaN8mKVg/TEh9xpzaI1tWSjaMD0V08qURUwsSaq1iGU+kGcT3ba8zURXXCDbF00oQby/AnqGoUQvpj6RRbSwnwiUsOgNVNUODkzYIpZUITfKgrW+ZwZNaHmzBxWKWfGNzkzhtAQGsIlJTwoIjxYMOE82tK3h5HeQYTP4+AziPD9q0g/IMLWvpROMQnBJ/6wzBMf7PBcWwUdHlHhPPHBcpLepQv1TGjKAZT4MyS9NrWhUySknBkofYemxUCda5oWA3WuabdcecOB8b2CNHoCKpFU4bgSs0EmayRbiUMaRKjE7ziEwDh2lDBk70R29iNMI3aT4bHlqo4u2kgj4ElBuQu1x27fMQ5ytsuBzwVTe8f32W1RbDczeSCiIETMmbHt0POJUnNNk8SXJNjOpMWwQasgKChvkjQzr9lEKyOUoNbZxKrKEBpCQ6hfioSBQju3INEnfleMcDP2dw+dqouMpeJs4xMIBiQUyEWolMB8BJDwWHdRJQU622DX13JWIpxSkuNNPNFdWgmBd2G+v3T5ajEnKSjfI3x8tUwW04urvE3nN/8HiTETcsgVhtwAAAAASUVORK5CYII=;" vertex="1" parent="1">
          <mxGeometry x="610" y="397.5" width="60" height="60" as="geometry" />
        </mxCell>
        <mxCell id="UKOFYQc7yCOFPyKtpSYT-8" style="edgeStyle=orthogonalEdgeStyle;rounded=0;orthogonalLoop=1;jettySize=auto;html=1;exitX=0.5;exitY=1;exitDx=0;exitDy=0;entryX=0.2;entryY=0.016;entryDx=0;entryDy=0;entryPerimeter=0;" edge="1" parent="1" source="UKOFYQc7yCOFPyKtpSYT-7" target="P_Y8_BffKS8sCkRuGIxR-3">
          <mxGeometry relative="1" as="geometry">
            <mxPoint x="680" y="790" as="targetPoint" />
          </mxGeometry>
        </mxCell>
        <mxCell id="UKOFYQc7yCOFPyKtpSYT-7" value="VULN SERVER&amp;nbsp;" style="text;html=1;align=center;verticalAlign=middle;whiteSpace=wrap;rounded=0;" vertex="1" parent="1">
          <mxGeometry x="610" y="465" width="60" height="30" as="geometry" />
        </mxCell>
      </root>
    </mxGraphModel>
  </diagram>
</mxfile>
